<svg width="84" height="101" viewBox="0 0 84 101" fill="none" xmlns="http://www.w3.org/2000/svg">
<g filter="url(#filter0_d_994_25965)">
<path d="M19 85L27.7963 65.5L27.3333 65L44 72.5L33.3519 93L30.1111 85H19Z" fill="white"/>
</g>
<g filter="url(#filter1_d_994_25965)">
<path d="M66 85L57.2037 65.5L57.6667 65L41 72.5L51.6481 93L54.8889 85H66Z" fill="white"/>
</g>
<path d="M42 62.5878L47.4133 60L57.3329 80.7509L53.6263 80.0448L51.9197 83.3387L42 62.5878Z" fill="#1FC0E3"/>
<path d="M42.333 62.5877L36.9197 60L27.0001 80.7509L30.7067 80.0448L32.4133 83.3386L42.333 62.5877Z" fill="#1FC0E3"/>
<g filter="url(#filter2_d_994_25965)">
<path d="M38.185 3.14279C40.4008 1.31741 43.5992 1.31741 45.815 3.14279L46.6456 3.82704C48.1555 5.07088 50.1769 5.50055 52.0622 4.97837L53.0993 4.69111C55.866 3.92479 58.7878 5.22569 60.0696 7.7945L60.5501 8.75744C61.4235 10.5079 63.0954 11.7226 65.0301 12.0123L66.0944 12.1718C68.9336 12.597 71.0737 14.9739 71.1998 17.8419L71.2471 18.917C71.3331 20.8714 72.3664 22.6611 74.0159 23.7127L74.9233 24.2912C77.3441 25.8345 78.3324 28.8764 77.2811 31.5478L76.887 32.5492C76.1707 34.3695 76.3867 36.4248 77.4659 38.0564L78.0596 38.954C79.6433 41.3485 79.309 44.5293 77.262 46.5422L76.4947 47.2967C75.0998 48.6683 74.4612 50.6338 74.7835 52.5633L74.9608 53.6247C75.4337 56.4564 73.8345 59.2262 71.1458 60.2325L70.1379 60.6097C68.3057 61.2954 66.9229 62.8311 66.4325 64.7249L66.1627 65.7667C65.443 68.5459 62.8555 70.4258 59.9899 70.2515L58.9158 70.1861C56.9632 70.0673 55.0752 70.9079 53.8569 72.4385L53.1868 73.2805C51.3989 75.5266 48.2704 76.1916 45.7235 74.8668L44.7688 74.3702C43.0333 73.4675 40.9667 73.4675 39.2312 74.3702L38.2765 74.8668C35.7296 76.1916 32.6011 75.5266 30.8132 73.2805L30.1431 72.4385C28.9248 70.9079 27.0368 70.0673 25.0842 70.1861L24.0101 70.2515C21.1445 70.4258 18.557 68.5459 17.8373 65.7667L17.5675 64.7249C17.0771 62.8311 15.6943 61.2954 13.8621 60.6097L12.8542 60.2325C10.1655 59.2262 8.56633 56.4564 9.03925 53.6247L9.21653 52.5633C9.53878 50.6338 8.90017 48.6683 7.50532 47.2967L6.73799 46.5422C4.691 44.5293 4.35668 41.3485 5.94044 38.954L6.53413 38.0564C7.61332 36.4248 7.82934 34.3695 7.11296 32.5492L6.71887 31.5478C5.66755 28.8764 6.6559 25.8345 9.07666 24.2912L9.9841 23.7127C11.6336 22.6611 12.6669 20.8714 12.7529 18.917L12.8002 17.8419C12.9263 14.9739 15.0664 12.597 17.9056 12.1718L18.9699 12.0123C20.9046 11.7226 22.5765 10.5079 23.4499 8.75744L23.9304 7.7945C25.2122 5.22569 28.134 3.92479 30.9007 4.69111L31.9378 4.97837C33.8231 5.50055 35.8445 5.07088 37.3544 3.82704L38.185 3.14279Z" fill="white"/>
</g>
<circle cx="42" cy="39" r="24" fill="#45D882"/>
<circle cx="42" cy="39" r="30" fill="#1FC0E3"/>
<circle cx="42" cy="39" r="25" fill="white"/>
<circle cx="42" cy="39" r="20" fill="white"/>
<path d="M23.2218 33.1397C21.9847 37.137 22.028 41.4488 23.3587 45.4284" stroke="black" stroke-linecap="round" stroke-linejoin="round"/>
<path d="M57.1844 51.6387L54.5175 49.067V22.4788C54.5175 22.2143 54.3032 22 54.0388 22H30.1521C29.8876 22 29.6733 22.2143 29.6733 22.4788V53.3231C29.6733 53.5875 29.8876 53.8018 30.1521 53.8018H40.9987V54.5251C40.9987 54.9379 41.5126 55.1564 41.8098 54.8697L42.9173 53.8018H50.2437C50.5082 53.8018 50.7225 53.5875 50.7225 53.323C50.7225 53.0585 50.5082 52.8442 50.2437 52.8442H43.9103L44.9285 51.8624H50.7654L53.884 54.8696C54.1811 55.1561 54.6951 54.9381 54.6951 54.5251V52.4621H56.8521C57.2729 52.4621 57.4875 51.9311 57.1844 51.6387V51.6387ZM30.6309 52.8443V22.9576H53.5601V48.1436L52.4512 47.0742V24.4182C52.4512 24.1537 52.2369 23.9394 51.9724 23.9394H32.2185C31.9541 23.9394 31.7398 24.1537 31.7398 24.4182V42.089C31.7398 42.3534 31.9541 42.5677 32.2185 42.5677C32.483 42.5677 32.6973 42.3534 32.6973 42.089V24.8969H51.4936V43.0814C50.2138 41.4277 47.9172 40.8382 45.9996 41.6764C45.5835 41.6336 45.1625 41.6106 44.745 41.6096V39.732C45.8597 39.0018 46.6361 37.7963 46.7819 36.4051C47.7976 36.3794 48.6161 35.5458 48.6161 34.5241C48.6161 33.5107 47.8112 32.6823 46.8071 32.6435V30.4118C46.8071 27.8543 43.773 26.345 41.7339 27.9153C40.9564 28.5139 40.0289 28.4309 39.1099 28.4309C38.1581 28.4309 37.3837 29.2053 37.3837 30.1572V32.6435C36.3796 32.6823 35.5747 33.5107 35.5747 34.5241C35.5747 35.546 36.3934 36.3797 37.4093 36.4051C37.5529 37.7583 38.3006 38.9865 39.4459 39.7351V41.6095C36.7533 41.6161 34.0772 42.5174 31.9297 44.1418C31.8116 44.2311 31.7398 44.3756 31.7398 44.5236V51.3837C31.7398 51.5107 31.7902 51.6324 31.8799 51.7223C31.9698 51.812 32.0915 51.8625 32.2185 51.8625H38.3795C38.3018 52.1598 38.5343 52.4621 38.8417 52.4621H40.9987V52.8443H30.6309ZM49.0949 49.3184C47.8058 49.8416 46.2344 49.4331 45.2701 48.4687C43.8487 47.0473 43.8487 44.7345 45.2701 43.3131C46.6732 41.91 49.0228 41.91 50.4258 43.3131C51.8473 44.7345 51.8473 47.0473 50.4258 48.4687C50.0427 48.8518 49.5894 49.1388 49.0949 49.3184ZM41.2834 51.5046H40.0279L43.7247 47.9397C43.8549 48.201 44.0103 48.4504 44.1902 48.6849L41.2834 51.5046ZM39.2703 50.9049H32.6973L32.6974 44.7648C33.9822 43.8346 35.4551 43.1799 36.9992 42.8389L41.7584 47.5569C41.8517 47.6494 41.9736 47.6957 42.0954 47.6957C42.2173 47.6957 42.3392 47.6494 42.4325 47.5569L43.3137 46.6834C43.3293 46.774 43.3474 46.8639 43.3683 46.953L39.2703 50.9049ZM46.8072 33.602C47.283 33.6395 47.6586 34.0387 47.6586 34.5239C47.6586 35.0092 47.283 35.4083 46.8072 35.4458V33.602ZM45.8497 31.4163H38.3414V30.1571C38.3414 29.7332 38.6861 29.3883 39.11 29.3883C40.2556 29.3883 41.3531 29.4169 42.3182 28.6739C43.737 27.5813 45.8497 28.6312 45.8497 30.4118V31.4163ZM38.3414 32.3739H45.8497V35.9275C45.8497 37.906 44.24 39.5156 42.2615 39.5156C41.9971 39.5156 41.7828 39.7299 41.7828 39.9944C41.7828 40.2589 41.9971 40.4732 42.2615 40.4732C42.7967 40.4732 43.3102 40.3795 43.7875 40.2089V41.6092H40.4035V39.4667C40.4035 39.2966 40.3086 39.1341 40.1608 39.0502C39.0385 38.4131 38.3413 37.2165 38.3413 35.9275V32.3739H38.3414ZM39.4759 42.5667H44.6659C43.8907 43.3089 43.3929 44.3065 43.2744 45.3742L42.0955 46.5428L38.1622 42.6435C38.5977 42.593 39.0364 42.5667 39.4759 42.5667ZM37.3838 35.4459C36.908 35.4083 36.5324 35.0092 36.5324 34.524C36.5324 34.0388 36.908 33.6396 37.3838 33.6021V35.4459ZM41.9563 53.3243C41.9563 53.3239 41.9563 53.3234 41.9563 53.3231C41.9563 53.3227 41.9563 53.3222 41.9563 53.3218V52.186L44.8482 49.3807C45.08 49.5803 45.327 49.753 45.5854 49.8988L41.9563 53.3983V53.3243H41.9563ZM45.9214 50.9049L46.5439 50.3046C47.3902 50.5532 48.3039 50.5533 49.1503 50.3051L49.7723 50.9049H45.9214ZM50.1092 49.8995C50.3681 49.7537 50.6155 49.5807 50.8477 49.3808L53.7375 52.1859V53.3983L50.1092 49.8995ZM54.4104 51.5046L51.5057 48.685C51.6853 48.4509 51.8405 48.202 51.9706 47.9411L55.6658 51.5046H54.4104Z" fill="black"/>
<path d="M42.0955 35.8471C42.36 35.8471 42.5743 35.6328 42.5743 35.3683V34.6447C42.5743 34.3802 42.36 34.1659 42.0955 34.1659C41.831 34.1659 41.6167 34.3802 41.6167 34.6447V35.3683C41.6167 35.6328 41.8311 35.8471 42.0955 35.8471Z" fill="black"/>
<path d="M42.0955 38.0178C42.6305 38.0178 43.1418 37.7621 43.4632 37.3337C43.6218 37.1222 43.5789 36.822 43.3674 36.6634C43.156 36.5048 42.8558 36.5476 42.6971 36.7591C42.5536 36.9504 42.3343 37.0602 42.0955 37.0602C41.8828 37.0602 41.6862 36.9738 41.5421 36.817C41.363 36.6222 41.0603 36.6096 40.8655 36.7884C40.6708 36.9674 40.658 37.2703 40.837 37.465C41.1599 37.8163 41.6187 38.0178 42.0955 38.0178Z" fill="black"/>
<path d="M47.848 43.6382C46.6058 43.6382 45.5952 44.6488 45.5952 45.8909C45.5952 47.1167 46.6222 48.1437 47.848 48.1437C49.0738 48.1437 50.1008 47.1167 50.1008 45.8909C50.1008 44.6488 49.0902 43.6382 47.848 43.6382ZM47.848 47.1861C47.1338 47.1861 46.5528 46.6051 46.5528 45.8909C46.5528 45.1768 47.1339 44.5957 47.848 44.5957C48.5622 44.5957 49.1432 45.1768 49.1432 45.8909C49.1432 46.6051 48.5622 47.1861 47.848 47.1861Z" fill="black"/>
<path d="M61.2782 44.1321C62.5153 40.1348 62.472 35.823 61.1413 31.8434" stroke="black" stroke-linecap="round" stroke-linejoin="round"/>
<defs>
<filter id="filter0_d_994_25965" x="15" y="65" width="33" height="36" filterUnits="userSpaceOnUse" color-interpolation-filters="sRGB">
<feFlood flood-opacity="0" result="BackgroundImageFix"/>
<feColorMatrix in="SourceAlpha" type="matrix" values="0 0 0 0 0 0 0 0 0 0 0 0 0 0 0 0 0 0 127 0" result="hardAlpha"/>
<feOffset dy="4"/>
<feGaussianBlur stdDeviation="2"/>
<feComposite in2="hardAlpha" operator="out"/>
<feColorMatrix type="matrix" values="0 0 0 0 0 0 0 0 0 0 0 0 0 0 0 0 0 0 0.25 0"/>
<feBlend mode="normal" in2="BackgroundImageFix" result="effect1_dropShadow_994_25965"/>
<feBlend mode="normal" in="SourceGraphic" in2="effect1_dropShadow_994_25965" result="shape"/>
</filter>
<filter id="filter1_d_994_25965" x="37" y="65" width="33" height="36" filterUnits="userSpaceOnUse" color-interpolation-filters="sRGB">
<feFlood flood-opacity="0" result="BackgroundImageFix"/>
<feColorMatrix in="SourceAlpha" type="matrix" values="0 0 0 0 0 0 0 0 0 0 0 0 0 0 0 0 0 0 127 0" result="hardAlpha"/>
<feOffset dy="4"/>
<feGaussianBlur stdDeviation="2"/>
<feComposite in2="hardAlpha" operator="out"/>
<feColorMatrix type="matrix" values="0 0 0 0 0 0 0 0 0 0 0 0 0 0 0 0 0 0 0.25 0"/>
<feBlend mode="normal" in2="BackgroundImageFix" result="effect1_dropShadow_994_25965"/>
<feBlend mode="normal" in="SourceGraphic" in2="effect1_dropShadow_994_25965" result="shape"/>
</filter>
<filter id="filter2_d_994_25965" x="0.94458" y="1.77376" width="82.1106" height="81.7705" filterUnits="userSpaceOnUse" color-interpolation-filters="sRGB">
<feFlood flood-opacity="0" result="BackgroundImageFix"/>
<feColorMatrix in="SourceAlpha" type="matrix" values="0 0 0 0 0 0 0 0 0 0 0 0 0 0 0 0 0 0 127 0" result="hardAlpha"/>
<feOffset dy="4"/>
<feGaussianBlur stdDeviation="2"/>
<feComposite in2="hardAlpha" operator="out"/>
<feColorMatrix type="matrix" values="0 0 0 0 0 0 0 0 0 0 0 0 0 0 0 0 0 0 0.25 0"/>
<feBlend mode="normal" in2="BackgroundImageFix" result="effect1_dropShadow_994_25965"/>
<feBlend mode="normal" in="SourceGraphic" in2="effect1_dropShadow_994_25965" result="shape"/>
</filter>
</defs>
</svg>
