<svg width="84" height="101" viewBox="0 0 84 101" fill="none" xmlns="http://www.w3.org/2000/svg">
<g filter="url(#filter0_d_994_26010)">
<path d="M19 85L27.7963 65.5L27.3333 65L44 72.5L33.3519 93L30.1111 85H19Z" fill="white"/>
</g>
<g filter="url(#filter1_d_994_26010)">
<path d="M66 85L57.2037 65.5L57.6667 65L41 72.5L51.6481 93L54.8889 85H66Z" fill="white"/>
</g>
<path d="M42 62.5878L47.4133 60L57.3329 80.7509L53.6263 80.0448L51.9197 83.3387L42 62.5878Z" fill="#DEBA00"/>
<path d="M42.333 62.5877L36.9197 60L27.0001 80.7509L30.7067 80.0448L32.4133 83.3386L42.333 62.5877Z" fill="#DEBA00"/>
<g filter="url(#filter2_d_994_26010)">
<path d="M38.185 3.14279C40.4008 1.31741 43.5992 1.31741 45.815 3.14279L46.6456 3.82704C48.1555 5.07088 50.1769 5.50055 52.0622 4.97837L53.0993 4.69111C55.866 3.92479 58.7878 5.22569 60.0696 7.7945L60.5501 8.75744C61.4235 10.5079 63.0954 11.7226 65.0301 12.0123L66.0944 12.1718C68.9336 12.597 71.0737 14.9739 71.1998 17.8419L71.2471 18.917C71.3331 20.8714 72.3664 22.6611 74.0159 23.7127L74.9233 24.2912C77.3441 25.8345 78.3324 28.8764 77.2811 31.5478L76.887 32.5492C76.1707 34.3695 76.3867 36.4248 77.4659 38.0564L78.0596 38.954C79.6433 41.3485 79.309 44.5293 77.262 46.5422L76.4947 47.2967C75.0998 48.6683 74.4612 50.6338 74.7835 52.5633L74.9608 53.6247C75.4337 56.4564 73.8345 59.2262 71.1458 60.2325L70.1379 60.6097C68.3057 61.2954 66.9229 62.8311 66.4325 64.7249L66.1627 65.7667C65.443 68.5459 62.8555 70.4258 59.9899 70.2515L58.9158 70.1861C56.9632 70.0673 55.0752 70.9079 53.8569 72.4385L53.1868 73.2805C51.3989 75.5266 48.2704 76.1916 45.7235 74.8668L44.7688 74.3702C43.0333 73.4675 40.9667 73.4675 39.2312 74.3702L38.2765 74.8668C35.7296 76.1916 32.6011 75.5266 30.8132 73.2805L30.1431 72.4385C28.9248 70.9079 27.0368 70.0673 25.0842 70.1861L24.0101 70.2515C21.1445 70.4258 18.557 68.5459 17.8373 65.7667L17.5675 64.7249C17.0771 62.8311 15.6943 61.2954 13.8621 60.6097L12.8542 60.2325C10.1655 59.2262 8.56633 56.4564 9.03925 53.6247L9.21653 52.5633C9.53878 50.6338 8.90017 48.6683 7.50532 47.2967L6.73799 46.5422C4.691 44.5293 4.35668 41.3485 5.94044 38.954L6.53413 38.0564C7.61332 36.4248 7.82934 34.3695 7.11296 32.5492L6.71887 31.5478C5.66755 28.8764 6.6559 25.8345 9.07666 24.2912L9.9841 23.7127C11.6336 22.6611 12.6669 20.8714 12.7529 18.917L12.8002 17.8419C12.9263 14.9739 15.0664 12.597 17.9056 12.1718L18.9699 12.0123C20.9046 11.7226 22.5765 10.5079 23.4499 8.75744L23.9304 7.7945C25.2122 5.22569 28.134 3.92479 30.9007 4.69111L31.9378 4.97837C33.8231 5.50055 35.8445 5.07088 37.3544 3.82704L38.185 3.14279Z" fill="white"/>
</g>
<circle cx="42" cy="39" r="24" fill="#45D882"/>
<circle cx="42" cy="39" r="30" fill="#DEBA00"/>
<circle cx="42" cy="39" r="25" fill="white"/>
<circle cx="42" cy="39" r="20" fill="white"/>
<path d="M30.3403 21.9976C26.9201 24.4082 24.3221 27.8497 22.9463 31.8139" stroke="black" stroke-linecap="round" stroke-linejoin="round"/>
<path d="M52.9463 21.9976C56.3665 24.4082 58.9646 27.8497 60.3403 31.8139" stroke="black" stroke-linecap="round" stroke-linejoin="round"/>
<path d="M58.0777 49.8422C57.7395 49.7001 57.3502 49.8587 57.208 50.1968C56.275 52.4145 54.1176 53.8474 51.7118 53.8474C48.8253 53.8474 46.4118 51.7847 45.8671 49.056C45.8675 49.0455 45.8687 49.0352 45.8687 49.0246C45.8687 48.7321 45.8303 48.4484 45.7589 48.178C45.7542 48.0817 45.7517 47.9848 45.7517 47.8874C45.7517 45.3945 47.2903 43.2546 49.4677 42.3664L51.0726 48.0673C51.155 48.3602 51.4215 48.5516 51.7115 48.5516C51.771 48.5516 51.8316 48.5435 51.8918 48.5266C52.2448 48.4272 52.4504 48.0604 52.351 47.7074L50.7461 42.006C51.0605 41.9545 51.383 41.9274 51.7118 41.9274C54.0832 41.9274 56.2285 43.332 57.1772 45.5061C57.3239 45.8422 57.7152 45.9957 58.0515 45.849C58.3876 45.7023 58.5412 45.311 58.3945 44.9748C57.2345 42.3168 54.6114 40.5992 51.7118 40.5992C51.2585 40.5992 50.8149 40.6412 50.3842 40.7208L50.3273 40.5186C50.1352 39.8362 49.9918 39.1418 49.8973 38.4409C49.8973 38.4406 49.8972 38.4404 49.8972 38.4401C49.8425 38.0344 49.8039 37.6265 49.7822 37.2173C49.8427 37.5218 50.1113 37.7514 50.4336 37.7514H51.3409C52.5971 37.7514 53.6191 36.7294 53.6191 35.4733C53.6191 34.2171 52.5971 33.1952 51.3409 33.1952H49.3489L44.2561 28.6822C44.5203 28.7589 44.7991 28.8009 45.0877 28.8009C46.7355 28.8009 48.076 27.4603 48.076 25.8126C48.076 24.1649 46.7355 22.8243 45.0877 22.8243C43.44 22.8243 42.0994 24.1649 42.0994 25.8126C42.0994 26.374 42.2553 26.8996 42.5257 27.3488C42.0506 27.1324 41.5307 27.0177 40.993 27.0177C40.0044 27.0177 39.075 27.4027 38.376 28.1017L32.9385 33.5391C32.9371 33.5405 32.9359 33.5423 32.9345 33.5437C32.917 33.5615 32.9004 33.5804 32.8848 33.6004C32.883 33.6028 32.881 33.6049 32.8793 33.6072C32.8786 33.6081 32.8779 33.6088 32.8773 33.6097C32.532 34.0689 32.3349 34.6189 32.2931 35.2122H30.988C30.6213 35.2122 30.324 35.5095 30.324 35.8762V36.6888C30.324 38.0716 31.4489 39.1965 32.8317 39.1965H33.619L33.2785 40.667C32.9545 40.6227 32.624 40.5994 32.2881 40.5994C28.2694 40.5992 25 43.8687 25 47.8873C25 50.3477 26.2257 52.527 28.0983 53.8473H25.6641C25.2973 53.8473 25 54.1447 25 54.5114C25 54.8781 25.2973 55.1754 25.6641 55.1754H32.2881C35.8913 55.1754 38.8917 52.5469 39.4737 49.1068C39.5143 49.4346 39.7934 49.6886 40.1322 49.6886H44.6491C45.0843 51.3939 46.1223 52.8605 47.522 53.8473H43.306C42.9392 53.8473 42.6419 54.1447 42.6419 54.5114C42.6419 54.8781 42.9392 55.1754 43.306 55.1754H51.7119C54.6535 55.1754 57.2914 53.4234 58.4323 50.7118C58.5745 50.3738 58.4157 49.9845 58.0777 49.8422ZM49.7611 34.5232H51.3409C51.8647 34.5231 52.2909 34.9493 52.2909 35.4731C52.2909 35.997 51.8647 36.4232 51.3409 36.4232H50.4335C50.09 36.4232 49.8073 36.6841 49.773 37.0186C49.765 36.8183 49.7611 36.6181 49.7611 36.4174V34.5232ZM48.4973 37.8682H41.8418C41.7354 37.7413 41.6238 37.6181 41.5056 37.4999L39.4128 35.4069L42.17 32.6497L48.452 37.2001C48.4626 37.4232 48.4776 37.646 48.4973 37.8682ZM47.5173 39.1963L43.4482 42.8824L43.0605 40.4731C43.0597 40.4685 43.0589 40.4638 43.0581 40.4592C42.9779 40.0203 42.8467 39.5974 42.6694 39.1963H47.5173ZM45.0877 24.1523C46.0031 24.1523 46.7479 24.897 46.7479 25.8125C46.7479 26.7279 46.0031 27.4726 45.0877 27.4726C44.1723 27.4726 43.4276 26.7279 43.4276 25.8125C43.4276 24.897 44.1722 24.1523 45.0877 24.1523ZM39.3151 29.0407C39.7633 28.5925 40.3591 28.3456 40.993 28.3456C41.6268 28.3456 42.2227 28.5925 42.671 29.0408L48.433 34.158V35.5464L42.4905 31.242C42.3736 31.1573 42.237 31.1157 42.1012 31.1157C41.93 31.1157 41.76 31.1816 41.6314 31.3102L38.2776 34.6641L36.0615 34.0522L34.684 33.6719L39.3151 29.0407ZM32.8317 37.8683C32.1813 37.8682 31.6521 37.3391 31.6521 36.6887V36.5402H32.4492C32.5968 37.0296 32.8373 37.4827 33.1481 37.8683H32.8317ZM32.2881 53.8473C29.0018 53.8473 26.3281 51.1737 26.3281 47.8873C26.3281 44.6009 29.0018 41.9273 32.2881 41.9273C32.5212 41.9273 32.7511 41.9412 32.9774 41.9674L31.6412 47.7376C31.5955 47.9348 31.6423 48.1421 31.7683 48.3006C31.8943 48.4591 32.0857 48.5514 32.2881 48.5514H38.211C37.8797 51.5264 35.3501 53.8473 32.2881 53.8473ZM33.1235 47.2232L34.2712 42.267C36.3851 43.015 37.9548 44.9236 38.211 47.2232H33.1235V47.2232ZM34.5725 40.9663L34.9802 39.2056L38.163 41.0434L39.2081 45.5995C38.4846 43.4169 36.7556 41.6886 34.5725 40.9663ZM39.3927 40.4645C39.3515 40.2847 39.2373 40.1302 39.0776 40.0379L34.7786 37.5555C34.2301 37.2388 33.802 36.6143 33.6616 35.9258C33.5771 35.5122 33.6022 35.1205 33.7303 34.7864L35.6642 35.3203L38.128 36.0005L40.5666 38.439C41.183 39.0554 41.5923 39.8341 41.7504 40.6913L42.5572 45.7045C42.5543 45.7045 42.5514 45.7043 42.5484 45.7043H40.5947V45.7042L39.3927 40.4645ZM40.7962 48.3605V47.0323H42.5484C43.4142 47.0323 44.1527 47.5874 44.4268 48.3605H40.7962ZM44.5767 46.3986C44.3843 46.2495 44.1753 46.1212 43.9527 46.0168L43.7 44.4463L48.7918 39.8339C48.8662 40.1845 48.9516 40.5328 49.0489 40.8784L49.106 41.0812C46.8205 41.9592 45.0857 43.9565 44.5767 46.3986Z" fill="black"/>
<path d="M58.3358 47.2232C57.969 47.2232 57.6717 47.5206 57.6717 47.8873L57.6716 47.9184C57.6706 48.2851 57.967 48.5834 58.3338 48.5844C58.3344 48.5844 58.3351 48.5844 58.3358 48.5844C58.7016 48.5844 58.9987 48.2884 58.9998 47.9223L58.9999 47.8873C58.9998 47.5206 58.7025 47.2232 58.3358 47.2232Z" fill="black"/>
<path d="M41.1633 54.0421C41.0398 53.9179 40.8692 53.8475 40.6938 53.8475C40.5192 53.8475 40.3479 53.9179 40.2244 54.0421C40.1008 54.1656 40.0298 54.3363 40.0298 54.5116C40.0298 54.6862 40.1008 54.8575 40.2244 54.9811C40.3479 55.1045 40.5192 55.1756 40.6938 55.1756C40.8685 55.1756 41.0398 55.1046 41.1633 54.9811C41.2875 54.8575 41.3579 54.6862 41.3579 54.5116C41.3579 54.3363 41.2875 54.1656 41.1633 54.0421Z" fill="black"/>
<defs>
<filter id="filter0_d_994_26010" x="15" y="65" width="33" height="36" filterUnits="userSpaceOnUse" color-interpolation-filters="sRGB">
<feFlood flood-opacity="0" result="BackgroundImageFix"/>
<feColorMatrix in="SourceAlpha" type="matrix" values="0 0 0 0 0 0 0 0 0 0 0 0 0 0 0 0 0 0 127 0" result="hardAlpha"/>
<feOffset dy="4"/>
<feGaussianBlur stdDeviation="2"/>
<feComposite in2="hardAlpha" operator="out"/>
<feColorMatrix type="matrix" values="0 0 0 0 0 0 0 0 0 0 0 0 0 0 0 0 0 0 0.25 0"/>
<feBlend mode="normal" in2="BackgroundImageFix" result="effect1_dropShadow_994_26010"/>
<feBlend mode="normal" in="SourceGraphic" in2="effect1_dropShadow_994_26010" result="shape"/>
</filter>
<filter id="filter1_d_994_26010" x="37" y="65" width="33" height="36" filterUnits="userSpaceOnUse" color-interpolation-filters="sRGB">
<feFlood flood-opacity="0" result="BackgroundImageFix"/>
<feColorMatrix in="SourceAlpha" type="matrix" values="0 0 0 0 0 0 0 0 0 0 0 0 0 0 0 0 0 0 127 0" result="hardAlpha"/>
<feOffset dy="4"/>
<feGaussianBlur stdDeviation="2"/>
<feComposite in2="hardAlpha" operator="out"/>
<feColorMatrix type="matrix" values="0 0 0 0 0 0 0 0 0 0 0 0 0 0 0 0 0 0 0.25 0"/>
<feBlend mode="normal" in2="BackgroundImageFix" result="effect1_dropShadow_994_26010"/>
<feBlend mode="normal" in="SourceGraphic" in2="effect1_dropShadow_994_26010" result="shape"/>
</filter>
<filter id="filter2_d_994_26010" x="0.94458" y="1.77374" width="82.1106" height="81.7705" filterUnits="userSpaceOnUse" color-interpolation-filters="sRGB">
<feFlood flood-opacity="0" result="BackgroundImageFix"/>
<feColorMatrix in="SourceAlpha" type="matrix" values="0 0 0 0 0 0 0 0 0 0 0 0 0 0 0 0 0 0 127 0" result="hardAlpha"/>
<feOffset dy="4"/>
<feGaussianBlur stdDeviation="2"/>
<feComposite in2="hardAlpha" operator="out"/>
<feColorMatrix type="matrix" values="0 0 0 0 0 0 0 0 0 0 0 0 0 0 0 0 0 0 0.25 0"/>
<feBlend mode="normal" in2="BackgroundImageFix" result="effect1_dropShadow_994_26010"/>
<feBlend mode="normal" in="SourceGraphic" in2="effect1_dropShadow_994_26010" result="shape"/>
</filter>
</defs>
</svg>
