<svg width="84" height="101" viewBox="0 0 84 101" fill="none" xmlns="http://www.w3.org/2000/svg">
<g filter="url(#filter0_d_1018_27641)">
<path d="M19 85L27.7963 65.5L27.3333 65L44 72.5L33.3519 93L30.1111 85H19Z" fill="white"/>
</g>
<g filter="url(#filter1_d_1018_27641)">
<path d="M66 85L57.2037 65.5L57.6667 65L41 72.5L51.6481 93L54.8889 85H66Z" fill="white"/>
</g>
<path d="M42 62.5878L47.4133 60L57.3329 80.7509L53.6263 80.0448L51.9197 83.3387L42 62.5878Z" fill="#E53F7B"/>
<path d="M42.333 62.5878L36.9197 60L27.0001 80.7509L30.7067 80.0448L32.4133 83.3387L42.333 62.5878Z" fill="#E53F7B"/>
<g filter="url(#filter2_d_1018_27641)">
<path d="M38.185 3.14279C40.4008 1.31741 43.5992 1.31741 45.815 3.14279L46.6456 3.82704C48.1555 5.07088 50.1769 5.50055 52.0622 4.97837L53.0993 4.69111C55.866 3.92479 58.7878 5.22569 60.0696 7.7945L60.5501 8.75744C61.4235 10.5079 63.0954 11.7226 65.0301 12.0123L66.0944 12.1718C68.9336 12.597 71.0737 14.9739 71.1998 17.8419L71.2471 18.917C71.3331 20.8714 72.3664 22.6611 74.0159 23.7127L74.9233 24.2912C77.3441 25.8345 78.3324 28.8764 77.2811 31.5478L76.887 32.5492C76.1707 34.3695 76.3867 36.4248 77.4659 38.0564L78.0596 38.954C79.6433 41.3485 79.309 44.5293 77.262 46.5422L76.4947 47.2967C75.0998 48.6683 74.4612 50.6338 74.7835 52.5633L74.9608 53.6247C75.4337 56.4564 73.8345 59.2262 71.1458 60.2325L70.1379 60.6097C68.3057 61.2954 66.9229 62.8311 66.4325 64.7249L66.1627 65.7667C65.443 68.5459 62.8555 70.4258 59.9899 70.2515L58.9158 70.1861C56.9632 70.0673 55.0752 70.9079 53.8569 72.4385L53.1868 73.2805C51.3989 75.5266 48.2704 76.1916 45.7235 74.8668L44.7688 74.3702C43.0333 73.4675 40.9667 73.4675 39.2312 74.3702L38.2765 74.8668C35.7296 76.1916 32.6011 75.5266 30.8132 73.2805L30.1431 72.4385C28.9248 70.9079 27.0368 70.0673 25.0842 70.1861L24.0101 70.2515C21.1445 70.4258 18.557 68.5459 17.8373 65.7667L17.5675 64.7249C17.0771 62.8311 15.6943 61.2954 13.8621 60.6097L12.8542 60.2325C10.1655 59.2262 8.56633 56.4564 9.03925 53.6247L9.21653 52.5633C9.53878 50.6338 8.90017 48.6683 7.50532 47.2967L6.73799 46.5422C4.691 44.5293 4.35668 41.3485 5.94044 38.954L6.53413 38.0564C7.61332 36.4248 7.82934 34.3695 7.11296 32.5492L6.71887 31.5478C5.66755 28.8764 6.6559 25.8345 9.07666 24.2912L9.9841 23.7127C11.6336 22.6611 12.6669 20.8714 12.7529 18.917L12.8002 17.8419C12.9263 14.9739 15.0664 12.597 17.9056 12.1718L18.9699 12.0123C20.9046 11.7226 22.5765 10.5079 23.4499 8.75744L23.9304 7.7945C25.2122 5.22569 28.134 3.92479 30.9007 4.69111L31.9378 4.97837C33.8231 5.50055 35.8445 5.07088 37.3544 3.82704L38.185 3.14279Z" fill="white"/>
</g>
<circle cx="42" cy="39" r="24" fill="#45D882"/>
<circle cx="42" cy="39" r="30" fill="#E53F7B"/>
<circle cx="42" cy="39" r="25" fill="white"/>
<path d="M52.8663 49.0045L52.8662 49.0045L52.8609 49.0122C51.9633 50.3248 50.6801 51.3689 48.9773 52.1333C47.2806 52.8688 45.2285 53.25 42.8 53.25C40.4038 53.25 38.3381 52.8576 36.5854 52.0952C34.8588 51.3064 33.5013 50.2084 32.4916 48.8047C31.6851 47.6531 31.1459 46.3236 30.8811 44.8039C30.8725 44.7545 30.8851 44.7113 30.9199 44.6722C30.9575 44.6301 31.0182 44.598 31.0941 44.598H36.6791C36.7396 44.598 36.8045 44.6203 36.8698 44.6801C36.9385 44.7432 36.9971 44.8406 37.0214 44.956C37.2418 45.9987 37.7307 46.885 38.4915 47.5866L38.4915 47.5867L38.5 47.5943C39.5557 48.5384 40.9674 48.9657 42.64 48.9657C43.5765 48.9657 44.4192 48.8545 45.1537 48.6136C45.8918 48.3716 46.514 47.9915 46.9695 47.4447C47.4625 46.8856 47.71 46.2121 47.71 45.4613C47.71 44.5886 47.2908 43.873 46.5858 43.3387C45.9345 42.7993 45.1188 42.4582 44.1775 42.2844C44.177 42.2843 44.1765 42.2842 44.176 42.2842L38.9384 41.3009L38.935 41.3002C37.8454 41.1008 36.8699 40.7916 36.0033 40.3776C35.1395 39.9648 34.3958 39.4603 33.7661 38.8669C33.1745 38.259 32.712 37.5595 32.377 36.7634C32.0697 35.9446 31.91 35.0171 31.91 33.9715C31.91 32.3596 32.3471 30.9672 33.2094 29.7656L33.2094 29.7656L33.2133 29.76C34.0883 28.5167 35.2981 27.5358 36.8694 26.8243C38.4369 26.1145 40.2486 25.75 42.32 25.75C44.5243 25.75 46.4404 26.1406 48.0854 26.9007L48.0893 26.9024C49.7646 27.6649 51.0846 28.7375 52.0694 30.1181L52.0783 30.1303C52.8998 31.234 53.4305 32.522 53.6629 34.0102C53.6701 34.0563 53.6581 34.0965 53.6242 34.1337C53.5874 34.174 53.5275 34.2052 53.4527 34.2052H47.8203C47.7609 34.2052 47.6968 34.1837 47.6313 34.125C47.5625 34.0632 47.5026 33.9674 47.4754 33.8527C47.3428 33.2936 47.1299 32.7774 46.833 32.3102C46.3657 31.5745 45.7504 30.9983 44.9927 30.5945C44.2264 30.1863 43.3546 29.9949 42.4 29.9949C41.5769 29.9949 40.8281 30.1247 40.1764 30.4132C39.5393 30.6953 39.0134 31.1016 38.6318 31.6438C38.2397 32.1739 38.05 32.7896 38.05 33.46C38.05 34.0334 38.2177 34.5628 38.5636 35.0165C38.5779 35.0353 38.5931 35.0534 38.6092 35.0708C38.95 35.4396 39.3765 35.7401 39.869 35.9824C39.8804 35.988 39.8919 35.9933 39.9035 35.9983C40.3816 36.204 40.8972 36.3626 41.4479 36.4766L41.4479 36.4767L41.4592 36.4789L47.0167 37.5408C47.017 37.5409 47.0174 37.5409 47.0177 37.541C49.4938 38.0232 51.2901 38.8577 52.4851 39.9863L52.485 39.9863L52.4908 39.9916C53.6504 41.0639 54.25 42.4933 54.25 44.3596C54.25 46.1628 53.782 47.7007 52.8663 49.0045Z" fill="white" stroke="black" stroke-width="1.5" stroke-linecap="round" stroke-linejoin="round"/>
<path d="M30.3403 21.9976C26.9201 24.4082 24.3221 27.8497 22.9463 31.8139" stroke="black" stroke-linecap="round" stroke-linejoin="round"/>
<path d="M53.9463 55.8139C57.3665 53.4033 59.9646 49.9619 61.3403 45.9976" stroke="black" stroke-linecap="round" stroke-linejoin="round"/>
<path d="M52.9463 21.9976C56.3665 24.4082 58.9646 27.8497 60.3403 31.8139" stroke="black" stroke-linecap="round" stroke-linejoin="round"/>
<path d="M30.3401 55.8139C26.9199 53.4033 24.3218 49.9619 22.9461 45.9976" stroke="black" stroke-linecap="round" stroke-linejoin="round"/>
<defs>
<filter id="filter0_d_1018_27641" x="15" y="65" width="33" height="36" filterUnits="userSpaceOnUse" color-interpolation-filters="sRGB">
<feFlood flood-opacity="0" result="BackgroundImageFix"/>
<feColorMatrix in="SourceAlpha" type="matrix" values="0 0 0 0 0 0 0 0 0 0 0 0 0 0 0 0 0 0 127 0" result="hardAlpha"/>
<feOffset dy="4"/>
<feGaussianBlur stdDeviation="2"/>
<feComposite in2="hardAlpha" operator="out"/>
<feColorMatrix type="matrix" values="0 0 0 0 0 0 0 0 0 0 0 0 0 0 0 0 0 0 0.25 0"/>
<feBlend mode="normal" in2="BackgroundImageFix" result="effect1_dropShadow_1018_27641"/>
<feBlend mode="normal" in="SourceGraphic" in2="effect1_dropShadow_1018_27641" result="shape"/>
</filter>
<filter id="filter1_d_1018_27641" x="37" y="65" width="33" height="36" filterUnits="userSpaceOnUse" color-interpolation-filters="sRGB">
<feFlood flood-opacity="0" result="BackgroundImageFix"/>
<feColorMatrix in="SourceAlpha" type="matrix" values="0 0 0 0 0 0 0 0 0 0 0 0 0 0 0 0 0 0 127 0" result="hardAlpha"/>
<feOffset dy="4"/>
<feGaussianBlur stdDeviation="2"/>
<feComposite in2="hardAlpha" operator="out"/>
<feColorMatrix type="matrix" values="0 0 0 0 0 0 0 0 0 0 0 0 0 0 0 0 0 0 0.25 0"/>
<feBlend mode="normal" in2="BackgroundImageFix" result="effect1_dropShadow_1018_27641"/>
<feBlend mode="normal" in="SourceGraphic" in2="effect1_dropShadow_1018_27641" result="shape"/>
</filter>
<filter id="filter2_d_1018_27641" x="0.94458" y="1.77374" width="82.1106" height="81.7705" filterUnits="userSpaceOnUse" color-interpolation-filters="sRGB">
<feFlood flood-opacity="0" result="BackgroundImageFix"/>
<feColorMatrix in="SourceAlpha" type="matrix" values="0 0 0 0 0 0 0 0 0 0 0 0 0 0 0 0 0 0 127 0" result="hardAlpha"/>
<feOffset dy="4"/>
<feGaussianBlur stdDeviation="2"/>
<feComposite in2="hardAlpha" operator="out"/>
<feColorMatrix type="matrix" values="0 0 0 0 0 0 0 0 0 0 0 0 0 0 0 0 0 0 0.25 0"/>
<feBlend mode="normal" in2="BackgroundImageFix" result="effect1_dropShadow_1018_27641"/>
<feBlend mode="normal" in="SourceGraphic" in2="effect1_dropShadow_1018_27641" result="shape"/>
</filter>
</defs>
</svg>
