<svg width="84" height="101" viewBox="0 0 84 101" fill="none" xmlns="http://www.w3.org/2000/svg">
<g filter="url(#filter0_d_994_25980)">
<path d="M19 85L27.7963 65.5L27.3333 65L44 72.5L33.3519 93L30.1111 85H19Z" fill="white"/>
</g>
<g filter="url(#filter1_d_994_25980)">
<path d="M66 85L57.2037 65.5L57.6667 65L41 72.5L51.6481 93L54.8889 85H66Z" fill="white"/>
</g>
<path d="M42 62.5878L47.4133 60L57.3329 80.7509L53.6263 80.0448L51.9197 83.3387L42 62.5878Z" fill="#CD51EC"/>
<path d="M42.333 62.5877L36.9197 60L27.0001 80.7509L30.7067 80.0448L32.4133 83.3386L42.333 62.5877Z" fill="#CD51EC"/>
<g filter="url(#filter2_d_994_25980)">
<path d="M38.185 3.14279C40.4008 1.31741 43.5992 1.31741 45.815 3.14279L46.6456 3.82704C48.1555 5.07088 50.1769 5.50055 52.0622 4.97837L53.0993 4.69111C55.866 3.92479 58.7878 5.22569 60.0696 7.7945L60.5501 8.75744C61.4235 10.5079 63.0954 11.7226 65.0301 12.0123L66.0944 12.1718C68.9336 12.597 71.0737 14.9739 71.1998 17.8419L71.2471 18.917C71.3331 20.8714 72.3664 22.6611 74.0159 23.7127L74.9233 24.2912C77.3441 25.8345 78.3324 28.8764 77.2811 31.5478L76.887 32.5492C76.1707 34.3695 76.3867 36.4248 77.4659 38.0564L78.0596 38.954C79.6433 41.3485 79.309 44.5293 77.262 46.5422L76.4947 47.2967C75.0998 48.6683 74.4612 50.6338 74.7835 52.5633L74.9608 53.6247C75.4337 56.4564 73.8345 59.2262 71.1458 60.2325L70.1379 60.6097C68.3057 61.2954 66.9229 62.8311 66.4325 64.7249L66.1627 65.7667C65.443 68.5459 62.8555 70.4258 59.9899 70.2515L58.9158 70.1861C56.9632 70.0673 55.0752 70.9079 53.8569 72.4385L53.1868 73.2805C51.3989 75.5266 48.2704 76.1916 45.7235 74.8668L44.7688 74.3702C43.0333 73.4675 40.9667 73.4675 39.2312 74.3702L38.2765 74.8668C35.7296 76.1916 32.6011 75.5266 30.8132 73.2805L30.1431 72.4385C28.9248 70.9079 27.0368 70.0673 25.0842 70.1861L24.0101 70.2515C21.1445 70.4258 18.557 68.5459 17.8373 65.7667L17.5675 64.7249C17.0771 62.8311 15.6943 61.2954 13.8621 60.6097L12.8542 60.2325C10.1655 59.2262 8.56633 56.4564 9.03925 53.6247L9.21653 52.5633C9.53878 50.6338 8.90017 48.6683 7.50532 47.2967L6.73799 46.5422C4.691 44.5293 4.35668 41.3485 5.94044 38.954L6.53413 38.0564C7.61332 36.4248 7.82934 34.3695 7.11296 32.5492L6.71887 31.5478C5.66755 28.8764 6.6559 25.8345 9.07666 24.2912L9.9841 23.7127C11.6336 22.6611 12.6669 20.8714 12.7529 18.917L12.8002 17.8419C12.9263 14.9739 15.0664 12.597 17.9056 12.1718L18.9699 12.0123C20.9046 11.7226 22.5765 10.5079 23.4499 8.75744L23.9304 7.7945C25.2122 5.22569 28.134 3.92479 30.9007 4.69111L31.9378 4.97837C33.8231 5.50055 35.8445 5.07088 37.3544 3.82704L38.185 3.14279Z" fill="white"/>
</g>
<circle cx="42" cy="39" r="24" fill="#45D882"/>
<circle cx="42" cy="39" r="30" fill="#CD51EC"/>
<circle cx="42" cy="39" r="25" fill="white"/>
<circle cx="42" cy="39" r="20" fill="white"/>
<path d="M47.7463 19.6077C43.749 18.3705 39.4372 18.4139 35.4576 19.7445" stroke="black" stroke-linecap="round" stroke-linejoin="round"/>
<path d="M26.5938 46.4375H27.6562V45.9062C27.6563 45.7654 27.7122 45.6302 27.8119 45.5306C27.9115 45.431 28.0466 45.375 28.1875 45.375H29.7812C29.8637 45.375 29.9451 45.3942 30.0188 45.4311C30.0926 45.468 30.1568 45.5215 30.2062 45.5875L31.5186 47.3373L34.7096 45.5139L36.232 42.9767C36.279 42.8982 36.3455 42.8333 36.4251 42.7881L39.5299 41.0239C39.0654 40.4564 38.8119 39.7454 38.8125 39.012V36.875H37.75V35.8125H39.2732L38.8166 32.1596C38.8072 32.0849 38.8139 32.009 38.8361 31.937C38.8584 31.8651 38.8956 31.7986 38.9455 31.7422C38.9953 31.6857 39.0566 31.6405 39.1253 31.6095C39.194 31.5785 39.2684 31.5625 39.3438 31.5625H44.6562C44.7316 31.5625 44.806 31.5785 44.8747 31.6095C44.9434 31.6405 45.0047 31.6857 45.0545 31.7422C45.1044 31.7986 45.1416 31.8651 45.1639 31.937C45.1861 32.009 45.1927 32.0849 45.1834 32.1596L44.7268 35.8125H46.25V36.875H45.1875V39.012C45.1881 39.7454 44.9346 40.4564 44.4701 41.0239L47.5749 42.7881C47.6545 42.8333 47.721 42.8982 47.768 42.9767L49.2904 45.5139L52.4814 47.3373L53.7938 45.5875C53.8432 45.5215 53.9074 45.468 53.9812 45.4311C54.0549 45.3942 54.1363 45.375 54.2188 45.375H55.8125C55.9534 45.375 56.0885 45.431 56.1881 45.5306C56.2878 45.6302 56.3437 45.7654 56.3438 45.9062V46.4375H57.4062C57.5471 46.4375 57.6823 46.4935 57.7819 46.5931C57.8815 46.6927 57.9375 46.8279 57.9375 46.9688V49.0938C57.9375 49.1812 57.9159 49.2673 57.8746 49.3444C57.8334 49.4215 57.7737 49.4873 57.7009 49.5358L56.1072 50.5983C56.0199 50.6564 55.9174 50.6875 55.8125 50.6875H48.375C48.2933 50.6875 48.2128 50.6687 48.1396 50.6325L46.7812 49.961V54.4062C46.7812 54.5471 46.7253 54.6823 46.6256 54.7819C46.526 54.8815 46.3909 54.9375 46.25 54.9375H37.75C37.6091 54.9375 37.474 54.8815 37.3744 54.7819C37.2747 54.6823 37.2188 54.5471 37.2188 54.4062V49.961L35.8604 50.6325C35.7872 50.6687 35.7067 50.6875 35.625 50.6875H28.1875C28.0826 50.6875 27.9801 50.6564 27.8928 50.5983L26.2991 49.5358C26.2263 49.4873 26.1666 49.4215 26.1254 49.3444C26.0841 49.2673 26.0625 49.1812 26.0625 49.0938V46.9688C26.0625 46.8279 26.1185 46.6927 26.2181 46.5931C26.3177 46.4935 26.4529 46.4375 26.5938 46.4375V46.4375ZM53.1562 49.625H55.6516L56.875 48.8094V47.5H55.7426L55.192 48.3259L54.308 47.7366L55.174 46.4375H54.4844L53.1562 48.2083V49.625ZM48.4992 49.625H52.0938V48.3395L48.6427 46.3675C48.5637 46.3223 48.4976 46.2576 48.4507 46.1796L47.5832 44.7338L46.8442 48.8068L48.4992 49.625ZM39.9456 32.625L40.344 35.8125H43.656L44.0544 32.625H39.9456ZM44.125 36.875H39.875V39.012C39.875 39.5756 40.0989 40.1161 40.4974 40.5146C40.8959 40.9131 41.4364 41.137 42 41.137C42.5636 41.137 43.1041 40.9131 43.5026 40.5146C43.9011 40.1161 44.125 39.5756 44.125 39.012V36.875ZM39.5366 42.2422L41.4688 44.6574V42.1544C41.0869 42.09 40.72 41.9561 40.3865 41.7593L39.5366 42.2422ZM43.6135 41.7593C43.28 41.9561 42.9131 42.09 42.5312 42.1544V44.8438L44.4768 42.2498L43.6135 41.7593ZM43.4773 47.1682C43.5527 47.2623 43.5938 47.3794 43.5938 47.5V53.875H45.7188V49.1057C45.7191 49.074 45.7223 49.0423 45.7283 49.0111L45.7273 49.0109L46.7225 43.5258L45.408 42.7789L42.7747 46.2899L43.4773 47.1682ZM38.2727 49.0109L38.2717 49.011C38.2777 49.0423 38.2809 49.074 38.2812 49.1057V53.875H42.5312V47.6864L38.6011 42.7737L37.2775 43.5258L38.2727 49.0109ZM31.9062 49.625H35.5008L37.1558 48.8068L36.4168 44.7338L35.5493 46.1796C35.5024 46.2576 35.4363 46.3223 35.3573 46.3675L31.9062 48.3395V49.625ZM27.125 48.8094L28.3484 49.625H30.8438V48.2083L29.5156 46.4375H28.826L29.692 47.7366L28.808 48.3259L28.2574 47.5H27.125V48.8094Z" fill="black"/>
<path d="M41.4688 48.5625C41.1753 48.5625 40.9375 48.3247 40.9375 48.0312C40.9375 47.7378 41.1753 47.5 41.4688 47.5C41.7622 47.5 42 47.7378 42 48.0312C42 48.3247 41.7622 48.5625 41.4688 48.5625Z" fill="black"/>
<path d="M41.4688 50.6875C41.1753 50.6875 40.9375 50.4497 40.9375 50.1562C40.9375 49.8628 41.1753 49.625 41.4688 49.625C41.7622 49.625 42 49.8628 42 50.1562C42 50.4497 41.7622 50.6875 41.4688 50.6875Z" fill="black"/>
<path d="M41.4688 52.8125C41.1753 52.8125 40.9375 52.5747 40.9375 52.2812C40.9375 51.9878 41.1753 51.75 41.4688 51.75C41.7622 51.75 42 51.9878 42 52.2812C42 52.5747 41.7622 52.8125 41.4688 52.8125Z" fill="black"/>
<path d="M54.75 42.1875C54.1196 42.1875 53.5033 42.0006 52.9791 41.6503C52.4549 41.3001 52.0464 40.8022 51.8051 40.2198C51.5639 39.6374 51.5008 38.9965 51.6237 38.3782C51.7467 37.7598 52.0503 37.1919 52.4961 36.7461C52.9419 36.3003 53.5098 35.9967 54.1281 35.8737C54.7465 35.7508 55.3874 35.8139 55.9698 36.0551C56.5522 36.2964 57.0501 36.7049 57.4003 37.2291C57.7506 37.7533 57.9375 38.3696 57.9375 39C57.9366 39.8451 57.6004 40.6553 57.0029 41.2529C56.4053 41.8504 55.5951 42.1866 54.75 42.1875V42.1875ZM54.75 36.875C54.3297 36.875 53.9189 36.9996 53.5694 37.2331C53.22 37.4666 52.9476 37.7985 52.7868 38.1868C52.6259 38.5751 52.5838 39.0024 52.6658 39.4146C52.7478 39.8268 52.9502 40.2054 53.2474 40.5026C53.5446 40.7998 53.9232 41.0022 54.3354 41.0842C54.7476 41.1662 55.1749 41.1241 55.5632 40.9632C55.9515 40.8024 56.2834 40.53 56.5169 40.1806C56.7504 39.8311 56.875 39.4203 56.875 39C56.8744 38.4366 56.6503 37.8965 56.2519 37.4981C55.8535 37.0997 55.3134 36.8756 54.75 36.875V36.875Z" fill="black"/>
<path d="M48.7617 32.2383C48.2403 31.7168 47.9157 31.0307 47.8434 30.2968C47.7712 29.5629 47.9556 28.8267 48.3653 28.2135C48.775 27.6003 49.3846 27.1482 50.0903 26.9341C50.796 26.72 51.5541 26.7573 52.2354 27.0395C52.9167 27.3217 53.4791 27.8314 53.8267 28.4818C54.1744 29.1321 54.2857 29.8829 54.1419 30.6062C53.998 31.3295 53.6078 31.9805 53.0377 32.4483C52.4677 32.9162 51.7531 33.1719 51.0156 33.1719C50.1703 33.1715 49.3597 32.8357 48.7617 32.2383ZM52.5182 28.4818C52.221 28.1846 51.8424 27.9822 51.4302 27.9002C51.018 27.8182 50.5907 27.8603 50.2024 28.0211C49.8141 28.182 49.4822 28.4543 49.2487 28.8038C49.0152 29.1532 48.8906 29.5641 48.8906 29.9844C48.8906 30.4047 49.0152 30.8155 49.2487 31.165C49.4822 31.5144 49.8141 31.7868 50.2024 31.9476C50.5907 32.1085 51.018 32.1505 51.4302 32.0685C51.8424 31.9865 52.221 31.7841 52.5182 31.4869C52.7172 31.2906 52.8752 31.0566 52.983 30.7987C53.0908 30.5407 53.1464 30.2639 53.1464 29.9844C53.1464 29.7048 53.0908 29.428 52.983 29.1701C52.8752 28.9121 52.7172 28.6782 52.5182 28.4818V28.4818Z" fill="black"/>
<path d="M42 29.4375C41.3696 29.4375 40.7533 29.2506 40.2291 28.9003C39.7049 28.5501 39.2964 28.0522 39.0551 27.4698C38.8139 26.8874 38.7508 26.2465 38.8737 25.6282C38.9967 25.0098 39.3003 24.4419 39.7461 23.9961C40.1919 23.5503 40.7598 23.2467 41.3781 23.1237C41.9965 23.0008 42.6374 23.0639 43.2198 23.3051C43.8022 23.5464 44.3001 23.9549 44.6503 24.4791C45.0006 25.0033 45.1875 25.6196 45.1875 26.25C45.1866 27.0951 44.8504 27.9053 44.2529 28.5029C43.6553 29.1004 42.8451 29.4366 42 29.4375V29.4375ZM42 24.125C41.5797 24.125 41.1689 24.2496 40.8194 24.4831C40.47 24.7166 40.1976 25.0485 40.0368 25.4368C39.8759 25.8251 39.8338 26.2524 39.9158 26.6646C39.9978 27.0768 40.2002 27.4554 40.4974 27.7526C40.7946 28.0498 41.1732 28.2522 41.5854 28.3342C41.9976 28.4162 42.4249 28.3741 42.8132 28.2132C43.2015 28.0524 43.5334 27.78 43.7669 27.4306C44.0004 27.0811 44.125 26.6703 44.125 26.25C44.1244 25.6866 43.9003 25.1465 43.5019 24.7481C43.1035 24.3497 42.5634 24.1256 42 24.125Z" fill="black"/>
<path d="M30.7305 32.2383C30.209 31.7168 29.8845 31.0307 29.8122 30.2968C29.7399 29.5629 29.9243 28.8267 30.334 28.2135C30.7437 27.6003 31.3534 27.1482 32.0591 26.9341C32.7647 26.72 33.5228 26.7573 34.2042 27.0395C34.8855 27.3217 35.4479 27.8314 35.7955 28.4818C36.1431 29.1321 36.2545 29.8829 36.1106 30.6062C35.9668 31.3295 35.5766 31.9805 35.0065 32.4483C34.4364 32.9162 33.7218 33.1719 32.9844 33.1719C32.1391 33.1715 31.3285 32.8357 30.7305 32.2383V32.2383ZM34.487 28.4818C34.1898 28.1846 33.8111 27.9822 33.3989 27.9002C32.9867 27.8182 32.5594 27.8603 32.1711 28.0211C31.7828 28.182 31.451 28.4543 31.2175 28.8038C30.984 29.1532 30.8593 29.5641 30.8593 29.9844C30.8593 30.4047 30.984 30.8155 31.2175 31.165C31.451 31.5144 31.7828 31.7868 32.1711 31.9476C32.5594 32.1085 32.9867 32.1505 33.3989 32.0685C33.8111 31.9865 34.1898 31.7841 34.487 31.4869C34.686 31.2906 34.844 31.0566 34.9519 30.7987C35.0597 30.5408 35.1153 30.264 35.1153 29.9844C35.1153 29.7048 35.0597 29.428 34.9519 29.1701C34.844 28.9121 34.686 28.6782 34.487 28.4818V28.4818Z" fill="black"/>
<path d="M29.25 35.8125C29.8804 35.8125 30.4967 35.9994 31.0209 36.3497C31.5451 36.6999 31.9536 37.1978 32.1949 37.7802C32.4361 38.3626 32.4992 39.0035 32.3763 39.6219C32.2533 40.2402 31.9497 40.8081 31.5039 41.2539C31.0581 41.6997 30.4902 42.0033 29.8718 42.1263C29.2535 42.2492 28.6126 42.1861 28.0302 41.9449C27.4478 41.7036 26.9499 41.2951 26.5997 40.7709C26.2494 40.2467 26.0625 39.6304 26.0625 39C26.0634 38.1549 26.3996 37.3447 26.9971 36.7471C27.5947 36.1496 28.4049 35.8134 29.25 35.8125V35.8125ZM29.25 41.125C29.6703 41.125 30.0811 41.0004 30.4306 40.7669C30.78 40.5334 31.0524 40.2015 31.2132 39.8132C31.3741 39.4249 31.4162 38.9976 31.3342 38.5854C31.2522 38.1732 31.0498 37.7946 30.7526 37.4974C30.4554 37.2002 30.0768 36.9978 29.6646 36.9158C29.2524 36.8338 28.8251 36.8759 28.4368 37.0368C28.0485 37.1976 27.7166 37.47 27.4831 37.8194C27.2496 38.1689 27.125 38.5797 27.125 39C27.1256 39.5634 27.3497 40.1035 27.7481 40.5019C28.1465 40.9003 28.6866 41.1244 29.25 41.125Z" fill="black"/>
<path d="M43.0625 38.4688C42.7691 38.4688 42.5312 38.2309 42.5312 37.9375C42.5312 37.6441 42.7691 37.4062 43.0625 37.4062C43.3559 37.4062 43.5938 37.6441 43.5938 37.9375C43.5938 38.2309 43.3559 38.4688 43.0625 38.4688Z" fill="black"/>
<path d="M40.9375 38.4688C40.6441 38.4688 40.4062 38.2309 40.4062 37.9375C40.4062 37.6441 40.6441 37.4062 40.9375 37.4062C41.2309 37.4062 41.4688 37.6441 41.4688 37.9375C41.4688 38.2309 41.2309 38.4688 40.9375 38.4688Z" fill="black"/>
<path d="M35.7537 57.664C39.751 58.9012 44.0628 58.8579 48.0424 57.5272" stroke="black" stroke-linecap="round" stroke-linejoin="round"/>
<defs>
<filter id="filter0_d_994_25980" x="15" y="65" width="33" height="36" filterUnits="userSpaceOnUse" color-interpolation-filters="sRGB">
<feFlood flood-opacity="0" result="BackgroundImageFix"/>
<feColorMatrix in="SourceAlpha" type="matrix" values="0 0 0 0 0 0 0 0 0 0 0 0 0 0 0 0 0 0 127 0" result="hardAlpha"/>
<feOffset dy="4"/>
<feGaussianBlur stdDeviation="2"/>
<feComposite in2="hardAlpha" operator="out"/>
<feColorMatrix type="matrix" values="0 0 0 0 0 0 0 0 0 0 0 0 0 0 0 0 0 0 0.25 0"/>
<feBlend mode="normal" in2="BackgroundImageFix" result="effect1_dropShadow_994_25980"/>
<feBlend mode="normal" in="SourceGraphic" in2="effect1_dropShadow_994_25980" result="shape"/>
</filter>
<filter id="filter1_d_994_25980" x="37" y="65" width="33" height="36" filterUnits="userSpaceOnUse" color-interpolation-filters="sRGB">
<feFlood flood-opacity="0" result="BackgroundImageFix"/>
<feColorMatrix in="SourceAlpha" type="matrix" values="0 0 0 0 0 0 0 0 0 0 0 0 0 0 0 0 0 0 127 0" result="hardAlpha"/>
<feOffset dy="4"/>
<feGaussianBlur stdDeviation="2"/>
<feComposite in2="hardAlpha" operator="out"/>
<feColorMatrix type="matrix" values="0 0 0 0 0 0 0 0 0 0 0 0 0 0 0 0 0 0 0.25 0"/>
<feBlend mode="normal" in2="BackgroundImageFix" result="effect1_dropShadow_994_25980"/>
<feBlend mode="normal" in="SourceGraphic" in2="effect1_dropShadow_994_25980" result="shape"/>
</filter>
<filter id="filter2_d_994_25980" x="0.94458" y="1.77375" width="82.1106" height="81.7705" filterUnits="userSpaceOnUse" color-interpolation-filters="sRGB">
<feFlood flood-opacity="0" result="BackgroundImageFix"/>
<feColorMatrix in="SourceAlpha" type="matrix" values="0 0 0 0 0 0 0 0 0 0 0 0 0 0 0 0 0 0 127 0" result="hardAlpha"/>
<feOffset dy="4"/>
<feGaussianBlur stdDeviation="2"/>
<feComposite in2="hardAlpha" operator="out"/>
<feColorMatrix type="matrix" values="0 0 0 0 0 0 0 0 0 0 0 0 0 0 0 0 0 0 0.25 0"/>
<feBlend mode="normal" in2="BackgroundImageFix" result="effect1_dropShadow_994_25980"/>
<feBlend mode="normal" in="SourceGraphic" in2="effect1_dropShadow_994_25980" result="shape"/>
</filter>
</defs>
</svg>
