<svg width="115" height="115" viewBox="0 0 115 115" fill="none" xmlns="http://www.w3.org/2000/svg">
<path d="M26.1802 8.00005C25.8996 8.00165 25.608 8.12027 25.107 8.34787C23.4557 9.09813 7.99854 18.1853 7.99854 39.349C7.99854 58.6196 20.9656 67.8313 24.4946 69.9857V98.7435C24.4946 103.286 28.2122 107 32.7539 107H83.8956C88.4373 107 92.142 103.285 92.142 98.7435V69.0477H95.4419C97.6423 69.0477 97.6423 65.7479 95.4419 65.7479H87.1955V62.448H95.4419C99.9836 62.448 103.701 58.7433 103.701 54.2013V42.6419H105.345C106.256 42.6451 106.998 41.9096 107.001 40.9984V34.3955C106.998 33.4843 106.256 32.7485 105.345 32.752H100.398V21.1767C100.398 18.9763 97.0983 18.9763 97.0983 21.1767V32.752H83.8956V21.1767C83.8956 20.0762 83.0706 19.5268 82.2457 19.5268C81.4207 19.5268 80.5957 20.0762 80.5957 21.1767V32.752H75.5654C74.636 32.8368 73.992 33.5472 73.9928 34.3955V40.9984C73.996 41.9096 74.738 42.6454 75.6492 42.6419H100.398V54.2013C100.398 56.9721 98.2129 59.1447 95.4422 59.1447H85.5394C82.7686 59.1447 80.596 56.9721 80.596 54.2013V47.6016C80.596 45.4011 77.2929 45.4011 77.2929 47.6016V54.2013C77.2929 58.181 80.1363 61.5184 83.8959 62.2836V67.3914C83.8927 68.3028 84.6279 69.0445 85.5394 69.0477H88.8392V98.7435C88.8392 101.514 86.6666 103.7 83.8959 103.7H32.7542C29.9834 103.7 27.7948 101.514 27.7948 98.7435C27.7964 83.0132 27.7948 67.3089 27.7948 51.585L33.9112 45.4686C35.5349 43.918 33.144 41.5141 31.5846 43.1289L27.795 46.9188V38.3885L33.9114 32.2657C35.5346 30.7151 33.1443 28.3117 31.5849 29.926L27.7953 33.7159V26.1204C27.8454 23.8712 24.4454 23.8712 24.4954 26.1204V33.703L20.7219 29.9266C20.4081 29.6042 19.9762 29.4234 19.5264 29.4269C18.0411 29.4272 17.3123 31.2359 18.3822 32.266L24.4954 38.3789V46.906L20.7219 43.1292C20.4081 42.8068 19.9762 42.6266 19.5264 42.6296C18.0411 42.6298 17.3123 44.4385 18.3822 45.4686L24.4954 51.5754V66.0898C20.1304 63.0106 11.2992 54.8672 11.2992 39.349C11.2992 21.4209 23.0841 13.3389 26.1486 11.5385C29.2133 13.3389 40.9979 21.4207 40.9979 39.349C40.9979 51.1491 35.8519 58.6343 31.4529 62.9669C29.8795 64.5116 32.2015 66.8693 33.7698 65.3192C38.6205 60.5418 44.2978 52.1181 44.2978 39.3487C44.2978 18.1851 28.8015 9.17819 27.1894 8.34787C26.7299 8.11144 26.4605 7.99737 26.1802 8.00005V8.00005ZM77.2929 36.0558H103.702V39.3557H77.2929V36.0558ZM60.742 49.2456C60.2003 49.2705 59.7039 49.5544 59.4141 50.0125L44.5549 73.1051C43.8445 74.2042 44.6349 75.6534 45.9437 75.6509H54.0193L52.5563 90.3394C52.3906 92.064 54.655 92.8459 55.5887 91.3866L70.438 68.294C71.1484 67.1948 70.3577 65.7457 69.0492 65.7481H59.1464C56.8972 65.6983 56.8972 69.0978 59.1464 69.048H66.0264L56.5167 83.846L57.49 74.1654C57.5872 73.1935 56.8233 72.3503 55.8465 72.3511H48.9632L58.4762 57.5628L58.1605 60.6564C57.866 62.9086 61.2903 63.251 61.4475 60.985L62.4337 51.0594C62.5333 50.0679 61.738 49.2148 60.7417 49.2451L60.742 49.2456Z" fill="black"/>
</svg>
