<svg width="115" height="115" viewBox="0 0 115 115" fill="none" xmlns="http://www.w3.org/2000/svg">
<path d="M40.2236 38.516H32.7185C31.4178 38.516 30.3601 39.5739 30.3601 40.8744V48.3795C30.3601 49.68 31.4178 50.7379 32.7185 50.7379H40.2236C41.5243 50.7379 42.582 49.68 42.582 48.3795V40.8744C42.582 39.5739 41.5243 38.516 40.2236 38.516ZM39.2129 47.3687H33.7292V41.8851H39.2129V47.3687Z" fill="#0F172A"/>
<path d="M51.7342 56.087L48.0663 52.4193C47.6216 51.9746 47.0293 51.7296 46.3988 51.7296C45.7679 51.7296 45.1758 51.9746 44.7308 52.4196L38.8629 58.2877C37.9447 59.207 37.9447 60.7025 38.8634 61.6222L42.5312 65.2906C42.976 65.7348 43.5683 65.9799 44.1983 65.9799C44.8288 65.9799 45.4204 65.7348 45.8658 65.2901L51.7342 59.4224C52.1789 58.9772 52.4237 58.3852 52.4237 57.7547C52.4237 57.1242 52.1789 56.5321 51.7342 56.087ZM44.1983 62.193L41.9605 59.9547L46.3988 55.5165L48.637 57.7547L44.1983 62.193Z" fill="#0F172A"/>
<path d="M51.7845 49.3379C51.47 49.0234 51.0365 48.8438 50.592 48.8438C50.1493 48.8438 49.7161 49.0234 49.4014 49.3379C49.089 49.6521 48.9075 50.0858 48.9075 50.5283C48.9075 50.9728 49.0892 51.4065 49.4014 51.7208C49.7158 52.0332 50.1493 52.2129 50.592 52.2129C51.0365 52.2127 51.47 52.033 51.7845 51.7208C52.0969 51.4065 52.2789 50.9728 52.2789 50.5283C52.2789 50.0858 52.0967 49.6523 51.7845 49.3379Z" fill="#0F172A"/>
<path d="M34.2903 57.5584C33.9759 57.244 33.5424 57.0643 33.0974 57.0643C32.6547 57.0643 32.2214 57.2437 31.9068 57.5584C31.5923 57.8706 31.4128 58.3064 31.4128 58.7488C31.4128 59.1936 31.5923 59.6271 31.9068 59.9415C32.2212 60.2537 32.6547 60.4334 33.0974 60.4334C33.5421 60.4334 33.9756 60.2537 34.2903 59.9415C34.6043 59.6271 34.7842 59.1936 34.7842 58.7488C34.7842 58.3064 34.6043 57.8731 34.2903 57.5584Z" fill="#0F172A"/>
<path d="M47.1465 41.3281C46.8345 41.0137 46.4012 40.834 45.9563 40.834C45.5116 40.834 45.0781 41.0137 44.7656 41.3281C44.4512 41.6403 44.2717 42.0761 44.2717 42.5186C44.2717 42.961 44.4512 43.3968 44.7656 43.7112C45.0781 44.0234 45.5116 44.2031 45.9563 44.2031C46.399 44.2031 46.8345 44.0234 47.1465 43.7112C47.461 43.397 47.6409 42.961 47.6409 42.5186C47.6409 42.0761 47.461 41.6426 47.1465 41.3281Z" fill="#0F172A"/>
<path d="M65.2716 106.333H62.4134V88.7214C62.4134 87.7911 61.6592 87.0368 60.7289 87.0368C59.7983 87.0368 59.0443 87.7911 59.0443 88.7214V111.631H30.6265V73.985H59.0443V79.9619C59.0443 80.8924 59.7983 81.6464 60.7289 81.6464C61.6592 81.6464 62.4134 80.8924 62.4134 79.9619V73.4235C62.4134 71.8753 61.1538 70.6159 59.6058 70.6159H30.065C30.0153 70.6159 29.967 70.6206 29.9185 70.6233C29.8927 70.5718 29.8684 70.5195 29.839 70.469L15.0687 44.8862C14.5694 44.0208 13.6364 43.4833 12.6344 43.4833C12.1429 43.4833 11.6587 43.6131 11.2337 43.8586L8.59097 45.3844C7.94252 45.7586 7.47848 46.3641 7.28419 47.0896C7.08991 47.8149 7.18896 48.5714 7.56316 49.2196L22.333 74.8024C22.8328 75.6678 23.7658 76.2053 24.7678 76.2053C25.2588 76.2053 25.743 76.0754 26.1685 75.8299L27.2574 75.2015V112.192C27.2574 113.741 28.5167 115 30.065 115H65.2716C66.8196 115 68.0792 113.741 68.0792 112.192V109.141C68.0792 107.593 66.8198 106.333 65.2716 106.333ZM24.9699 72.6315L10.7618 48.0213L12.432 47.057L26.6408 71.6673L24.9699 72.6315ZM64.7101 111.631H62.4134V109.702H64.7101V111.631Z" fill="#0F172A"/>
<path d="M85.5068 15.087C84.5763 15.087 83.8223 15.841 83.8223 16.7716V17.872C83.8223 18.8025 84.5763 19.5565 85.5068 19.5565C86.4374 19.5565 87.1914 18.8025 87.1914 17.872V16.7716C87.1914 15.841 86.4374 15.087 85.5068 15.087Z" fill="#0F172A"/>
<path d="M94.4221 15.087C93.4916 15.087 92.7375 15.841 92.7375 16.7716V17.872C92.7375 18.8025 93.4916 19.5565 94.4221 19.5565C95.3525 19.5565 96.1067 18.8025 96.1067 17.872V16.7716C96.1067 15.841 95.3527 15.087 94.4221 15.087Z" fill="#0F172A"/>
<path d="M92.97 21.9335C92.0666 21.715 91.1556 22.2714 90.9371 23.1759C90.8288 23.6251 90.4286 23.9386 89.9645 23.9386C89.5005 23.9386 89.1002 23.6251 88.9915 23.1759C88.773 22.2716 87.8629 21.7141 86.9586 21.9342C86.0541 22.1528 85.4982 23.0629 85.7167 23.9674C86.1922 25.9343 87.9385 27.308 89.9645 27.308C91.9905 27.308 93.7373 25.9341 94.2123 23.9665C94.4304 23.0622 93.8743 22.1521 92.97 21.9335Z" fill="#0F172A"/>
<path d="M100.325 36.0803C99.3944 36.0803 98.6404 36.8343 98.6404 37.7649V42.4511C98.6404 43.3817 99.3944 44.1357 100.325 44.1357C101.255 44.1357 102.01 43.3817 102.01 42.4511V37.7649C102.01 36.8343 101.255 36.0803 100.325 36.0803Z" fill="#0F172A"/>
<path d="M105.005 75.8964C106.553 75.8964 107.813 74.637 107.813 73.0888V33.4124C107.813 30.4838 105.43 28.1011 102.501 28.1011H100.985C101.796 26.7541 102.264 25.1778 102.264 23.4932V22.0495C104.595 21.2802 106.282 19.0808 106.282 16.4928C106.282 13.9049 104.595 11.7055 102.264 10.9362V8.95428C102.264 4.01691 98.2533 0 93.3238 0H86.6053C81.6758 0 77.6652 4.01691 77.6652 8.95405V10.9679C75.384 11.7648 73.7428 13.9397 73.7428 16.4928C73.7428 19.046 75.384 21.2209 77.6652 22.0178V23.4932C77.6652 25.1778 78.1337 26.7541 78.9443 28.1011H69.4233C68.493 28.1011 67.7388 28.8551 67.7388 29.7857C67.7388 30.7162 68.493 31.4702 69.4233 31.4702H82.5542C83.0394 31.7182 83.5497 31.9249 84.0809 32.0821C84.7226 34.7417 87.121 36.7239 89.9751 36.7239C92.8315 36.7239 95.231 34.7383 95.8707 32.0756C96.394 31.9195 96.8962 31.7151 97.3749 31.4705H102.501C103.572 31.4705 104.443 32.3417 104.443 33.4127V66.547H102.009V50.7617C102.009 49.8312 101.255 49.0771 100.324 49.0771C99.3939 49.0771 98.6399 49.8312 98.6399 50.7617V66.5468H79.5218V36.2261C79.5218 35.2956 78.7678 34.5416 77.8372 34.5416H58.0013V31.47H61.7864C62.717 31.47 63.471 30.716 63.471 29.7854C63.471 28.8549 62.717 28.1009 61.7864 28.1009H58.0013V25.7452C58.0013 24.4624 56.9578 23.4189 55.675 23.4189H52.2531C50.9703 23.4189 49.9268 24.4624 49.9268 25.7452V26.4136H46.4779C45.1952 26.4136 44.1521 27.4571 44.1521 28.7399V35.5844C44.1521 36.8672 45.1954 37.9107 46.4779 37.9107H76.1531V67.0225C76.1531 68.2341 76.9024 69.2727 77.9619 69.703V106.532H75.1289C73.5809 106.532 72.3213 107.792 72.3213 109.34V112.192C72.3213 113.741 73.5809 115 75.1289 115H85.7641C87.3124 115 88.5717 113.741 88.5717 112.192L88.5774 75.953H90.8437V112.192C90.8437 113.741 92.1031 115 93.6513 115H104.287C105.835 115 107.094 113.741 107.094 112.192V109.34C107.094 107.792 105.835 106.532 104.287 106.532H101.459V75.8964H105.005ZM102.264 14.8238C102.666 15.2642 102.913 15.8493 102.913 16.4928C102.913 17.1361 102.666 17.7215 102.264 18.1619V14.8238ZM77.6652 18.0516C77.3204 17.6253 77.112 17.0833 77.112 16.4928C77.112 15.9021 77.3204 15.3604 77.6652 14.9341V18.0516ZM89.9751 33.3545C89.1755 33.3545 88.4581 33.003 87.9651 32.4477H91.9851C91.4921 33.003 90.7749 33.3545 89.9751 33.3545ZM93.3236 29.0786H86.6051C83.5333 29.0786 81.0341 26.5731 81.0341 23.4932V14.2488H87.4404C89.2355 14.2488 90.9618 13.7162 92.4269 12.7279C93.8916 13.716 95.618 14.2488 97.4135 14.2488H98.895V23.4932C98.895 26.5731 96.3958 29.0786 93.3236 29.0786ZM98.8952 10.8796H97.4135C95.9843 10.8796 94.6247 10.3374 93.5855 9.35251C92.9357 8.73708 91.918 8.73708 91.2684 9.35251C90.2291 10.3374 88.8696 10.8796 87.4404 10.8796H81.0343V8.95405C81.0343 5.87443 83.5335 3.36914 86.6053 3.36914H93.3238C96.396 3.36914 98.8952 5.87443 98.8952 8.95405V10.8796ZM54.6326 34.5416H47.521V29.7825H51.6114C52.5419 29.7825 53.2959 29.0285 53.2959 28.098V26.7878H54.6326V34.5416ZM85.2022 111.631H75.6899V109.901H85.2022V111.631ZM92.528 72.5839H86.8926C85.9622 72.5839 85.208 73.3379 85.208 74.2684V106.532H81.3308V69.916H98.0029V73.0888C98.0029 73.3235 98.035 73.5504 98.0893 73.7682V106.532H94.2126V74.2684C94.2126 73.3379 93.4586 72.5839 92.528 72.5839ZM103.725 109.901V111.631H94.2124V109.901H103.725ZM101.372 72.5273V69.916H104.444V72.5273H101.372Z" fill="#0F172A"/>
</svg>
