<svg width="115" height="115" viewBox="0 0 115 115" fill="none" xmlns="http://www.w3.org/2000/svg">
<path d="M1.74333 27.7491H14.2476C15.1781 27.7491 15.9321 28.5034 15.9321 29.4337C15.9321 30.364 15.1781 31.1183 14.2476 31.1183H1.74333C0.812769 31.1183 0.0587552 30.364 0.0587552 29.4337C0.0587552 28.5034 0.812769 27.7491 1.74333 27.7491V27.7491Z" fill="#0F172A"/>
<path d="M21.5902 27.7491H32.6906L25.5561 21.2865C24.8666 20.6618 24.8138 19.5965 25.4386 18.907C26.0633 18.2174 27.1288 18.1648 27.8181 18.7895L38.1897 28.1842C38.3939 28.3693 38.5525 28.606 38.6445 28.8632C41.5267 36.869 45.2359 41.7176 49.9842 43.6861C50.3516 43.8384 50.6535 44.1158 50.8359 44.4693L63.2051 68.4194C63.4531 68.7536 63.739 68.8461 64.0629 68.6972C66.7766 67.3087 67.866 63.9665 66.4918 61.2467L60.5509 49.4913C59.2017 46.6597 59.1979 43.8269 60.5399 40.9935C62.5809 36.9303 67.2312 34.8973 71.5983 36.1601L90.9626 41.7549C91.2483 41.8375 91.5075 41.9943 91.713 42.2095L105.335 56.4668C107.31 58.1783 109.332 58.2985 111.401 56.8269C111.683 56.5441 111.707 56.2402 111.475 55.9152L95.2297 37.3481L70.8416 25.539C70.004 25.1336 69.6541 24.126 70.0595 23.2886C70.4647 22.4515 71.4719 22.1011 72.3099 22.5065L97.0064 34.465C97.2096 34.5633 97.3913 34.7019 97.54 34.872L114.011 53.6971C115.471 55.7397 115.314 57.65 113.543 59.4278C110.634 61.8267 106.302 61.7754 103.444 59.3128L102.695 71.0821C102.508 73.985 100.084 76.2589 97.1771 76.2589C94.0575 76.0105 92.2229 74.3459 91.673 71.2652L91.1993 66.4022C91.1092 65.4761 91.7867 64.6525 92.7125 64.5622C93.6426 64.4721 94.4624 65.1495 94.5527 66.0754L95.0262 70.937C95.2414 72.1414 95.9583 72.7921 97.1771 72.8896C98.3127 72.8896 99.2594 72.0003 99.3324 70.8665L100.276 56.0493L89.5907 44.8653L83.2645 43.0374L93.0925 54.3144C93.323 54.579 93.4652 54.9089 93.4993 55.2582L93.8409 58.769C93.931 59.6951 93.2534 60.5188 92.3275 60.6088C91.5048 60.6877 90.8916 60.1832 90.4875 59.0952L90.1982 56.1214L77.2913 41.3113L70.6633 39.3963C67.8552 38.5839 64.8639 39.8918 63.551 42.5051C62.6883 44.3273 62.6905 46.1491 63.5578 47.9705L69.4989 59.7268C71.707 64.0963 69.9571 69.4656 65.5961 71.6973C63.7399 72.6441 61.1722 71.8238 60.212 69.9656L48.1165 46.5458C42.9609 44.1746 38.95 39.1148 35.8881 31.1185H21.5902C20.6596 31.1185 19.9056 30.3643 19.9056 29.4339C19.9056 28.5034 20.6596 27.7491 21.5902 27.7491V27.7491Z" fill="#0F172A"/>
<path d="M64.2337 22.3383L39.0622 10.1488L1.42908 4.36305C0.509533 4.22177 -0.121167 3.36152 0.0198874 2.44197C0.161391 1.52264 1.02007 0.891489 1.94097 1.03277C1.94097 1.03277 40.1515 6.93281 40.3027 7.00603L65.702 19.3061C66.5395 19.7115 66.8895 20.7191 66.484 21.5564C66.193 22.1573 65.2132 22.8691 64.2337 22.3383V22.3383Z" fill="#0F172A"/>
<path d="M59.1052 91.363L56.0315 85.1681C55.7002 84.5282 55.8237 83.7153 56.3392 83.2009L63.285 76.2284C63.601 75.911 64.0305 75.7327 64.4786 75.7327H71.4554C71.9021 75.7327 72.3307 75.9101 72.6465 76.2259L78.7664 82.3445L84.6561 79.399C84.8899 79.2819 85.148 79.2211 85.4097 79.2211H92.3867C93.0248 79.2211 93.6082 79.5816 93.8934 80.1523L97.382 87.1294C97.6192 87.6035 97.6192 88.1619 97.382 88.636L94.647 94.1062L100.117 96.8412C100.688 97.1267 101.048 97.7098 101.048 98.3479V105.325C101.048 105.772 100.871 106.2 100.555 106.516L93.5783 113.493C93.2623 113.809 92.8337 113.987 92.387 113.987H85.4099C85.1545 113.987 84.9027 113.929 84.6734 113.817L78.2568 110.697L72.2267 113.8C71.9882 113.923 71.724 113.987 71.4558 113.987H64.479C64.0311 113.987 63.6017 113.808 63.2854 113.491L56.3351 106.514C56.0252 106.203 55.8491 105.783 55.8439 105.344L55.7664 98.3666C55.7635 98.0955 55.8262 97.8277 55.9488 97.5858L59.1052 91.363ZM59.205 104.622L65.178 110.618H71.047L75.4725 108.341L73.7183 106.481C73.0798 105.805 73.111 104.739 73.7877 104.1C74.4647 103.462 75.5307 103.493 76.169 104.17L79.2484 107.434L85.7971 110.618H91.6886L97.6788 104.628V99.3894L92.7192 96.9095L90.0892 99.5395C89.295 100.197 88.5008 100.197 87.7065 99.5395C87.0487 98.8816 87.0487 97.8149 87.7065 97.157L91.002 93.8616L93.9916 87.8829L91.3454 82.5904H85.8072L79.4317 85.7788L76.1349 89.0742C75.3407 89.7319 74.5465 89.7319 73.7522 89.0738C73.0946 88.4159 73.0948 87.3492 73.7527 86.6914L76.0509 84.3941L70.7575 79.1018H65.1782L61.5843 82.7097H64.4786C64.9253 82.7097 65.3539 82.8872 65.6699 83.2032L69.1585 86.6918C69.8164 87.3497 69.8164 88.4164 69.1585 89.0742C68.3643 89.7321 67.5701 89.7321 66.7759 89.0742L63.7809 86.0791H60.2449L65.9855 97.5952C66.4017 98.4274 66.0643 99.4393 65.2321 99.8553C64.375 100.246 63.6217 99.9945 62.9719 99.1019L60.9792 95.1167L59.1398 98.7428L59.205 104.622Z" fill="#0F172A"/>
<path d="M80.7293 90.1802C81.3874 89.5221 82.4538 89.5219 83.1119 90.1798C83.7698 90.8375 83.77 91.9041 83.1124 92.5622L80.8155 94.8598L83.1124 97.1573C83.77 97.8152 83.7698 98.8818 83.1119 99.5397C82.3177 100.197 81.5235 100.197 80.7293 99.5393L77.242 96.0506C76.5845 95.3928 76.5845 94.3265 77.242 93.6687L80.7293 90.1802Z" fill="#0F172A"/>
</svg>
