<svg width="115" height="115" viewBox="0 0 115 115" fill="none" xmlns="http://www.w3.org/2000/svg">
<g clip-path="url(#clip0_1048_29748)">
<path d="M39.7167 68.7629C38.6692 68.7629 37.8198 69.6122 37.8198 70.6598V87.9691C37.8198 89.0166 38.6692 89.866 39.7167 89.866C40.7643 89.866 41.6136 89.0166 41.6136 87.9691V70.6598C41.6136 69.6122 40.7643 68.7629 39.7167 68.7629Z" fill="#0F172A"/>
<path d="M41.6136 58.8041C41.6136 57.7566 40.7643 56.9072 39.7167 56.9072C38.6692 56.9072 37.8198 57.7566 37.8198 58.8041V59.7526C37.8198 60.8002 38.6692 61.6495 39.7167 61.6495C40.7643 61.6495 41.6136 60.8002 41.6136 59.7526V58.8041Z" fill="#0F172A"/>
<path d="M58.9228 95.7938C57.8752 95.7938 57.0259 96.6432 57.0259 97.6907C57.0259 98.7383 57.8752 99.5876 58.9228 99.5876H59.397C60.4446 99.5876 61.2939 98.7383 61.2939 97.6907C61.2939 96.6432 60.4446 95.7938 59.397 95.7938H58.9228Z" fill="#0F172A"/>
<path d="M77.6394 0H39.0053C37.9577 0 37.1084 0.84934 37.1084 1.89691C37.1084 2.94447 37.9577 3.79381 39.0053 3.79381H40.1908V9.48454H37.2969C33.7938 9.48454 30.9434 12.3346 30.9434 15.838V23.5228C30.9434 26.4697 32.9601 28.9537 35.6857 29.6688C35.6857 33.2416 34.4145 36.2326 32.0595 38.5971C29.0432 41.6255 27.3867 45.6522 27.3867 49.9268V106.419C27.3867 111.151 31.2365 115 35.9683 115H74.7636C79.4955 115 83.3452 111.15 83.3452 106.419V50.0437C83.3452 45.7465 81.5835 41.5591 78.5015 38.5447C77.8042 37.8625 77.1891 37.0976 76.6731 36.2712C76.1185 35.3828 74.9486 35.1118 74.0597 35.6668C73.171 36.2217 72.9002 37.3918 73.455 38.2805C74.1305 39.3625 74.9358 40.3638 75.8591 41.2667C78.2056 43.562 79.5514 46.7609 79.5514 50.0437V56.9072H66.5102C65.4626 56.9072 64.6133 57.7566 64.6133 58.8041C64.6133 59.8517 65.4626 60.701 66.5102 60.701H79.5514V76.3505H71.9638C70.9162 76.3505 70.0669 77.1999 70.0669 78.2474C70.0669 79.295 70.9162 80.1443 71.9638 80.1443H79.5514V95.7938H69.1184C68.0709 95.7938 67.2215 96.6432 67.2215 97.6907C67.2215 98.7383 68.0709 99.5876 69.1184 99.5876H79.5514V106.418C79.5514 109.058 77.4034 111.206 74.7636 111.206H35.9683C33.3283 111.206 31.1805 109.058 31.1805 106.418V49.9266C31.1805 46.7087 32.4002 43.6331 34.8067 41.2146C37.7716 38.2348 39.4795 34.233 39.4795 29.8763H73.1982C76.7013 29.8763 79.5517 27.0262 79.5517 23.5228V21.5055C84.1396 20.6106 87.6135 16.5628 87.6135 11.717V9.97441C87.6135 4.47457 83.1392 0 77.6394 0V0ZM43.9847 3.79381H54.4176V9.48454H43.9847V3.79381ZM83.8197 11.717C83.8197 14.4575 82.0262 16.7857 79.5517 17.5931V15.8378C79.5517 12.3346 76.7013 9.48454 73.1982 9.48454H67.3595C66.312 9.48454 65.4626 10.3339 65.4626 11.3814C65.4626 12.429 66.312 13.2784 67.3595 13.2784H73.1982C74.6095 13.2784 75.7579 14.4267 75.7579 15.838V23.5228C75.7579 24.9341 74.6095 26.0825 73.1982 26.0825H37.2969C35.8856 26.0825 34.7372 24.9341 34.7372 23.5228V15.838C34.7372 14.4267 35.8856 13.2784 37.2969 13.2784H56.3146C57.3621 13.2784 58.2115 12.429 58.2115 11.3814V3.79381H77.6394C81.0471 3.79381 83.8197 6.56638 83.8197 9.97441V11.717Z" fill="#0F172A"/>
</g>
<defs>
<clipPath id="clip0_1048_29748">
<rect width="115" height="115" fill="white"/>
</clipPath>
</defs>
</svg>
