<svg width="115" height="115" viewBox="0 0 115 115" fill="none" xmlns="http://www.w3.org/2000/svg">
<path d="M50.0059 64.8464L53.306 63.4192L54.7325 66.7177L51.4323 68.1449L50.0059 64.8464Z" fill="#0F172A"/>
<path d="M52.9111 71.4277L56.2118 69.9967L57.5056 72.9807L54.2049 74.4117L52.9111 71.4277Z" fill="#0F172A"/>
<path d="M47.1479 58.2493L50.4481 56.8221L51.8746 60.1206L48.5744 61.5478L47.1479 58.2493Z" fill="#0F172A"/>
<path d="M73.6719 30.5469V34.1406H82.2286L88.205 47.4716L91.4825 46.0018L84.5555 30.5469H73.6719Z" fill="#0F172A"/>
<path d="M14.375 26.9531C21.3091 26.9531 26.9531 21.3091 26.9531 14.375C26.9531 7.44086 21.3091 1.79688 14.375 1.79688H12.5781V4.95219L13.0291 5.4607C13.897 6.44359 14.375 7.69422 14.375 8.98438C14.375 11.9564 11.9564 14.375 8.98438 14.375C7.69422 14.375 6.44359 13.897 5.4607 13.0291L4.95219 12.5781H1.79688V14.375C1.79688 21.3091 7.44086 26.9531 14.375 26.9531ZM8.98438 17.9688C13.9384 17.9688 17.9688 13.9384 17.9688 8.98438C17.9688 7.93141 17.7819 6.89641 17.4207 5.9225C20.8797 7.17312 23.3594 10.4902 23.3594 14.375C23.3594 19.329 19.329 23.3594 14.375 23.3594C10.4902 23.3594 7.17312 20.8797 5.9225 17.4207C6.89641 17.7819 7.93141 17.9688 8.98438 17.9688Z" fill="#0F172A"/>
<path d="M107.814 37.9266L107.818 37.7344C107.818 36.3023 107.473 34.9277 106.855 33.7004C110.517 32.5666 113.203 29.1866 113.203 25.1562C113.203 22.9263 112.366 20.8042 110.871 19.1619C111.227 18.1916 111.406 17.1889 111.406 16.1719C111.406 11.2179 107.376 7.1875 102.422 7.1875C101.399 7.1875 100.402 7.37977 99.4516 7.71219C97.6691 4.20828 94.0377 1.79688 89.8438 1.79688C87.4485 1.79688 85.1287 2.61625 83.2456 4.09148C81.6141 2.63062 79.4866 1.79688 77.2656 1.79688C73.4688 1.79688 70.2147 4.16875 68.9102 7.56305C68.1339 7.34203 67.3307 7.1875 66.4844 7.1875C61.5304 7.1875 57.5 11.2179 57.5 16.1719C57.5 17.1997 57.6887 18.2167 58.0301 19.178C56.9807 20.3442 56.2098 21.7655 55.8846 23.3594H25.7905L1.79688 76.8811V80.8594H64.1538C63.4063 82.4658 62.8906 84.2555 62.8906 86.338C62.8906 89.1142 63.8016 91.6478 65.3829 93.7951L49.0421 110.136L51.5829 112.677L67.8572 96.4023C68.7574 97.1409 69.7637 97.7967 70.8598 98.3591L63.1727 110.441L66.2059 112.371L74.2666 99.7032C75.7473 100.138 77.3231 100.438 78.987 100.559L79.0625 113.214L82.6562 113.192L82.579 100.571C84.5879 100.463 86.4333 100.174 88.1044 99.714L97.3745 112.463L100.28 110.35L91.5831 98.3897C92.5355 97.9063 93.3998 97.3457 94.1742 96.715L110.136 112.677L112.677 110.136L96.6036 94.0628C98.0483 91.9353 98.8281 89.346 98.8281 86.338C98.8281 84.4729 98.4095 82.6455 97.768 80.8594H113.203V76.8811L99.6349 46.6127C104.174 46.0898 107.76 42.3919 107.814 37.9266V37.9266ZM64.6875 19.7656V16.1719C63.4441 16.1719 62.2599 16.427 61.1818 16.8852C61.1495 16.648 61.0938 16.4163 61.0938 16.1719C61.0938 13.1998 63.5123 10.7812 66.4844 10.7812C69.4564 10.7812 71.875 13.1998 71.875 16.1719H75.4688C75.4688 13.3562 74.1409 10.8711 72.1068 9.22156C72.777 6.98266 74.847 5.39062 77.2656 5.39062C79.0086 5.39062 80.6545 6.25133 81.668 7.68883L82.9779 9.545L84.4819 7.84336C85.8816 6.26211 87.7845 5.39062 89.8438 5.39062C93.8077 5.39062 97.0312 8.61422 97.0312 12.5781C97.0312 16.542 93.8077 19.7656 89.8438 19.7656V23.3594C95.7896 23.3594 100.625 18.524 100.625 12.5781C100.625 12.0894 100.582 11.6132 100.517 11.1424C101.123 10.9124 101.762 10.7812 102.422 10.7812C105.394 10.7812 107.812 13.1998 107.812 16.1719C107.812 17.038 107.582 17.8987 107.131 18.727L106.415 20.0423L107.581 20.9839C108.871 22.0261 109.609 23.5462 109.609 25.1562C109.609 28.1283 107.191 30.5469 104.219 30.5469V30.5523C103.513 30.0204 102.724 29.5837 101.863 29.2747L100.652 32.6582C102.787 33.4237 104.222 35.4649 104.221 37.8152C104.185 40.7441 101.644 43.125 98.5568 43.125H98.0716L89.2112 23.3594H59.6275C60.3714 21.2732 62.348 19.7656 64.6875 19.7656V19.7656ZM42.1385 72.9136C33.5045 62.5528 28.75 49.4213 28.75 35.9375V33.8244L47.5741 77.2656H45.7628L42.1385 72.9136ZM41.0855 77.2656H12.8207L14.5295 75.2154C20.5203 68.0261 24.7376 59.5772 26.9531 50.591C29.1687 59.5754 33.3859 68.0243 39.3767 75.2136L41.0855 77.2656ZM25.1562 33.5566V35.9375C25.1562 49.4213 20.4017 62.5528 11.7677 72.9154L8.14344 77.2656H5.56312L25.1562 33.5566ZM66.4844 86.338C66.4844 83.0749 68.2489 80.6635 70.1159 78.1102C71.3485 76.4301 72.6081 74.7087 73.2442 72.7591C74.3619 73.4149 75.4688 74.3637 75.4688 75.4688V77.2656H79.0625V75.4688C79.0625 74.1732 78.6079 73.0753 77.9377 72.1607C79.368 68.7269 82.773 66.5311 84.9329 65.4332C85.7073 67.6541 87.3299 70.0673 89.1286 72.7429C91.9892 76.9997 95.2344 81.8225 95.2344 86.338C95.2344 91.4627 92.4816 94.1778 89.1088 95.592C89.5742 94.5444 89.8438 93.3944 89.8438 92.1779C89.8438 90.2678 89.1861 88.3919 87.993 86.8987L80.8594 77.9826L73.7276 86.8987C72.5327 88.3901 71.875 90.266 71.875 92.1779C71.875 93.2183 72.0888 94.203 72.4356 95.1248C68.788 93.2255 66.4844 90.0648 66.4844 86.338V86.338ZM80.7713 97.0312C80.5377 97.0312 80.3113 97.0151 80.0813 97.0061C77.519 96.8785 75.4688 94.7708 75.4688 92.1779C75.4688 91.08 75.8461 90.0019 76.5343 89.1448L80.8594 83.7362L85.1863 89.1466C85.8727 90.0019 86.25 91.08 86.25 92.1779C86.25 94.8103 84.1387 96.9504 81.5224 97.0187C81.2673 97.0241 81.0121 97.0312 80.7713 97.0312ZM96.158 77.2656C94.9487 74.989 93.4968 72.8004 92.1096 70.7376C90.1115 67.7673 88.0469 64.6965 88.0469 62.8906V60.3786L85.6696 61.1908C85.3336 61.304 78.2521 63.7855 75.1255 69.708C73.7581 68.8886 72.5344 68.4897 72.4177 68.4538L70.0781 67.7116V70.1662C70.0781 72.0798 68.7538 73.8911 67.2175 75.988C66.9138 76.4031 66.6048 76.8308 66.2975 77.2656H51.493L29.6916 26.9531H86.8843L109.439 77.2656H96.158Z" fill="#0F172A"/>
<path d="M66.4844 30.5469H70.0781V34.1406H66.4844V30.5469Z" fill="#0F172A"/>
<path d="M59.2969 30.5469H62.8906V34.1406H59.2969V30.5469Z" fill="#0F172A"/>
</svg>
