<svg width="115" height="115" viewBox="0 0 115 115" fill="none" xmlns="http://www.w3.org/2000/svg">
<path d="M51.7284 76.9778L59.8019 68.9043H107.999V65.6461H103.112V39.5812C104.924 39.5812 106.575 38.5891 107.424 36.9942C108.038 35.8425 108.169 34.5212 107.787 33.2719C107.406 32.0223 106.562 30.9961 105.494 30.4292L85.3277 18.1315C83.2361 16.8543 80.6344 16.8543 78.5428 18.1315L64.225 26.8665C62.9739 25.0419 61.0077 23.7744 58.7335 23.4128C57.3098 17.6866 52.0935 13.5163 46.0953 13.5163C44.7823 13.5163 43.5166 13.7232 42.316 14.0898C39.6816 9.74977 34.9344 7 29.8046 7C23.5343 7 18.0233 10.9717 15.9837 16.807C10.9614 17.2094 6.9978 21.4237 6.9978 26.5486C6.9978 31.9391 11.3816 36.3231 16.7722 36.3231H24.9598C26.4488 38.2893 28.7849 39.5812 31.4337 39.5812H60.7354C60.7435 39.5812 60.75 39.5828 60.7565 39.5828V65.6461H58.453L48.9621 75.1371C46.45 73.5536 43.8811 72.1918 41.2077 71.1427V66.8225C45.0849 65.3873 47.724 61.7153 47.724 57.501C47.724 51.8906 45.0442 46.5325 40.5561 43.1652L39.5786 42.4322L38.6011 43.1652C34.113 46.5325 31.4333 51.8904 31.4333 57.501C31.4333 61.7171 34.0739 65.3905 37.9496 66.8241V70.0528C35.3578 69.3262 32.6617 68.9043 29.8042 68.9043C25.4301 68.9043 21.6018 69.6064 18.4007 70.5562V65.2634C23.1901 63.7125 26.5461 59.2115 26.5461 54.0817C26.5461 48.5884 23.6203 43.4195 18.9091 40.593L16.7718 39.3109L14.6346 40.593C9.92354 43.4191 6.9978 48.5882 6.9978 54.0815C6.9978 59.2113 10.3536 63.7125 15.1432 65.2632V71.6767C10.4923 73.5159 7.80425 75.6224 7.60875 75.777L9.64184 78.3232C9.71996 78.2613 17.5493 72.1622 29.8046 72.1622C41.0808 72.1622 49.7442 79.1752 59.7777 87.293C67.734 93.7327 75.9705 100.371 86.5772 104.39C86.6619 104.515 86.7727 104.621 86.8639 104.742H6.9978V108H93.3378H94.9668H98.225H99.854H107.999V104.742H106.328C107.362 103.378 107.999 101.697 107.999 99.8562V98.2272H103.112C100.439 98.2272 98.0817 99.5402 96.5959 101.536C95.1102 99.5402 92.753 98.2272 90.0796 98.2272H85.1924V99.8562C85.1924 100.018 85.2299 100.167 85.2395 100.325C76.4996 96.52 69.3057 90.8099 62.3643 85.1946H67.2726H68.9017H72.1598H73.7889H93.3376H94.9666H98.2248H99.8538H107.999V81.9364H106.328C107.362 80.5713 107.999 78.8902 107.999 77.0492V75.4202H103.112C100.439 75.4202 98.0815 76.7332 96.5957 78.7288C95.11 76.7332 92.7528 75.4202 90.0794 75.4202H85.1922V77.0492C85.1922 78.89 85.8292 80.5713 86.8637 81.9364H80.2643C81.2973 80.5713 81.9341 78.8902 81.9341 77.0492V75.4202H77.0468C74.3736 75.4202 72.0162 76.7332 70.5306 78.7288C69.0449 76.7332 66.6877 75.4202 64.0143 75.4202H59.1271V77.0492C59.1271 78.89 59.7641 80.5713 60.7986 81.9364H58.3159C56.1252 80.1936 53.9408 78.5205 51.7284 76.9778V76.9778ZM93.3378 65.6461H83.5633V55.8717H93.3378V65.6461ZM93.3378 52.6136H83.5633V46.0973H93.3378V52.6136ZM80.3054 52.6136H70.531V46.0973H80.3054V52.6136ZM70.531 55.8717H80.3054V65.6461H70.531V55.8717ZM80.2369 20.9122C80.7615 20.5928 81.348 20.4332 81.9345 20.4332C82.5209 20.4332 83.1074 20.5928 83.632 20.9122L103.881 33.2573C104.264 33.4609 104.546 33.8029 104.673 34.22C104.8 34.6354 104.756 35.0769 104.551 35.4614C104.266 35.9924 103.715 36.3231 103.111 36.3231C102.845 36.3231 102.581 36.2562 102.438 36.1846L83.6531 24.5043C82.5941 23.8462 81.2764 23.8462 80.2142 24.5043L61.5176 36.1341C60.7617 36.5413 59.7289 36.2286 59.32 35.4612C59.1115 35.0702 59.0691 34.6417 59.1979 34.2198C59.3249 33.8027 59.6051 33.4607 60.0728 33.2081L80.2369 20.9122ZM16.7722 33.0649C13.1785 33.0649 10.2559 30.1423 10.2559 26.5486C10.2559 22.9583 13.1736 20.0373 16.7657 20.0373H16.7756C16.8847 20.0519 16.994 20.0667 17.108 20.0714L18.4406 20.1399L18.7696 18.8464C20.0533 13.7897 24.5919 10.2579 29.8048 10.2579C33.6609 10.2579 37.2528 12.247 39.3397 15.4253C36.4189 17.209 34.2375 20.104 33.4263 23.5477C32.7714 23.3783 32.1018 23.2903 31.4341 23.2903C26.9428 23.2903 23.2887 26.9444 23.2887 31.4357C23.2887 31.9928 23.3457 32.5386 23.4532 33.0647H16.7722V33.0649ZM26.5465 31.4359C26.5465 28.7413 28.7391 26.5486 31.4337 26.5486C32.2857 26.5486 33.1164 26.7832 33.9002 27.2458L36.1907 28.5979L36.3536 25.9426C36.6681 20.8013 40.9475 16.7742 46.0953 16.7742C50.9239 16.7742 55.0779 20.3794 55.7589 25.1606L55.9624 26.5861L57.4025 26.5601L57.5882 26.5486C59.1308 26.5763 60.5514 27.3486 61.4409 28.5622L58.4597 30.3803C57.3063 30.9928 56.4625 32.019 56.083 33.2703C55.775 34.2835 55.819 35.3409 56.1694 36.3215H31.4337C28.7391 36.3231 26.5465 34.1304 26.5465 31.4359V31.4359ZM64.0149 38.4147L81.9345 27.272L99.854 38.4116V65.6461H96.5959V42.8394H67.2728V65.6461H64.0147V38.4147H64.0149ZM34.6918 57.5008C34.6918 53.3336 36.4984 49.3359 39.579 46.5731C42.6596 49.3359 44.4662 53.3336 44.4662 57.5008C44.4662 59.9069 43.1857 62.0475 41.2081 63.2367V54.9171L42.3598 53.7637L40.0546 51.4619L37.9499 53.5684V63.2369C35.9723 62.0475 34.6918 59.9069 34.6918 57.5008ZM10.2559 54.0815C10.2559 49.7253 12.5757 45.6284 16.3112 43.3868L16.7722 43.1098L17.2332 43.3868C20.9686 45.6284 23.2885 49.7255 23.2885 54.0815C23.2885 57.4177 21.3158 60.3762 18.4013 61.7559V52.9981L19.8578 50.082L16.9435 48.6255L15.1434 52.2291V61.7542C12.2287 60.376 10.2559 57.4177 10.2559 54.0815V54.0815ZM103.112 101.485H104.463C103.79 103.381 101.978 104.743 99.854 104.743H98.5035C99.1764 102.847 100.988 101.485 103.112 101.485ZM90.0798 101.485C92.204 101.485 94.0156 102.847 94.6885 104.743H93.3379C91.2137 104.743 89.4022 103.381 88.7293 101.485H90.0798ZM103.112 78.6785H104.463C103.79 80.5747 101.978 81.9366 99.854 81.9366H98.5035C99.1764 80.0405 100.988 78.6785 103.112 78.6785ZM88.7293 78.6785H90.0798C92.204 78.6785 94.0156 80.0405 94.6885 81.9366H93.3379C91.2135 81.9366 89.402 80.5747 88.7293 78.6785ZM77.0472 78.6785H78.3978C77.7249 80.5747 75.9135 81.9366 73.7891 81.9366H72.4386C73.1115 80.0405 74.923 78.6785 77.0472 78.6785ZM62.6644 78.6785H64.0149C66.1391 78.6785 67.9506 80.0405 68.6235 81.9366H67.273C65.1486 81.9366 63.3371 80.5747 62.6644 78.6785Z" fill="black"/>
<path d="M81.9346 39.5813C84.6292 39.5813 86.8219 37.3886 86.8219 34.6941C86.8219 31.9995 84.6292 29.8068 81.9346 29.8068C79.2401 29.8068 77.0474 31.9995 77.0474 34.6941C77.0474 37.3886 79.2401 39.5813 81.9346 39.5813ZM81.9346 33.065C82.8322 33.065 83.5637 33.7965 83.5637 34.6941C83.5637 35.5917 82.8322 36.3232 81.9346 36.3232C81.037 36.3232 80.3055 35.5917 80.3055 34.6941C80.3055 33.7965 81.037 33.065 81.9346 33.065Z" fill="black"/>
</svg>
