<svg width="115" height="115" viewBox="0 0 115 115" fill="none" xmlns="http://www.w3.org/2000/svg">
<path d="M56.377 104.925C52.4774 104.929 48.6055 104.269 44.9277 102.973C44.7052 102.895 44.5003 102.773 44.3247 102.615C44.1492 102.458 44.0064 102.267 43.9045 102.054C43.8027 101.841 43.7438 101.61 43.7312 101.375C43.7185 101.139 43.7524 100.903 43.831 100.68C43.9095 100.458 44.0311 100.253 44.1888 100.077C44.3465 99.9019 44.5372 99.7591 44.7501 99.6573C44.963 99.5555 45.1939 99.4965 45.4295 99.4839C45.6652 99.4713 45.901 99.5052 46.1236 99.5837C50.7695 101.219 55.7395 101.716 60.6174 101.035C65.4952 100.354 70.1388 98.5137 74.1591 95.6687C78.1794 92.8236 81.4594 89.0566 83.7243 84.6831C85.9892 80.3096 87.1731 75.457 87.1768 70.5318C87.1768 55.4493 62.6386 20.6263 56.377 11.9861C50.1153 20.6263 25.5776 55.4493 25.5776 70.5318C25.5776 71.0084 25.3883 71.4654 25.0513 71.8024C24.7144 72.1394 24.2573 72.3287 23.7808 72.3287C23.3042 72.3287 22.8472 72.1394 22.5102 71.8024C22.1732 71.4654 21.9839 71.0084 21.9839 70.5318C21.9839 52.1431 53.5927 9.66809 54.9381 7.86897C55.1054 7.64529 55.3226 7.46371 55.5724 7.33863C55.8221 7.21355 56.0976 7.14842 56.377 7.14842C56.6563 7.14842 56.9318 7.21355 57.1816 7.33863C57.4313 7.46371 57.6485 7.64529 57.8158 7.86897C59.1635 9.66585 90.7705 52.1431 90.7705 70.5318C90.7602 79.6504 87.1332 88.3924 80.6854 94.8402C74.2376 101.288 65.4955 104.915 56.377 104.925V104.925Z" fill="black"/>
<path d="M31.6052 107.852C31.1849 107.852 30.7779 107.704 30.4551 107.435C30.1322 107.166 29.9138 106.792 29.838 106.379C29.8173 106.269 27.5762 94.999 16.3686 89.5037C16.0668 89.3557 15.8126 89.1261 15.6348 88.8409C15.457 88.5557 15.3628 88.2264 15.3628 87.8903C15.3628 87.5543 15.457 87.2249 15.6348 86.9397C15.8126 86.6545 16.0668 86.4249 16.3686 86.277C27.6377 80.7516 29.8173 69.5139 29.838 69.4012C29.9138 68.9878 30.1322 68.6141 30.4551 68.345C30.7779 68.076 31.1849 67.9286 31.6052 67.9286C32.0255 67.9285 32.4326 68.0758 32.7556 68.3449C33.0786 68.6139 33.297 68.9877 33.3729 69.4012C33.3935 69.5103 35.6342 80.7812 46.8422 86.277C47.144 86.4249 47.3982 86.6545 47.576 86.9397C47.7538 87.2249 47.848 87.5543 47.848 87.8903C47.848 88.2264 47.7538 88.5557 47.576 88.8409C47.3982 89.1261 47.144 89.3557 46.8422 89.5037C35.5727 95.0291 33.3935 106.266 33.3729 106.379C33.297 106.792 33.0786 107.166 32.7556 107.435C32.4326 107.704 32.0255 107.852 31.6052 107.852ZM20.8239 87.8901C25.5644 90.9411 29.3113 95.3092 31.6052 100.459C33.8993 95.3094 37.6462 90.9413 42.3864 87.8901C37.6459 84.8393 33.8989 80.4711 31.6052 75.3214C29.3116 80.4713 25.5644 84.8396 20.8235 87.8901H20.8239Z" fill="black"/>
<path d="M97.8398 57.7695C97.4194 57.7696 97.0122 57.6222 96.6893 57.3531C96.3663 57.0839 96.1479 56.7101 96.0721 56.2965C95.5475 54.1262 94.5526 52.0976 93.1576 50.3541C91.7626 48.6107 90.0016 47.195 87.9992 46.2071C87.6975 46.0591 87.4432 45.8295 87.2655 45.5443C87.0877 45.2591 86.9934 44.9298 86.9934 44.5937C86.9934 44.2576 87.0877 43.9283 87.2655 43.6431C87.4432 43.3579 87.6975 43.1283 87.9992 42.9804C89.997 41.9861 91.7542 40.5684 93.1483 38.8259C94.5425 37.0835 95.5403 35.0582 96.0721 32.8909C96.1479 32.4774 96.3662 32.1035 96.6892 31.8344C97.0121 31.5653 97.4192 31.4179 97.8396 31.4179C98.26 31.4179 98.667 31.5653 98.99 31.8344C99.3129 32.1035 99.5313 32.4774 99.607 32.8909C100.132 35.0612 101.127 37.0898 102.522 38.8332C103.917 40.5766 105.678 41.9924 107.68 42.9804C107.982 43.1283 108.236 43.3579 108.414 43.6431C108.592 43.9283 108.686 44.2576 108.686 44.5937C108.686 44.9298 108.592 45.2591 108.414 45.5443C108.236 45.8295 107.982 46.0591 107.68 46.2071C105.683 47.2014 103.925 48.6191 102.531 50.3616C101.137 52.104 100.139 54.1293 99.607 56.2965C99.5313 56.71 99.3129 57.0838 98.99 57.3529C98.6672 57.6221 98.2601 57.7695 97.8398 57.7695ZM92.2816 44.5939C94.5952 46.2653 96.4963 48.4431 97.8398 50.9612C99.1832 48.4424 101.084 46.2639 103.398 44.5921C101.084 42.9203 99.1831 40.7417 97.8398 38.2227C96.4968 40.7415 94.596 42.9201 92.2825 44.5921L92.2816 44.5939Z" fill="black"/>
<path d="M17.1603 35.0063H17.1531C16.7342 35.0054 16.3288 34.858 16.0072 34.5897C15.6856 34.3213 15.468 33.9488 15.3921 33.5369C14.8671 31.3669 13.8719 29.3387 12.4768 27.5956C11.0818 25.8525 9.32098 24.437 7.31879 23.4492C7.01704 23.3013 6.76283 23.0716 6.58503 22.7865C6.40724 22.5013 6.31299 22.1719 6.31299 21.8358C6.31299 21.4998 6.40724 21.1704 6.58503 20.8852C6.76283 20.6001 7.01704 20.3704 7.31879 20.2225C9.3224 19.2337 11.0842 17.8166 12.4796 16.0716C13.8749 14.3265 14.8697 12.2961 15.3935 10.124C15.4721 9.71295 15.6915 9.3421 16.014 9.07525C16.3364 8.8084 16.7417 8.66221 17.1603 8.66183H17.1679C17.5867 8.6632 17.9918 8.81077 18.3133 9.07905C18.6348 9.34734 18.8525 9.71949 18.9288 10.1312C19.4531 12.3012 20.4475 14.3296 21.8418 16.0731C23.2362 17.8165 24.9964 19.2324 26.9982 20.2207C27.2999 20.3686 27.5541 20.5983 27.7319 20.8834C27.9097 21.1686 28.004 21.498 28.004 21.8341C28.004 22.1701 27.9097 22.4995 27.7319 22.7847C27.5541 23.0698 27.2999 23.2995 26.9982 23.4474C24.995 24.4361 23.2337 25.853 21.8387 27.5977C20.4438 29.3425 19.4493 31.3725 18.9257 33.5441C18.847 33.9549 18.6278 34.3255 18.3057 34.5923C17.9835 34.8591 17.5786 35.0055 17.1603 35.0063V35.0063ZM11.6007 21.832C13.9153 23.5043 15.8169 25.6836 17.1603 28.2033C18.5031 25.6839 20.4039 23.5046 22.7176 21.832C20.4043 20.1607 18.5035 17.9828 17.1603 15.4648C15.8166 17.9832 13.9149 20.161 11.6007 21.832V21.832Z" fill="black"/>
</svg>
