<svg width="115" height="115" viewBox="0 0 115 115" fill="none" xmlns="http://www.w3.org/2000/svg">
<path d="M76.9989 88C76.1487 88 75.3808 87.5815 75.1052 86.9806C74.8448 86.4131 75.0794 85.7655 75.6794 85.37C76.3338 84.9386 77.3151 84.8777 78.0552 85.2229C78.7432 85.5439 79.1147 86.1686 78.9684 86.7671C78.7961 87.4709 77.9541 88 76.9989 88V88Z" fill="black"/>
<path d="M91.8564 43.9141C88.3402 39.1644 83.585 35.8111 78.4665 34.4719C75.0622 33.5818 70.9472 33.6566 66.2333 34.695L66.2331 34.6939C66.2121 34.699 66.1677 34.7092 66.0964 34.7253C65.9732 34.7503 65.8517 34.779 65.7328 34.807C65.4369 34.8769 64.981 34.9872 64.4925 35.1156C63.8518 35.2833 63.2005 35.4293 62.5511 35.5513C62.5412 35.0609 62.523 34.5567 62.4945 34.0412C63.0495 27.7952 65.5592 22.4267 69.9755 18.0528C73.7978 14.2674 77.6981 12.6726 77.7331 12.6584C78.697 12.2757 79.1714 11.1759 78.7926 10.2021C78.4138 9.22814 77.3253 8.7492 76.3616 9.13171C76.1784 9.20464 71.825 10.962 67.4689 15.2302C65.1612 17.4913 62.6001 20.7305 60.8306 25.0781C59.8857 22.3725 58.4631 19.7829 56.3544 17.6548C47.8546 9.07695 31.9249 11.7478 30.9864 11.9144C30.9856 11.9146 30.9849 11.9146 30.9841 11.9148C30.297 12.0258 29.7198 12.5108 29.5164 13.1829C29.4864 13.282 29.4624 13.3745 29.4487 13.4516C29.3409 14.0635 27.1573 26.9737 32.6585 35.91C25.0457 39.5982 17 48.7234 17 63.889C17 69.2685 18.6224 75.8436 21.5688 82.403C24.4553 88.8296 28.3539 94.7022 32.546 98.9384C37.1135 103.558 41.8066 106 46.1176 106C48.6422 106 51.2431 105.614 53.6404 104.883C56.0017 104.162 58.5096 104.116 60.8942 104.751C60.9024 104.753 60.9108 104.755 60.9191 104.757C61.0665 104.797 61.2133 104.839 61.3609 104.884C63.7571 105.614 66.358 106 68.8826 106C73.0074 106 77.5032 103.753 81.8832 99.5029C90.9206 90.745 98 75.1015 98 63.889C97.9993 56.2495 95.8752 49.3423 91.8564 43.9141V43.9141ZM53.7032 20.3357C57.2883 23.9539 58.4579 29.4741 58.7268 34.1147C58.6604 34.9667 58.6255 38.6887 58.6255 38.6887L44.4019 24.3341C43.6691 23.5947 42.4817 23.595 41.75 24.3356C41.0181 25.0758 41.0186 26.2754 41.7513 27.015L56.0737 41.4693C51.1756 41.7343 42.7007 41.3584 37.7837 36.3961C31.8779 30.436 32.5271 19.3144 32.9591 15.466C36.7716 15.0299 47.7957 14.3737 53.7032 20.3357V20.3357ZM79.2852 96.7693C75.6166 100.329 72.0189 102.211 68.8817 102.211C66.7499 102.211 64.4635 101.872 62.444 101.257C62.2569 101.199 62.069 101.146 61.8805 101.095C61.8775 101.095 61.8747 101.094 61.8719 101.093C58.8095 100.274 55.5875 100.33 52.5554 101.256C50.535 101.872 48.2484 102.211 46.1166 102.211C42.8228 102.211 39.0474 100.153 35.1979 96.2599C27.096 88.0725 20.7497 73.8534 20.7497 63.889C20.7497 49.9649 28.2613 41.887 35.0374 38.9795C35.0691 39.0121 35.1012 39.0447 35.1332 39.0771C40.2734 44.2644 48.1691 45.3307 53.7936 45.3305C57.3612 45.3305 60.0197 44.9224 60.4711 44.8227C61.9687 44.4916 61.9321 43.7863 62.0253 43.3509C62.0264 43.3454 62.0277 43.3399 62.0289 43.3344C62.0302 43.3284 62.0313 43.3221 62.0326 43.316C62.0341 43.3083 62.0356 43.3005 62.0371 43.2925C62.0377 43.2891 62.0384 43.2859 62.039 43.2825C62.074 43.0847 62.327 41.6017 62.4673 39.383C62.5772 39.3838 62.6886 39.3749 62.8005 39.3555C63.6791 39.2032 64.5645 39.0109 65.4343 38.7834C65.7688 38.6953 66.0925 38.6152 66.3614 38.5506C74.0972 41.276 81.7476 50.0662 81.7476 63.8892C81.7476 67.9383 80.7138 72.7669 78.7577 77.8533C78.3827 78.8284 78.8613 79.9263 79.8266 80.3052C80.0498 80.3927 80.2795 80.4344 80.5053 80.4344C81.2563 80.4344 81.9653 79.9752 82.2537 79.2253C84.3761 73.706 85.4981 68.4029 85.4981 63.8892C85.4981 51.2978 79.7664 42.3371 72.8478 37.6478C74.5694 37.6116 76.133 37.7757 77.5267 38.14C85.5808 40.2473 94.2492 49.2038 94.2492 63.889C94.2488 74.0235 87.5366 88.7733 79.2852 96.7693V96.7693Z" fill="black"/>
</svg>
