<svg width="115" height="115" viewBox="0 0 115 115" fill="none" xmlns="http://www.w3.org/2000/svg">
<path d="M102.14 62.2149C102.139 62.2141 102.139 62.2133 102.139 62.2127H102.141L100.427 55.8338C98.2949 47.9151 90.1547 43.2172 82.2315 45.3327L45.8204 55.0926V35.2329C45.8204 34.4922 46.3138 33.8422 47.0272 33.6431L72.8514 26.427C78.9824 24.7058 82.5707 18.3546 80.8811 12.2149L80.0474 9.2087C79.8136 8.368 78.9659 7.85459 78.1126 8.0366L25.2476 19.3218C19.9283 20.4803 16.1274 25.178 16.1052 30.6218V97.3986C14.1334 98.0957 12.8121 99.9562 12.8035 102.047V105.349C12.8035 106.261 13.5426 107 14.4543 107H47.4713C48.3829 107 49.1221 106.261 49.1221 105.349V102.047C49.1134 99.9562 47.7921 98.0957 45.8204 97.3986V79.0131L77.0511 70.6466L77.4804 72.2463C78.1805 74.8837 80.8863 76.4543 83.5237 75.7541C83.5315 75.7521 83.5394 75.75 83.5472 75.7477L96.3033 72.3321C98.9451 71.6233 100.512 68.907 99.8031 66.2653L99.3739 64.664L100.972 64.2364C101.853 64.0007 102.376 63.0957 102.14 62.2149ZM19.4069 50.8711H42.5187V97.0948H19.4069V50.8711V50.8711ZM45.8204 103.698H16.1052V102.047C16.1052 101.136 16.8443 100.397 17.756 100.397H44.1696C45.0812 100.397 45.8204 101.136 45.8204 102.047V103.698ZM42.5187 35.2327V47.5694H19.4069V30.6218C19.4236 26.7333 22.1382 23.3777 25.9376 22.5492L77.2789 11.5892L77.6966 13.0964C78.9015 17.4819 76.3394 22.0174 71.9616 23.2492L46.139 30.465C44.002 31.0659 42.5237 33.0129 42.5187 35.2327ZM95.4482 69.1411V69.146L82.6921 72.5649C81.8118 72.802 80.9059 72.2805 80.6688 71.4C80.6686 71.3992 80.6683 71.3984 80.6681 71.3978L80.2422 69.803L96.1894 65.5306L96.617 67.1254C96.8489 68.0044 96.3264 68.9058 95.4482 69.1411ZM45.8204 75.5975V58.5112L83.085 48.5203C89.2472 46.8792 95.5759 50.5319 97.2377 56.6887L98.5237 61.4762L45.8204 75.5975Z" fill="black"/>
<path d="M93.4029 79.6487L92.0442 77.6809L90.6856 79.6487C89.8106 80.9165 82.1392 92.1638 82.1392 97.0948C82.1392 102.565 86.5737 107 92.0442 107C97.5147 107 101.949 102.565 101.949 97.0948C101.949 92.1638 94.2778 80.9165 93.4029 79.6487ZM92.0442 103.698C88.3973 103.698 85.4409 100.742 85.4409 97.0948C85.4409 94.5575 89.0727 88.134 92.0442 83.5579C95.0158 88.1357 98.6476 94.5591 98.6476 97.0948C98.6476 100.742 95.6912 103.698 92.0442 103.698Z" fill="black"/>
</svg>
