<svg width="115" height="115" viewBox="0 0 115 115" fill="none" xmlns="http://www.w3.org/2000/svg">
<path d="M105.567 54.0667H99.2596L101.79 45.1881C103.038 44.6433 103.847 43.412 103.85 42.05V38.6167C103.848 37.445 103.247 36.3556 102.257 35.7292C102.463 35.4477 102.688 35.185 102.877 34.8881C105.47 30.5996 106.243 25.4526 105.022 20.5917C104.615 18.8167 102.853 17.7019 101.074 18.0939C96.7812 18.9485 92.9126 21.2529 90.1167 24.6207C87.3204 21.2573 83.4551 18.9548 79.166 18.0974C77.3813 17.7087 75.6161 18.8286 75.2074 20.6088C73.9898 25.4667 74.7629 30.6097 77.355 34.8949C77.5455 35.1919 77.7704 35.4546 77.9764 35.7378C76.9888 36.3626 76.3881 37.448 76.3833 38.6167V42.05C76.3868 43.412 77.195 44.6433 78.4433 45.1881L80.9737 54.0667H71.2333V30.0333C71.2333 28.1372 69.6962 26.6 67.8 26.6H57.5V11.15C57.5 8.30573 55.1943 6 52.35 6H14.5833C11.7391 6 9.43333 8.30573 9.43333 11.15V38.6167C9.43333 41.4609 11.7391 43.7667 14.5833 43.7667H24.8833L22.3083 47.2H21.45C18.6057 47.2 16.3 49.5057 16.3 52.35C16.3057 52.9361 16.4125 53.5169 16.6159 54.0667H9.43333C7.53716 54.0667 6 55.6038 6 57.5V64.3667C6 66.2628 7.53716 67.8 9.43333 67.8V107.283C9.43333 108.231 10.2019 109 11.15 109C12.0981 109 12.8667 108.231 12.8667 107.283V67.8H55.7833V103.85C55.7833 106.694 58.0891 109 60.9333 109H98.7C101.544 109 103.85 106.694 103.85 103.85V67.8H105.567C107.463 67.8 109 66.2628 109 64.3667V57.5C109 55.6038 107.463 54.0667 105.567 54.0667V54.0667ZM79.8167 42.05V38.6167H100.417V42.05H79.8167ZM101.678 21.3728C102.688 25.3348 102.077 29.5359 99.9806 33.0461C99.4762 33.8218 98.8866 34.5387 98.2228 35.1833H93.4281C93.7461 32.6146 93.2818 30.0097 92.096 27.709C94.3925 24.4802 97.8083 22.2216 101.678 21.3728V21.3728ZM78.4519 21.45C82.464 22.2058 86.0071 24.5349 88.2919 27.9184C89.7829 30.0255 90.3706 32.6409 89.9244 35.1833H82.0106C81.3461 34.5369 80.7559 33.8184 80.251 33.0409C78.1904 29.5498 77.5466 25.4015 78.4519 21.45ZM82.093 45.4833H98.1404L95.6872 54.0667H84.5461L82.093 45.4833ZM67.8 54.0667H64.3667V30.0333H67.8V54.0667ZM60.9333 30.0333V54.0667H57.5V30.0333H60.9333ZM50.3175 54.0667C50.5208 53.5169 50.6276 52.9361 50.6333 52.35C50.6333 49.5057 48.3276 47.2 45.4833 47.2H44.625L42.05 43.7667H52.35C52.9361 43.761 53.5169 43.6541 54.0667 43.4508V54.0667H50.3175ZM14.5833 9.43333H52.35C53.2981 9.43333 54.0667 10.2019 54.0667 11.15V31.75H12.8667V11.15C12.8667 10.2019 13.6352 9.43333 14.5833 9.43333ZM12.8667 38.6167V35.1833H54.0667V38.6167C54.0667 39.5648 53.2981 40.3333 52.35 40.3333H14.5833C13.6352 40.3333 12.8667 39.5648 12.8667 38.6167ZM29.175 43.7667H37.7583L40.3333 47.2H26.6L29.175 43.7667ZM19.7333 52.35C19.7333 51.4019 20.5019 50.6333 21.45 50.6333H45.4833C46.4314 50.6333 47.2 51.4019 47.2 52.35C47.2 53.2981 46.4314 54.0667 45.4833 54.0667H21.45C20.5019 54.0667 19.7333 53.2981 19.7333 52.35ZM100.417 91.8333H59.2167V81.5333H100.417V91.8333ZM98.7 105.567H60.9333C59.9852 105.567 59.2167 104.798 59.2167 103.85V95.2667H100.417V103.85C100.417 104.798 99.6481 105.567 98.7 105.567ZM100.417 78.1H59.2167V67.8H100.417V78.1ZM9.43333 64.3667V57.5H105.567V64.3667H9.43333Z" fill="#0F172A"/>
<path d="M76.3834 88.4H84.9667C85.9148 88.4 86.6834 87.6314 86.6834 86.6833C86.6834 85.7352 85.9148 84.9667 84.9667 84.9667H76.3834C75.4353 84.9667 74.6667 85.7352 74.6667 86.6833C74.6667 87.6314 75.4353 88.4 76.3834 88.4Z" fill="#0F172A"/>
<path d="M76.3834 74.6667H84.9667C85.9148 74.6667 86.6834 73.8981 86.6834 72.95C86.6834 72.0019 85.9148 71.2333 84.9667 71.2333H76.3834C75.4353 71.2333 74.6667 72.0019 74.6667 72.95C74.6667 73.8981 75.4353 74.6667 76.3834 74.6667Z" fill="#0F172A"/>
<path d="M84.9667 98.7H76.3834C75.4353 98.7 74.6667 99.4686 74.6667 100.417C74.6667 101.365 75.4353 102.133 76.3834 102.133H84.9667C85.9148 102.133 86.6834 101.365 86.6834 100.417C86.6834 99.4686 85.9148 98.7 84.9667 98.7Z" fill="#0F172A"/>
<path d="M18.0166 18.0167C18.4719 18.0166 18.9085 17.8356 19.2303 17.5137L20.947 15.797C21.5976 15.1234 21.5883 14.0527 20.9261 13.3906C20.2639 12.7284 19.1932 12.7191 18.5196 13.3696L16.803 15.0863C16.3122 15.5773 16.1654 16.3155 16.431 16.9569C16.6966 17.5983 17.3224 18.0165 18.0166 18.0167V18.0167Z" fill="#0F172A"/>
<path d="M18.0166 26.6C18.4719 26.5999 18.9085 26.419 19.2303 26.097L29.5303 15.797C29.9766 15.366 30.1556 14.7277 29.9985 14.1275C29.8414 13.5273 29.3726 13.0586 28.7724 12.9015C28.1722 12.7444 27.534 12.9234 27.103 13.3696L16.803 23.6696C16.3122 24.1606 16.1654 24.8988 16.431 25.5402C16.6966 26.1816 17.3224 26.5999 18.0166 26.6V26.6Z" fill="#0F172A"/>
</svg>
