<svg width="115" height="115" viewBox="0 0 115 115" fill="none" xmlns="http://www.w3.org/2000/svg">
<path d="M27.5245 106.761L24.4371 102.413C23.7816 101.489 22.5013 101.272 21.5777 101.927C20.6542 102.583 20.4368 103.863 21.0927 104.787L24.1801 109.136C24.58 109.699 25.212 110 25.8541 110C26.2647 110 26.6792 109.877 27.0395 109.621C27.963 108.965 28.1803 107.685 27.5245 106.761Z" fill="#0F172A"/>
<path d="M51.1847 107.528L47.8247 91.5135C46.1908 83.7263 41.6545 76.9928 35.0519 72.5531L27.8781 67.7293C25.0014 65.7954 21.1349 66.2113 18.7306 68.663V43.952C18.7306 40.7085 16.5192 37.9526 13.3528 37.2498C11.3092 36.7958 9.20146 37.2876 7.56884 38.5974C5.93642 39.9072 5.00024 41.859 5.00024 43.952V75.7496C5.00024 79.9154 6.275 83.9129 8.68651 87.31L12.3437 92.4618C12.7436 93.0251 13.3756 93.3256 14.0177 93.3256C14.4283 93.3256 14.8427 93.2025 15.203 92.9468C16.1265 92.2912 16.3439 91.0111 15.6881 90.0874L12.0309 84.9356C10.1147 82.2362 9.10179 79.0598 9.10179 75.7494V43.952C9.10179 43.1095 9.47872 42.3239 10.1358 41.7964C10.7927 41.2692 11.6411 41.0713 12.4642 41.254C13.7388 41.5368 14.629 42.6463 14.629 43.952V69.1798C14.629 72.751 15.9411 76.1534 18.3247 78.8006C18.4269 78.923 18.5319 79.0442 18.6428 79.1617C20.0047 80.6048 21.606 82.3053 23.1141 83.9082L25.2254 86.1552C25.2321 86.1624 25.2395 86.1686 25.2465 86.1756C27.0526 88.0965 28.3846 89.515 28.4125 89.5446C29.1875 90.37 30.4856 90.411 31.3113 89.6356C32.1369 88.8602 32.1777 87.5625 31.4021 86.7368C31.3648 86.6971 28.9641 84.1408 26.2227 81.2268L21.5205 76.2223C21.5086 76.2096 21.4977 76.1963 21.4858 76.1836C20.3833 74.8649 20.397 72.953 21.5527 71.6483C22.575 70.4945 24.3107 70.273 25.5898 71.1329L32.7632 75.9568C38.4742 79.7968 42.3975 85.6206 43.8105 92.3558L47.1707 108.37C47.3735 109.337 48.226 110 49.1757 110C49.3152 110 49.4569 109.986 49.5988 109.956C50.7073 109.723 51.4172 108.636 51.1847 107.528Z" fill="#0F172A"/>
<path d="M20.1939 96.4354L20.1807 96.4169C19.5224 95.4949 18.2419 95.2808 17.3201 95.9387C16.3983 96.5966 16.1842 97.8773 16.8419 98.7991L16.855 98.8176C17.2553 99.3784 17.8859 99.6774 18.5262 99.6774C18.9384 99.6774 19.3545 99.5536 19.7156 99.2958C20.6372 98.6379 20.8516 97.3572 20.1939 96.4354Z" fill="#0F172A"/>
<path d="M107.431 38.5976C105.799 37.2878 103.69 36.7968 101.647 37.25C98.4808 37.9526 96.2692 40.7087 96.2692 43.9522V68.6632C93.8651 66.2115 89.9981 65.7956 87.1217 67.7295L79.9479 72.5531C73.3451 76.9926 68.8089 83.7263 67.1751 91.5135L63.8151 107.528C63.5826 108.636 64.2925 109.723 65.401 109.956C65.5429 109.986 65.6848 110 65.824 110C66.774 110 67.6263 109.336 67.8291 108.37L71.1891 92.3556C72.6023 85.6206 76.5254 79.7966 82.2364 75.9568L89.4102 71.1331C90.6888 70.273 92.4246 70.4945 93.4473 71.6483C94.6015 72.9513 94.6169 74.8602 93.5185 76.1789C93.5054 76.1932 93.4929 76.208 93.4797 76.2223C93.4797 76.2223 83.635 86.6975 83.5979 86.7368C82.8225 87.5625 82.8633 88.8602 83.6887 89.6356C84.5144 90.411 85.8121 90.3702 86.5875 89.5446C86.6154 89.515 94.9953 80.605 96.3572 79.1619C96.4681 79.0444 96.5731 78.9232 96.6753 78.8008C99.0587 76.1536 100.371 72.7512 100.371 69.18V43.952C100.371 42.6462 101.261 41.5368 102.536 41.254C103.359 41.0715 104.207 41.2694 104.864 41.7964C105.521 42.3237 105.898 43.1093 105.898 43.952V75.7496C105.898 79.06 104.886 82.2364 102.969 84.9359L87.4755 106.762C86.8199 107.685 87.037 108.965 87.9605 109.621C88.321 109.877 88.7353 110 89.1458 110C89.7877 110 90.42 109.699 90.8199 109.136L106.314 87.3102C108.725 83.9131 110 79.9156 110 75.7498V43.952C109.999 41.859 109.063 39.9074 107.431 38.5976Z" fill="#0F172A"/>
<path d="M83.4744 44.3051L79.8259 43.4335V42.7793C82.1972 41.1182 83.7521 38.3675 83.7521 35.259V30.5157C83.7521 25.4546 79.6348 21.3373 74.5736 21.3373C72.3024 21.3373 70.2229 22.1683 68.6186 23.5398C66.8324 19.1655 62.5344 16.0742 57.5256 16.0742C52.5106 16.0742 48.2081 19.1735 46.426 23.5562C44.8192 22.1748 42.7321 21.3369 40.4516 21.3369C35.3905 21.3369 31.2732 25.4542 31.2732 30.5153V30.8305V35.2585C31.2732 38.3671 32.8281 41.1178 35.1994 42.7789V43.4331L31.5509 44.3047C27.1946 45.3455 24.1521 49.2003 24.1521 53.6792V57.5092C24.1521 58.6419 25.0704 59.56 26.2029 59.56H35.6266C35.612 59.8088 35.602 60.0587 35.602 60.3108V67.685C35.602 68.8176 36.5203 69.7357 37.6528 69.7357H49.9799C51.1124 69.7357 52.0307 68.8176 52.0307 67.685C52.0307 66.5523 51.1124 65.6342 49.9799 65.6342H47.8611V61.3963C47.8611 60.2636 46.9428 59.3455 45.8103 59.3455C44.6779 59.3455 43.7595 60.2636 43.7595 61.3963V65.6346H39.7037V60.3112C39.7037 56.3559 42.3902 52.9497 46.2363 52.0281L51.864 50.6795L55.6302 59.2481C55.9575 59.9927 56.6942 60.4736 57.5073 60.4736H57.5075C58.3209 60.4736 59.0575 59.9929 59.3848 59.2483L63.1471 50.6925L68.757 52.0326C72.6067 52.9524 75.2955 56.3589 75.2955 60.3171V65.6346H71.2397V61.3963C71.2397 60.2636 70.3214 59.3455 69.1889 59.3455C68.0565 59.3455 67.1382 60.2636 67.1382 61.3963V65.6346H64.814C63.6816 65.6346 62.7632 66.5527 62.7632 67.6854C62.7632 68.818 63.6816 69.7361 64.814 69.7361H77.3465C78.4789 69.7361 79.3973 68.818 79.3973 67.6854V60.3171C79.3973 60.0631 79.387 59.8112 79.3723 59.5604H88.8226C89.9551 59.5604 90.8734 58.6423 90.8734 57.5096V53.6796C90.8734 49.2007 87.8309 45.3457 83.4744 44.3051ZM74.5736 25.4384C77.2606 25.4384 79.4664 27.5366 79.6395 30.1804H76.7883C74.3913 30.1804 72.0325 29.6033 69.9122 28.5045C70.6921 26.7023 72.4882 25.4384 74.5736 25.4384ZM69.4967 34.9591C69.4992 34.8593 69.5043 34.7598 69.5043 34.6593V32.8329C71.8055 33.7853 74.2802 34.282 76.7883 34.282H79.6505V35.2587C79.6505 38.0581 77.3732 40.3356 74.5736 40.3356C71.7741 40.3356 69.4967 38.0581 69.4967 35.2585V34.9591ZM49.6485 28.0527C49.6485 23.7094 53.182 20.1757 57.5256 20.1757C61.4432 20.1757 64.7016 23.0505 65.3033 26.8009L61.8509 24.7725C60.9873 24.2652 59.8835 24.4557 59.2402 25.2237C57.553 27.2371 55.0788 28.3919 52.4517 28.3919H49.6485V28.0527V28.0527ZM40.4519 25.4384C42.5373 25.4384 44.3331 26.7025 45.1133 28.5043C42.9928 29.6031 40.6342 30.1802 38.2372 30.1802H35.386C35.5591 27.5366 37.7651 25.4384 40.4519 25.4384ZM35.375 34.2818H38.2372C40.748 34.2818 43.2253 33.784 45.5287 32.8296V35.2583C45.5287 38.0576 43.2514 40.3352 40.4519 40.3352C37.6523 40.3352 35.375 38.0581 35.375 35.2585V34.2818ZM45.2806 48.0394C41.2459 49.0061 38.075 51.8191 36.5658 55.4587H28.2536V53.6794C28.2536 51.1065 30.0013 48.8919 32.5039 48.2941L37.7268 47.0464C38.6498 46.8259 39.3012 46.0009 39.3012 45.0518V44.3623C39.6785 44.4097 40.062 44.437 40.4519 44.437C40.8388 44.437 41.2197 44.4101 41.5941 44.3634V44.9484C41.5927 44.979 41.5921 45.0096 41.5919 45.0401C41.5915 45.713 41.9223 46.3721 42.5297 46.765C42.7586 46.9133 43.0059 47.0097 43.2583 47.0579L46.3175 47.7908L45.2806 48.0394ZM51.001 44.8557C50.4742 44.6234 49.925 44.4376 49.359 44.302L45.6955 43.4241V42.7851C46.3566 42.323 46.9544 41.7769 47.4729 41.1613C48.3888 42.5722 49.5921 43.7787 51.001 44.6976V44.8557ZM59.908 47.8689L57.5081 53.3271L55.1028 47.855V46.3916C55.8856 46.553 56.6958 46.6381 57.5256 46.6381C58.3412 46.6381 59.1377 46.5554 59.908 46.3994V47.8689V47.8689ZM57.5256 42.5363C53.182 42.5365 49.6485 39.0028 49.6485 34.6593V32.4933H52.4517C55.7039 32.4933 58.796 31.2839 61.1659 29.1269L65.395 31.6117V34.9593C65.2367 39.164 61.7686 42.5363 57.5256 42.5363ZM64.0095 44.8623V44.7235C65.4299 43.8051 66.6439 42.5956 67.567 41.1785C68.0819 41.7872 68.6746 42.3274 69.3294 42.7851V43.4241L65.6657 44.302C65.0948 44.439 64.5409 44.6271 64.0095 44.8623ZM86.7716 55.4587H78.4312C76.9206 51.8191 73.7474 49.0077 69.7102 48.0433L68.6805 47.7974L71.7561 47.0603C72.012 47.0128 72.2634 46.9151 72.4954 46.765C73.1018 46.3727 73.4316 45.7136 73.4316 45.0407C73.4316 45.0247 73.4314 45.0085 73.431 44.9925V44.3634C73.8056 44.4101 74.1863 44.437 74.5732 44.437C74.9631 44.437 75.3466 44.4097 75.7239 44.3623V45.0518C75.7239 46.0009 76.3752 46.8259 77.2983 47.0464L82.5212 48.2941C85.0238 48.8921 86.7716 51.1065 86.7716 53.6794V55.4587V55.4587Z" fill="#0F172A"/>
<path d="M58.9494 66.234C58.5661 65.8526 58.0391 65.6352 57.4997 65.6352C56.9581 65.6352 56.4313 65.8526 56.0498 66.234C55.6664 66.6175 55.449 67.1446 55.449 67.686C55.449 68.2253 55.6664 68.7524 56.0498 69.1359C56.4313 69.5173 56.9583 69.7368 57.4997 69.7368C58.0391 69.7368 58.5661 69.5173 58.9494 69.1359C59.3309 68.7524 59.5505 68.2253 59.5505 67.686C59.5505 67.1446 59.3311 66.6175 58.9494 66.234Z" fill="#0F172A"/>
<path d="M57.4985 5C56.3661 5 55.4478 5.91813 55.4478 7.05077V10.1193C55.4478 11.252 56.3661 12.1701 57.4985 12.1701C58.631 12.1701 59.5493 11.252 59.5493 10.1193V7.05077C59.5493 5.91813 58.6312 5 57.4985 5Z" fill="#0F172A"/>
<path d="M49.9442 11.6894L47.7929 9.54021C46.9917 8.73958 45.6933 8.7402 44.8927 9.54144C44.0921 10.3427 44.0929 11.6412 44.8941 12.4416L47.0456 14.5909C47.4459 14.991 47.9705 15.1909 48.4949 15.1909C49.0201 15.1909 49.5451 14.9903 49.9456 14.5896C50.7458 13.7884 50.7454 12.4898 49.9442 11.6894Z" fill="#0F172A"/>
<path d="M70.0549 9.59271C69.2537 8.79229 67.9549 8.7927 67.1547 9.59414L65.0201 11.7308C64.2196 12.5321 64.2203 13.8306 65.0215 14.631C65.422 15.0312 65.9464 15.2311 66.471 15.2311C66.9962 15.2311 67.5214 15.0305 67.9217 14.6296L70.0564 12.4929C70.8568 11.6917 70.8562 10.3931 70.0549 9.59271Z" fill="#0F172A"/>
</svg>
