<svg width="115" height="115" viewBox="0 0 115 115" fill="none" xmlns="http://www.w3.org/2000/svg">
<path d="M92.653 96.7064H92.3225L90.4033 67.7658C103.157 60.7735 103.959 40.9745 103.987 40.1239C103.999 39.7613 103.863 39.411 103.611 39.1503C103.359 38.8909 103.012 38.7423 102.649 38.7423H88.3435C86.1393 24.9486 74.2678 14.5659 59.9647 14.5659C46.3798 14.5659 34.9804 23.9322 31.9846 36.6532H16.4243C12.8023 36.6532 9.85596 39.5996 9.85596 43.2202V64.81C9.85596 67.521 10.9954 70.1333 12.9816 71.9788L27.4076 85.3845L26.3938 96.8736C24.3957 97.3979 22.9111 99.2009 22.9111 101.361V106.346C22.9111 108.912 25.0001 111 27.567 111H92.653C95.2196 111 97.3076 108.911 97.3076 106.346V101.361C97.3076 98.7942 95.2183 96.7064 92.653 96.7064ZM101.214 41.4172C100.81 45.7427 98.8736 59.0467 90.2053 64.7564L88.6993 42.0512C88.6899 41.8373 88.6539 41.6312 88.6405 41.4172H101.214ZM59.9647 17.2408C69.7806 17.2408 78.327 22.6402 82.7796 30.6933H37.1459C41.597 22.6457 50.1449 17.2408 59.9647 17.2408ZM33.9038 42.1691C34.0431 39.0513 34.7452 36.0968 35.8698 33.3683H84.0555C85.1829 36.1049 85.8877 39.0685 86.0269 42.1996L89.6421 96.7062H29.0944L33.9038 42.1691ZM28.4831 73.2066L18.9841 64.3792C18.8451 64.2494 18.7646 64.0676 18.7646 63.8776V45.7894H30.901L28.4831 73.2066ZM14.8031 70.0196C13.3601 68.6782 12.532 66.7788 12.532 64.8087V43.2202C12.532 41.075 14.2788 39.3282 16.4253 39.3282H31.4854C31.365 40.2044 31.2767 41.0923 31.2367 41.9925L31.1377 43.1147H18.6097C17.22 43.1147 16.0912 44.2448 16.0912 45.6332V63.8792C16.0912 64.8086 16.4817 65.7062 17.1638 66.3402L28.1861 76.5827L27.7072 82.0116L14.8031 70.0196ZM94.6339 106.344C94.6339 107.436 93.7457 108.324 92.6543 108.324H27.5683C26.4769 108.324 25.5874 107.436 25.5874 106.344V101.36C25.5874 100.268 26.4769 99.3801 27.5683 99.3801H92.6546C93.746 99.3801 94.6342 100.268 94.6342 101.36V106.344H94.6339Z" fill="#0F172A"/>
<path d="M59.2759 39.6411C54.3606 39.6411 50.3628 43.6403 50.3628 48.5556V81.5178C50.3628 86.4331 54.3606 90.4309 59.2759 90.4309C64.1912 90.4309 68.1903 86.4331 68.1903 81.5178V48.5556C68.1903 43.6403 64.1912 39.6411 59.2759 39.6411ZM65.5153 81.5178C65.5153 84.9566 62.7173 87.756 59.2759 87.756C55.8358 87.756 53.0378 84.9566 53.0378 81.5178V48.5556C53.0378 45.1154 55.8358 42.3161 59.2759 42.3161C62.716 42.3161 65.5153 45.1154 65.5153 48.5556V81.5178Z" fill="#0F172A"/>
<path d="M61.024 48.2666H57.5277C56.7894 48.2666 56.1902 48.8646 56.1902 49.6041C56.1902 50.3437 56.7881 50.9416 57.5277 50.9416H61.024C61.7622 50.9416 62.3614 50.3437 62.3614 49.6041C62.3614 48.8643 61.7624 48.2666 61.024 48.2666Z" fill="#0F172A"/>
<path d="M61.024 54.5246H57.5277C56.7894 54.5246 56.1902 55.1226 56.1902 55.8621C56.1902 56.6017 56.7881 57.1996 57.5277 57.1996H61.024C61.7622 57.1996 62.3614 56.6017 62.3614 55.8621C62.3614 55.1226 61.7624 54.5246 61.024 54.5246Z" fill="#0F172A"/>
<path d="M61.024 60.7855H57.5277C56.7894 60.7855 56.1902 61.3834 56.1902 62.1229C56.1902 62.8625 56.7881 63.4604 57.5277 63.4604H61.024C61.7622 63.4604 62.3614 62.8625 62.3614 62.1229C62.3614 61.3834 61.7624 60.7855 61.024 60.7855Z" fill="#0F172A"/>
<path d="M61.024 67.0463H57.5277C56.7894 67.0463 56.1902 67.6443 56.1902 68.3838C56.1902 69.1234 56.7881 69.7213 57.5277 69.7213H61.024C61.7622 69.7213 62.3614 69.1234 62.3614 68.3838C62.3614 67.6443 61.7624 67.0463 61.024 67.0463Z" fill="#0F172A"/>
<path d="M61.024 73.3043H57.5277C56.7894 73.3043 56.1902 73.9023 56.1902 74.6418C56.1902 75.3813 56.7881 75.9793 57.5277 75.9793H61.024C61.7622 75.9793 62.3614 75.3813 62.3614 74.6418C62.3614 73.9023 61.7624 73.3043 61.024 73.3043Z" fill="#0F172A"/>
<path d="M61.024 79.5652H57.5277C56.7894 79.5652 56.1902 80.1631 56.1902 80.9027C56.1902 81.6422 56.7881 82.2401 57.5277 82.2401H61.024C61.7622 82.2401 62.3614 81.6422 62.3614 80.9027C62.3614 80.1631 61.7624 79.5652 61.024 79.5652Z" fill="#0F172A"/>
<path d="M90.0326 14.2636C92.8468 13.8585 94.8073 11.2396 94.4035 8.42544C93.9996 5.61123 91.3753 3.64679 88.5666 4.05326C87.8349 4.1588 87.3268 4.83564 87.4324 5.56734C87.5379 6.30035 88.2241 6.81131 88.9451 6.7029C90.304 6.5075 91.5613 7.45315 91.7552 8.80683C91.9506 10.1603 91.0049 11.4204 89.6512 11.6156C88.2871 11.811 87.0821 12.5265 86.2553 13.6286C85.4287 14.732 85.0823 16.0896 85.2788 17.4524C85.4742 18.8166 86.1884 20.0219 87.2918 20.8471C88.1933 21.5226 89.2646 21.8784 90.3707 21.8784C90.618 21.8784 90.867 21.8596 91.1157 21.8249C91.8461 21.7191 92.3542 21.0412 92.2486 20.3095C92.1428 19.5778 91.4662 19.0684 90.7345 19.1752C90.0846 19.2742 89.4266 19.1031 88.8955 18.7058C88.3657 18.3085 88.0206 17.7293 87.9271 17.0726C87.8336 16.4159 88.0008 15.7618 88.3979 15.231C88.7968 14.7009 89.3759 14.3574 90.0326 14.2636Z" fill="#0F172A"/>
<path d="M100.721 14.2623C103.535 13.8572 105.495 11.2383 105.092 8.42413C104.689 5.61279 102.07 3.65202 99.2563 4.05326C98.5246 4.1588 98.0165 4.83564 98.1221 5.56734C98.2263 6.30035 98.9083 6.81131 99.6348 6.7029C100.99 6.5075 102.251 7.45315 102.445 8.80683C102.64 10.1603 101.695 11.4204 100.341 11.6156C98.9768 11.8107 97.7715 12.5265 96.945 13.6286C96.1184 14.732 95.772 16.0896 95.9685 17.4537C96.1639 18.8166 96.8794 20.0216 97.9815 20.8468C98.883 21.5224 99.9543 21.8782 101.06 21.8782C101.308 21.8782 101.557 21.8594 101.805 21.8246C102.536 21.7188 103.044 21.0409 102.938 20.3092C102.833 19.5775 102.157 19.0681 101.424 19.175C100.771 19.2779 100.116 19.1029 99.5852 18.7055C99.0541 18.3082 98.7103 17.7291 98.6155 17.0723C98.522 16.4156 98.6892 15.7615 99.0862 15.2307C99.4836 14.7009 100.064 14.3574 100.721 14.2623Z" fill="#0F172A"/>
</svg>
