<svg width="115" height="115" viewBox="0 0 115 115" fill="none" xmlns="http://www.w3.org/2000/svg">
<g clip-path="url(#clip0_1048_29692)">
<path d="M109.25 11.5H5.75C2.57447 11.5 0 14.0745 0 17.25V57.5C0.00853516 64.9063 6.01032 70.9083 13.4166 70.9166H101.583C108.99 70.9083 114.991 64.9063 115 57.5V17.25C115 14.0745 112.426 11.5 109.25 11.5V11.5ZM101.583 15.3334V30.6668C101.583 32.784 99.8672 34.5002 97.75 34.5002H17.25C15.1328 34.5002 13.4166 32.784 13.4166 30.6668V15.3334H101.583ZM23 67.0834V63.25C23 61.1328 24.7162 59.4166 26.8334 59.4166H88.1668C90.284 59.4166 92.0002 61.1328 92.0002 63.25V67.0834H23ZM111.167 57.5C111.16 62.79 106.873 67.0769 101.583 67.0834H95.8332V63.25C95.8332 59.0159 92.4007 55.5834 88.1666 55.5834H26.8334C22.5993 55.5834 19.1668 59.0159 19.1668 63.25V67.0834H13.4168C8.12659 67.0769 3.8397 62.79 3.83341 57.5V17.25C3.83341 16.1914 4.69164 15.3334 5.75 15.3334H9.58341V30.6668C9.58341 34.9009 13.0159 38.3334 17.25 38.3334H97.75C101.984 38.3334 105.417 34.9009 105.417 30.6668V15.3334H109.25C110.309 15.3334 111.167 16.1916 111.167 17.25V57.5Z" fill="#0F172A"/>
<path d="M69.0001 47.9166H46.0001C44.9415 47.9166 44.0835 48.7748 44.0835 49.8332C44.0835 50.8918 44.9417 51.7498 46.0001 51.7498H69.0001C70.0587 51.7498 70.9167 50.8915 70.9167 49.8332C70.9167 48.7748 70.0587 47.9166 69.0001 47.9166Z" fill="#0F172A"/>
<path d="M19.1666 30.6666H95.8332C96.8918 30.6666 97.7498 29.8086 97.7498 28.75C97.7498 27.6914 96.8918 26.8334 95.8332 26.8334H19.1666C18.108 26.8334 17.25 27.6914 17.25 28.75C17.25 29.8086 18.1082 30.6666 19.1666 30.6666V30.6666Z" fill="#0F172A"/>
<path d="M19.1666 23H95.8332C96.8918 23 97.7498 22.1418 97.7498 21.0834C97.7498 20.025 96.8918 19.1668 95.8332 19.1668H19.1666C18.108 19.1668 17.25 20.025 17.25 21.0834C17.25 22.1418 18.1082 23 19.1666 23V23Z" fill="#0F172A"/>
<path d="M95.8333 51.75C96.8918 51.75 97.7499 50.8919 97.7499 49.8334C97.7499 48.7749 96.8918 47.9168 95.8333 47.9168C94.7748 47.9168 93.9167 48.7749 93.9167 49.8334C93.9167 50.8919 94.7748 51.75 95.8333 51.75Z" fill="#0F172A"/>
<path d="M103.5 51.75C104.559 51.75 105.417 50.8919 105.417 49.8334C105.417 48.7749 104.559 47.9168 103.5 47.9168C102.442 47.9168 101.583 48.7749 101.583 49.8334C101.583 50.8919 102.442 51.75 103.5 51.75Z" fill="#0F172A"/>
<path d="M15.3335 101.583C15.3335 102.642 16.1917 103.5 17.2501 103.5C18.3087 103.5 19.1667 102.642 19.1667 101.583C19.1846 100.469 19.7017 99.4213 20.5754 98.7295C22.1189 97.3365 22.9999 95.3548 22.9999 93.2755C22.9999 91.1963 22.1189 89.2146 20.5754 87.8216C19.6878 87.1419 19.1671 86.0876 19.1671 84.9695C19.1671 83.8514 19.6878 82.7971 20.5754 82.1174C22.1095 80.7188 22.9886 78.7422 23.0001 76.6664C23.0001 75.6078 22.1419 74.7498 21.0835 74.7498C20.0249 74.7498 19.1669 75.6078 19.1669 76.6664C19.1489 77.7793 18.6326 78.8253 17.7602 79.5164C16.2162 80.9088 15.3348 82.8903 15.3348 84.9693C15.3348 87.0483 16.2162 89.0298 17.7602 90.4221C18.6481 91.1025 19.1687 92.1574 19.1687 93.276C19.1687 94.3946 18.6481 95.4495 17.7602 96.1299C16.225 97.5294 15.3452 99.5067 15.3335 101.583V101.583Z" fill="#0F172A"/>
<path d="M28.75 101.583C28.75 102.642 29.6082 103.5 30.6666 103.5C31.725 103.5 32.5832 102.642 32.5832 101.583C32.6012 100.469 33.1182 99.4213 33.9919 98.7295C35.5354 97.3365 36.4164 95.3548 36.4164 93.2755C36.4164 91.1963 35.5354 89.2146 33.9919 87.8216C33.1043 87.1419 32.5836 86.0876 32.5836 84.9695C32.5836 83.8514 33.1043 82.7971 33.9919 82.1174C35.526 80.7188 36.4051 78.7422 36.4166 76.6664C36.4166 75.6078 35.5584 74.7498 34.5 74.7498C33.4416 74.7498 32.5834 75.6078 32.5834 76.6664C32.5654 77.7793 32.0491 78.8253 31.1767 79.5164C29.6327 80.9088 28.7513 82.8903 28.7513 84.9693C28.7513 87.0483 29.6327 89.0298 31.1767 90.4221C32.0646 91.1025 32.5852 92.1574 32.5852 93.276C32.5852 94.3946 32.0646 95.4495 31.1767 96.1299C29.6415 97.5294 28.7617 99.5067 28.75 101.583V101.583Z" fill="#0F172A"/>
<path d="M42.1665 101.583C42.1665 102.642 43.0247 103.5 44.0831 103.5C45.1415 103.5 45.9997 102.642 45.9997 101.583C46.0177 100.469 46.5347 99.4213 47.4084 98.7295C48.952 97.3365 49.8329 95.3548 49.8329 93.2755C49.8329 91.1963 48.952 89.2146 47.4084 87.8216C46.5208 87.1419 46.0001 86.0876 46.0001 84.9695C46.0001 83.8514 46.5208 82.7971 47.4084 82.1174C48.9425 80.7188 49.8216 78.7422 49.8331 76.6664C49.8331 75.6078 48.9749 74.7498 47.9165 74.7498C46.8581 74.7498 45.9999 75.6078 45.9999 76.6664C45.9819 77.7793 45.4656 78.8253 44.5932 79.5164C43.0492 80.9088 42.1679 82.8903 42.1679 84.9693C42.1679 87.0483 43.0492 89.0298 44.5932 90.4221C45.4811 91.1025 46.0017 92.1574 46.0017 93.276C46.0017 94.3946 45.4811 95.4495 44.5932 96.1299C43.0582 97.5294 42.1784 99.5067 42.1665 101.583V101.583Z" fill="#0F172A"/>
<path d="M55.5835 101.583C55.5835 102.642 56.4417 103.5 57.5001 103.5C58.5587 103.5 59.4167 102.642 59.4167 101.583C59.4346 100.469 59.9517 99.4213 60.8254 98.7295C62.3689 97.3365 63.2499 95.3548 63.2499 93.2755C63.2499 91.1963 62.3689 89.2146 60.8254 87.8216C59.9378 87.1419 59.4171 86.0876 59.4171 84.9695C59.4171 83.8514 59.9378 82.7971 60.8254 82.1174C62.3595 80.7188 63.2386 78.7422 63.2501 76.6664C63.2501 75.6078 62.3921 74.7498 61.3335 74.7498C60.2749 74.7498 59.4169 75.6078 59.4169 76.6664C59.3989 77.7793 58.8826 78.8253 58.0102 79.5164C56.4662 80.9088 55.5848 82.8903 55.5848 84.9693C55.5848 87.0483 56.4662 89.0298 58.0102 90.4221C58.8981 91.1025 59.4187 92.1574 59.4187 93.276C59.4187 94.3946 58.8981 95.4495 58.0102 96.1299C56.475 97.5294 55.5952 99.5067 55.5835 101.583V101.583Z" fill="#0F172A"/>
<path d="M69 101.583C69 102.642 69.8582 103.5 70.9166 103.5C71.9752 103.5 72.8332 102.642 72.8332 101.583C72.8511 100.469 73.3682 99.4213 74.2419 98.7295C75.7854 97.3365 76.6664 95.3548 76.6664 93.2755C76.6664 91.1963 75.7854 89.2146 74.2419 87.8216C73.3543 87.1419 72.8336 86.0876 72.8336 84.9695C72.8336 83.8514 73.3543 82.7971 74.2419 82.1174C75.776 80.7188 76.6551 78.7422 76.6666 76.6664C76.6666 75.6078 75.8086 74.7498 74.75 74.7498C73.6914 74.7498 72.8334 75.6078 72.8334 76.6664C72.8154 77.7793 72.2991 78.8253 71.4267 79.5164C69.8827 80.9088 69.0013 82.8903 69.0013 84.9693C69.0013 87.0483 69.8827 89.0298 71.4267 90.4221C72.3146 91.1025 72.8352 92.1574 72.8352 93.276C72.8352 94.3946 72.3146 95.4495 71.4267 96.1299C69.8915 97.5294 69.0117 99.5067 69 101.583V101.583Z" fill="#0F172A"/>
<path d="M82.4165 101.583C82.4165 102.642 83.2747 103.5 84.3331 103.5C85.3917 103.5 86.2497 102.642 86.2497 101.583C86.2677 100.469 86.7847 99.4213 87.6584 98.7295C89.2019 97.3365 90.0829 95.3548 90.0829 93.2755C90.0829 91.1963 89.2019 89.2146 87.6584 87.8216C86.7708 87.1419 86.2501 86.0876 86.2501 84.9695C86.2501 83.8514 86.7708 82.7971 87.6584 82.1174C89.1925 80.7188 90.0716 78.7422 90.0831 76.6664C90.0831 75.6078 89.2251 74.7498 88.1665 74.7498C87.1079 74.7498 86.2499 75.6078 86.2499 76.6664C86.2319 77.7793 85.7156 78.8253 84.8432 79.5164C83.2992 80.9088 82.4178 82.8903 82.4178 84.9693C82.4178 87.0483 83.2992 89.0298 84.8432 90.4221C85.7311 91.1025 86.2517 92.1574 86.2517 93.276C86.2517 94.3946 85.7311 95.4495 84.8432 96.1299C83.3082 97.5294 82.4284 99.5067 82.4165 101.583V101.583Z" fill="#0F172A"/>
<path d="M93.9165 101.583C93.9165 102.642 94.7745 103.5 95.8331 103.5C96.8917 103.5 97.7497 102.642 97.7497 101.583C97.7677 100.469 98.2847 99.4213 99.1584 98.7295C100.702 97.3365 101.583 95.3548 101.583 93.2755C101.583 91.1963 100.702 89.2146 99.1584 87.8216C98.2708 87.1419 97.7501 86.0876 97.7501 84.9695C97.7501 83.8514 98.2708 82.7971 99.1584 82.1174C100.693 80.7188 101.572 78.7422 101.583 76.6664C101.583 75.6078 100.725 74.7498 99.6665 74.7498C98.6079 74.7498 97.7499 75.6078 97.7499 76.6664C97.7319 77.7793 97.2156 78.8253 96.3432 79.5164C94.7992 80.9088 93.9179 82.8903 93.9179 84.9693C93.9179 87.0483 94.7992 89.0298 96.3432 90.4221C97.2311 91.1025 97.7517 92.1574 97.7517 93.276C97.7517 94.3946 97.2311 95.4495 96.3432 96.1299C94.8082 97.5294 93.9284 99.5067 93.9165 101.583V101.583Z" fill="#0F172A"/>
</g>
<defs>
<clipPath id="clip0_1048_29692">
<rect width="115" height="115" fill="white"/>
</clipPath>
</defs>
</svg>
