<svg width="84" height="101" viewBox="0 0 84 101" fill="none" xmlns="http://www.w3.org/2000/svg">
<g filter="url(#filter0_d_994_25950)">
<path d="M19 85L27.7963 65.5L27.3333 65L44 72.5L33.3519 93L30.1111 85H19Z" fill="white"/>
</g>
<g filter="url(#filter1_d_994_25950)">
<path d="M66 85L57.2037 65.5L57.6667 65L41 72.5L51.6481 93L54.8889 85H66Z" fill="white"/>
</g>
<path d="M42 62.5878L47.4133 60L57.3329 80.7509L53.6263 80.0448L51.9197 83.3387L42 62.5878Z" fill="#26D56F"/>
<path d="M42.333 62.5877L36.9197 60L27.0001 80.7509L30.7067 80.0448L32.4133 83.3386L42.333 62.5877Z" fill="#26D56F"/>
<g filter="url(#filter2_d_994_25950)">
<path d="M38.185 3.14279C40.4008 1.31741 43.5992 1.31741 45.815 3.14279L46.6456 3.82704C48.1555 5.07088 50.1769 5.50055 52.0622 4.97837L53.0993 4.69111C55.866 3.92479 58.7878 5.22569 60.0696 7.7945L60.5501 8.75744C61.4235 10.5079 63.0954 11.7226 65.0301 12.0123L66.0944 12.1718C68.9336 12.597 71.0737 14.9739 71.1998 17.8419L71.2471 18.917C71.3331 20.8714 72.3664 22.6611 74.0159 23.7127L74.9233 24.2912C77.3441 25.8345 78.3324 28.8764 77.2811 31.5478L76.887 32.5492C76.1707 34.3695 76.3867 36.4248 77.4659 38.0564L78.0596 38.954C79.6433 41.3485 79.309 44.5293 77.262 46.5422L76.4947 47.2967C75.0998 48.6683 74.4612 50.6338 74.7835 52.5633L74.9608 53.6247C75.4337 56.4564 73.8345 59.2262 71.1458 60.2325L70.1379 60.6097C68.3057 61.2954 66.9229 62.8311 66.4325 64.7249L66.1627 65.7667C65.443 68.5459 62.8555 70.4258 59.9899 70.2515L58.9158 70.1861C56.9632 70.0673 55.0752 70.9079 53.8569 72.4385L53.1868 73.2805C51.3989 75.5266 48.2704 76.1916 45.7235 74.8668L44.7688 74.3702C43.0333 73.4675 40.9667 73.4675 39.2312 74.3702L38.2765 74.8668C35.7296 76.1916 32.6011 75.5266 30.8132 73.2805L30.1431 72.4385C28.9248 70.9079 27.0368 70.0673 25.0842 70.1861L24.0101 70.2515C21.1445 70.4258 18.557 68.5459 17.8373 65.7667L17.5675 64.7249C17.0771 62.8311 15.6943 61.2954 13.8621 60.6097L12.8542 60.2325C10.1655 59.2262 8.56633 56.4564 9.03925 53.6247L9.21653 52.5633C9.53878 50.6338 8.90017 48.6683 7.50532 47.2967L6.73799 46.5422C4.691 44.5293 4.35668 41.3485 5.94044 38.954L6.53413 38.0564C7.61332 36.4248 7.82934 34.3695 7.11296 32.5492L6.71887 31.5478C5.66755 28.8764 6.6559 25.8345 9.07666 24.2912L9.9841 23.7127C11.6336 22.6611 12.6669 20.8714 12.7529 18.917L12.8002 17.8419C12.9263 14.9739 15.0664 12.597 17.9056 12.1718L18.9699 12.0123C20.9046 11.7226 22.5765 10.5079 23.4499 8.75744L23.9304 7.7945C25.2122 5.22569 28.134 3.92479 30.9007 4.69111L31.9378 4.97837C33.8231 5.50055 35.8445 5.07088 37.3544 3.82704L38.185 3.14279Z" fill="white"/>
</g>
<circle cx="42" cy="39" r="24" fill="#45D882"/>
<circle cx="42" cy="39" r="30" fill="#26D56F"/>
<circle cx="42" cy="39" r="25" fill="white"/>
<circle cx="42" cy="39" r="20" fill="white"/>
<g clip-path="url(#clip0_994_25950)">
<path d="M25.2227 38.4189C26.0212 39.1246 26.7623 39.2074 27.4163 39.2805C28.0559 39.352 28.5611 39.4085 29.169 40.0163C29.7768 40.6242 29.8332 41.1293 29.9048 41.7689C29.9995 42.616 30.1056 43.5649 31.4745 44.6115C30.6447 45.5838 26.9218 49.9458 26.6557 50.2576C26.08 50.9321 26.1202 51.9515 26.7473 52.5785C27.0717 52.9029 27.4947 53.0695 27.9207 53.0785C27.9396 54.0083 28.6951 54.751 29.6328 54.751C30.0278 54.751 30.4237 54.6164 30.7424 54.3444C31.7065 53.5216 35.758 50.0637 36.3885 49.5256C37.4351 50.8945 38.3841 51.0006 39.2311 51.0953C39.8706 51.1668 40.3758 51.2233 40.9837 51.8311C41.5915 52.439 41.648 52.9442 41.7195 53.5837C41.7926 54.2377 41.8754 54.9788 42.5811 55.7774C42.9197 56.1605 43.5435 56.0276 43.6999 55.5466L49.3644 38.1091L53.9399 36.8831C54.414 36.7561 54.8481 36.5055 55.1952 36.1584L60.6136 30.74C61.1287 30.2249 61.1287 29.3868 60.6136 28.8717L60.2876 28.5458C59.7726 28.0308 58.9345 28.0308 58.4193 28.5458C57.2918 29.6734 57.1106 29.8546 56.0023 30.9629C55.7963 31.1688 55.7963 31.5028 56.0023 31.7086C56.2082 31.9147 56.5422 31.9146 56.748 31.7086L57.3698 31.0868L58.0724 31.7894L54.4493 35.4126C54.2329 35.6289 53.9623 35.7851 53.6669 35.8643C53.499 35.9093 48.9006 37.1414 48.7661 37.1774C48.3461 37.29 47.9615 37.512 47.6541 37.8195L44.4782 40.9954L44.0762 40.5934C43.8703 40.3875 43.5364 40.3875 43.3304 40.5934C43.1245 40.7994 43.1245 41.1332 43.3304 41.3392L43.7302 41.739C43.5523 41.9128 43.3726 42.0856 43.1917 42.2564L38.7436 37.8084C38.9146 37.6275 39.0873 37.4477 39.2611 37.2698L41.5436 39.5524C41.7496 39.7583 42.0835 39.7583 42.2894 39.5524C42.4953 39.3464 42.4953 39.0125 42.2894 38.8066L40.0047 36.5219L43.1806 33.346C43.5094 33.0172 43.7138 32.64 43.8356 32.1855C43.8378 32.1772 44.3406 30.3006 45.1357 27.3332C45.2149 27.0377 45.3711 26.7671 45.5874 26.5507L49.2106 22.9276L49.9132 23.6303L47.3831 26.1604C47.036 26.5074 46.7854 26.9415 46.6583 27.4157C46.6551 27.4278 46.6523 27.4399 46.6499 27.4522C45.9671 30.9894 46.1171 30.1864 45.996 30.8953C45.6266 33.0573 47.2893 35.0549 49.5072 35.0549C49.877 35.0549 50.101 35.005 50.5822 34.9227C50.5894 34.9215 53.553 34.3503 53.5845 34.3419C54.0585 34.2149 54.4926 33.9643 54.8398 33.6172L55.2657 33.1913C55.4716 32.9853 55.4716 32.6514 55.2657 32.4455C55.0597 32.2395 54.7259 32.2396 54.5199 32.4455L54.094 32.8713C53.8818 33.0836 53.6174 33.2379 53.3285 33.3185L50.7517 33.8159L50.3475 33.1585L50.8299 32.6761C51.526 32.7492 52.2393 32.6175 52.7737 32.1565C54.8249 30.3867 52.4212 32.4606 54.473 30.6903C55.7705 29.5707 55.8437 27.5802 54.6319 26.3684C53.4228 25.1594 51.4317 25.2272 50.3099 26.5273C49.7691 27.1542 50.4459 26.3698 48.8438 28.2266C48.3731 28.7722 48.2532 29.4942 48.3242 30.1704L47.8418 30.6528L47.1844 30.2486L47.6818 27.6718C47.7624 27.3829 47.9167 27.1185 48.1289 26.9063C51.4 23.6352 50.7919 24.2434 52.4544 22.5809C52.9694 22.0658 52.9694 21.2277 52.4544 20.7126L52.1285 20.3867C51.6134 19.8716 50.7753 19.8716 50.2602 20.3867L44.8418 25.8051C44.4948 26.1521 44.2442 26.5861 44.1171 27.0603L42.8911 31.6358L39.0961 32.8686C38.8191 32.9585 38.6675 33.256 38.7574 33.5331C38.8476 33.8106 39.1454 33.9616 39.4219 33.8717L42.0014 33.0338C38.8202 36.215 37.9042 37.0782 36.4146 38.8236L32.1599 43.8085C31.1066 43.0254 31.0378 42.4105 30.9529 41.6517C30.8737 40.943 30.7839 40.1397 29.9147 39.2706C28.6346 37.9904 27.5119 38.4039 26.5822 38.0424L37.0781 34.6329C37.3551 34.5428 37.5067 34.2454 37.4167 33.9683C37.3267 33.6913 37.0294 33.5396 36.7522 33.6298L25.4535 37.3001C24.9702 37.4572 24.8414 38.082 25.2227 38.4189V38.4189ZM59.1652 29.2915C59.2691 29.1876 59.438 29.1877 59.5419 29.2915L59.8678 29.6174C59.9717 29.7213 59.9717 29.8902 59.8678 29.9941L58.8183 31.0436L58.1157 30.341L59.1652 29.2915ZM52.4749 26.5597C53.5736 26.519 54.481 27.4179 54.4403 28.525C54.4206 29.0579 54.1876 29.5432 53.7838 29.8916L53.4345 30.1929C52.9491 29.5593 52.6863 28.7881 52.6863 27.9764V27.5206C52.6863 27.2294 52.4501 26.9932 52.1589 26.9932C51.7588 26.9932 51.5985 27.0016 51.3698 26.9649C51.6828 26.7164 52.0648 26.5748 52.4749 26.5597V26.5597ZM49.6422 28.9154L50.5707 27.8395C50.91 27.966 51.2697 28.0366 51.6321 28.0467C51.6472 29.0882 51.9987 30.0753 52.6348 30.883L52.0846 31.3577C51.5368 31.8303 50.5219 31.6321 50.0182 31.3598C49.9288 31.3109 49.858 31.2614 49.8097 31.2166C49.469 30.9004 49.0785 29.5688 49.6422 28.9154V28.9154ZM48.4082 31.5776L48.6413 31.3445C48.8775 31.8394 49.1565 32.1205 49.6554 32.3588L49.4224 32.5918C49.1813 32.833 49.1376 33.2042 49.3161 33.4948L49.6251 33.9973C48.1486 34.067 46.9327 32.8511 47.0028 31.375L47.5053 31.684C47.7959 31.8625 48.1673 31.8187 48.4082 31.5776ZM51.0059 21.1322C51.1098 21.0284 51.2787 21.0284 51.3826 21.1322L51.7084 21.4581C51.8123 21.562 51.8123 21.731 51.7084 21.8349L50.6589 22.8844L49.9563 22.1817L51.0059 21.1322ZM27.4579 50.9423L30.4738 47.4086L31.6597 48.5945L28.4215 51.8327C28.1655 52.0887 27.7491 52.0887 27.4931 51.8327C27.2525 51.5922 27.2371 51.201 27.4579 50.9423ZM37.5428 44.2029L41.571 43.7156C41.4977 43.7785 34.5875 49.676 34.3961 49.8393L33.1513 48.5945L37.5428 44.2029ZM30.0578 53.5421C29.7989 53.7629 29.4078 53.7474 29.1673 53.507C28.9107 53.2504 28.9107 52.8351 29.1673 52.5785L32.4055 49.3402L33.5914 50.5261L30.0578 53.5421ZM47.9664 38.9988L42.9576 54.4177C42.5961 53.4883 43.0086 52.3644 41.7295 51.0852C40.8603 50.2161 40.057 50.1263 39.3482 50.047C38.5894 49.9622 37.9745 49.8934 37.1915 48.8401C44.4969 42.6051 42.8099 44.1552 47.9664 38.9988V38.9988ZM42.0401 42.5964L37.903 43.097L38.4036 38.9599L42.0401 42.5964ZM37.2844 39.429L36.7971 43.4571L32.4055 47.8486L31.1607 46.6038C31.2388 46.5123 37.2189 39.5054 37.2844 39.429Z" fill="black"/>
</g>
<path d="M32.5 21.3959C28.8194 23.3863 25.8336 26.4974 24 30.2718" stroke="black" stroke-linecap="round" stroke-linejoin="round"/>
<path d="M52 55.8759C55.6806 53.8854 58.6664 50.7744 60.5 47" stroke="black" stroke-linecap="round" stroke-linejoin="round"/>
<defs>
<filter id="filter0_d_994_25950" x="15" y="65" width="33" height="36" filterUnits="userSpaceOnUse" color-interpolation-filters="sRGB">
<feFlood flood-opacity="0" result="BackgroundImageFix"/>
<feColorMatrix in="SourceAlpha" type="matrix" values="0 0 0 0 0 0 0 0 0 0 0 0 0 0 0 0 0 0 127 0" result="hardAlpha"/>
<feOffset dy="4"/>
<feGaussianBlur stdDeviation="2"/>
<feComposite in2="hardAlpha" operator="out"/>
<feColorMatrix type="matrix" values="0 0 0 0 0 0 0 0 0 0 0 0 0 0 0 0 0 0 0.25 0"/>
<feBlend mode="normal" in2="BackgroundImageFix" result="effect1_dropShadow_994_25950"/>
<feBlend mode="normal" in="SourceGraphic" in2="effect1_dropShadow_994_25950" result="shape"/>
</filter>
<filter id="filter1_d_994_25950" x="37" y="65" width="33" height="36" filterUnits="userSpaceOnUse" color-interpolation-filters="sRGB">
<feFlood flood-opacity="0" result="BackgroundImageFix"/>
<feColorMatrix in="SourceAlpha" type="matrix" values="0 0 0 0 0 0 0 0 0 0 0 0 0 0 0 0 0 0 127 0" result="hardAlpha"/>
<feOffset dy="4"/>
<feGaussianBlur stdDeviation="2"/>
<feComposite in2="hardAlpha" operator="out"/>
<feColorMatrix type="matrix" values="0 0 0 0 0 0 0 0 0 0 0 0 0 0 0 0 0 0 0.25 0"/>
<feBlend mode="normal" in2="BackgroundImageFix" result="effect1_dropShadow_994_25950"/>
<feBlend mode="normal" in="SourceGraphic" in2="effect1_dropShadow_994_25950" result="shape"/>
</filter>
<filter id="filter2_d_994_25950" x="0.94458" y="1.77376" width="82.1106" height="81.7705" filterUnits="userSpaceOnUse" color-interpolation-filters="sRGB">
<feFlood flood-opacity="0" result="BackgroundImageFix"/>
<feColorMatrix in="SourceAlpha" type="matrix" values="0 0 0 0 0 0 0 0 0 0 0 0 0 0 0 0 0 0 127 0" result="hardAlpha"/>
<feOffset dy="4"/>
<feGaussianBlur stdDeviation="2"/>
<feComposite in2="hardAlpha" operator="out"/>
<feColorMatrix type="matrix" values="0 0 0 0 0 0 0 0 0 0 0 0 0 0 0 0 0 0 0.25 0"/>
<feBlend mode="normal" in2="BackgroundImageFix" result="effect1_dropShadow_994_25950"/>
<feBlend mode="normal" in="SourceGraphic" in2="effect1_dropShadow_994_25950" result="shape"/>
</filter>
<clipPath id="clip0_994_25950">
<rect width="36" height="36" fill="white" transform="translate(25 20)"/>
</clipPath>
</defs>
</svg>
