<svg width="182" height="182" viewBox="0 0 182 182" fill="none" xmlns="http://www.w3.org/2000/svg">
<g clip-path="url(#clip0_1050_29944)">
<path d="M158.061 149.709C155.437 147.496 152.291 146.099 148.98 145.604C153.926 139.84 156.12 132.232 154.999 124.718L153.944 117.645C152.271 106.434 147.302 95.9087 139.792 87.4894C140.373 84.832 140.668 82.1134 140.659 79.3795C140.629 70.0709 137.17 61.1496 130.919 54.2578C128.441 51.525 127.393 47.8006 128.044 44.0387C128.449 41.7013 128.632 39.3027 128.589 36.9094C128.224 16.4776 111.397 0 90.9959 0C90.8682 0 90.7381 0.000711117 90.6105 0.00213335C80.6499 0.103112 71.3015 4.0587 64.2881 11.1396C57.2694 18.2259 53.4041 27.6212 53.4041 37.5957C53.4041 39.8375 53.604 42.0853 53.9976 44.2773C54.6329 47.8123 53.5428 51.5432 51.0816 54.2564C44.8306 61.1479 41.3713 70.0702 41.3407 79.3795C41.3315 82.1119 41.6256 84.832 42.2072 87.4905C34.6979 95.9094 29.7286 106.434 28.056 117.645L27.0007 124.718C25.88 132.231 28.0742 139.84 33.0193 145.603C29.7087 146.098 26.5627 147.497 23.9387 149.709C19.8046 153.194 17.4337 158.294 17.4337 163.7C17.4337 173.791 25.6428 182 35.7336 182H101.897C103.86 182 105.453 180.408 105.453 178.445C105.453 176.481 103.86 174.889 101.897 174.889H84.9702V162.866L144.374 152.673C147.632 152.114 150.95 153.016 153.478 155.146C156.006 157.277 157.455 160.395 157.455 163.701C157.455 169.87 152.436 174.89 146.267 174.89H133.898C131.934 174.89 130.342 176.482 130.342 178.445C130.342 180.409 131.934 182.001 133.898 182.001H146.267C156.357 182.001 164.567 173.792 164.567 163.701C164.566 158.293 162.195 153.194 158.061 149.709V149.709ZM61.8949 174.889C58.734 174.889 56.1622 172.317 56.1622 169.156C56.1622 165.995 58.734 163.424 61.8949 163.424H77.8591V174.889H61.8949ZM56.7759 146.209V105.581C56.7759 103.959 58.0961 102.638 59.7192 102.638H122.281C123.904 102.638 125.224 103.959 125.224 105.581V146.209C125.224 147.832 123.904 149.152 122.281 149.152H59.7188C58.0961 149.152 56.7759 147.832 56.7759 146.209V146.209ZM56.3489 59.0341C60.2821 54.6973 62.0193 48.7108 60.9967 43.0197C60.6774 41.2419 60.5153 39.4168 60.5153 37.5957C60.5153 29.5081 63.6495 21.8896 69.3403 16.1438C75.0274 10.4022 82.6068 7.19472 90.6826 7.11259C107.36 6.95259 121.181 20.3667 121.48 37.0371C121.515 38.9823 121.366 40.9294 121.037 42.8259C120.01 48.7609 121.693 54.6692 125.652 59.0351C130.719 64.6224 133.524 71.8559 133.548 79.4033C133.55 80.0767 133.529 80.7491 133.487 81.4193C124.971 74.3864 114.548 69.8857 103.607 68.5243V63.6019C109.091 59.6655 112.673 53.2402 112.673 45.99V30.6673C112.68 29.2749 111.865 27.9487 110.502 27.3723C108.693 26.6064 106.607 27.4537 105.843 29.2617C104.52 32.3896 101.47 34.4106 98.0743 34.4106H93.9716C94.8615 32.8155 94.3986 30.7778 92.8572 29.7364C91.2298 28.637 89.0197 29.0655 87.9207 30.6922C86.3477 33.0207 83.734 34.4106 80.929 34.4106H72.8827C70.9189 34.4106 69.3271 36.0028 69.3271 37.9662V45.9897C69.3271 53.2399 72.9093 59.6648 78.3928 63.6016V68.5239C67.4512 69.8853 57.0287 74.386 48.5124 81.4193C48.47 80.7491 48.4494 80.0764 48.4516 79.4029C48.4764 71.8551 51.2811 64.6213 56.3489 59.0341V59.0341ZM76.4383 41.5221H98.0743C100.754 41.5221 103.316 40.8373 105.562 39.6039V45.99C105.562 54.0193 99.0294 60.5516 91.0002 60.5516C82.9709 60.5516 76.4386 54.0193 76.4386 45.99V41.5221H76.4383ZM85.5039 66.9552C87.26 67.416 89.1015 67.6631 91.0002 67.6631C92.8988 67.6631 94.7403 67.416 96.4964 66.9552V71.5344C96.4964 74.5648 94.0306 77.0303 91.0002 77.0303C87.9697 77.0303 85.5039 74.5648 85.5039 71.5344V66.9552ZM34.034 125.768L35.0893 118.694C36.7942 107.266 42.3985 96.6489 50.8697 88.7986C58.66 81.5793 68.5911 76.9524 79.0719 75.6066C80.7697 80.5649 85.4737 84.1411 91.0002 84.1411C96.527 84.1411 101.231 80.5649 102.929 75.6066C113.41 76.9524 123.341 81.5797 131.131 88.7993C139.602 96.6493 145.206 107.266 146.911 118.694L147.966 125.768C148.784 131.252 147.178 136.806 143.558 141.005C140.628 144.405 136.627 146.629 132.269 147.354C132.312 146.978 132.336 146.597 132.336 146.209V135.464L135.756 132.796C137.304 131.588 137.58 129.354 136.373 127.806C135.396 126.554 133.749 126.135 132.336 126.658V105.581C132.336 100.037 127.825 95.5271 122.281 95.5271H59.7188C54.175 95.5271 49.6644 100.038 49.6644 105.581V126.658C48.251 126.135 46.6041 126.554 45.6274 127.806C44.4195 129.354 44.6954 131.588 46.2439 132.796L49.6644 135.464V146.209C49.6644 146.597 49.6885 146.978 49.7316 147.354C45.3731 146.629 41.3717 144.405 38.4426 141.006C34.8227 136.806 33.2159 131.252 34.034 125.768V125.768ZM24.5449 163.7C24.5449 160.394 25.9945 157.277 28.5222 155.145C31.0495 153.015 34.3665 152.111 37.6259 152.673L59.8234 156.482C53.7231 157.475 49.051 162.779 49.051 169.156C49.051 171.215 49.541 173.162 50.4064 174.888H35.7336C29.5639 174.889 24.5449 169.87 24.5449 163.7Z" fill="black"/>
<path d="M87.7144 129.451H94.2851C96.2485 129.451 97.8407 127.859 97.8407 125.895C97.8407 123.932 96.2485 122.34 94.2851 122.34H87.7144C85.7506 122.34 84.1588 123.932 84.1588 125.895C84.1588 127.859 85.7506 129.451 87.7144 129.451V129.451Z" fill="black"/>
<path d="M117.898 182C119.861 182 121.453 180.408 121.453 178.444C121.453 176.481 119.861 174.889 117.898 174.889C115.934 174.889 114.342 176.481 114.342 178.444C114.342 180.408 115.934 182 117.898 182Z" fill="black"/>
</g>
<defs>
<clipPath id="clip0_1050_29944">
<rect width="182" height="182" fill="white"/>
</clipPath>
</defs>
</svg>
