<svg width="115" height="115" viewBox="0 0 115 115" fill="none" xmlns="http://www.w3.org/2000/svg">
<path d="M110.219 55.527L92.8548 43.4812C92.0902 42.9509 91.0406 43.1407 90.5103 43.9053C89.98 44.6698 90.1698 45.7192 90.9344 46.2495L108.299 58.2954C111.348 60.4107 111.658 63.6463 110.931 65.9689C110.205 68.2921 108.106 70.7743 104.394 70.7743H73.4004V67.4051H104.394C105.997 67.4051 107.239 66.4918 107.715 64.9647C108.195 63.4356 107.695 61.9774 106.379 61.0639L59.4845 28.53C58.2976 27.7066 56.7027 27.7066 55.5156 28.53L8.62126 61.0637C7.30482 61.9772 6.80506 63.4356 7.28371 64.9616C7.76078 66.4916 9.00265 67.4049 10.6059 67.4049H21.3845V70.774H10.6059C6.89446 70.774 4.79548 68.2919 4.06864 65.9687C3.3418 63.646 3.65176 60.4105 6.70107 58.2951L57.5 23.0527L84.3713 41.6942C85.1361 42.2245 86.1855 42.0349 86.7156 41.2704C87.2459 40.506 87.0561 39.4562 86.2917 38.9259L59.1846 20.1208V16.6589C59.1846 15.34 58.1993 14.2378 56.8958 14.0952C54.0258 13.7756 51.9335 11.2575 52.1323 8.36315C52.3154 5.70691 54.4577 3.56592 57.1153 3.38264C58.628 3.27955 60.0685 3.78627 61.1697 4.81431C62.2723 5.84325 62.8795 7.24032 62.8795 8.74791C62.8795 9.67847 63.6337 10.4325 64.564 10.4325C65.4944 10.4325 66.2486 9.67847 66.2486 8.74791C66.2486 6.33155 65.2352 4.0001 63.4684 2.35123C61.6769 0.679457 59.3371 -0.146435 56.8833 0.0215734C52.5568 0.319856 49.0695 3.80648 48.771 8.13158C48.4644 12.5912 51.5124 16.501 55.8152 17.3359V20.121L4.78065 55.527C1.03236 58.1271 -0.509144 62.6207 0.853342 66.975C2.21583 71.3295 6.04386 74.1432 10.6059 74.1432H21.3845V112.417C21.3845 113.841 22.5433 115 23.9675 115H70.8167C72.241 115 73.3998 113.841 73.3998 112.417L73.4 101.236H91.0321C92.4564 101.236 93.6151 100.077 93.6151 98.6527V74.1432H104.394C108.956 74.1432 112.784 71.3295 114.147 66.975C115.509 62.6207 113.968 58.1274 110.219 55.527V55.527ZM81.7613 58.3935H81.8226H81.8229H81.8231C85.4806 58.3935 88.6256 60.7173 89.7779 64.0357H73.8741C75.019 60.7724 78.1179 58.42 81.7613 58.3935ZM10.5269 64.0324C10.5188 64.0135 10.5093 63.9886 10.4992 63.956C10.4893 63.9245 10.4831 63.8994 10.479 63.8796C10.4941 63.8666 10.5147 63.8506 10.5417 63.8318L57.4356 31.2979C57.474 31.2716 57.5254 31.2716 57.5636 31.2979L104.458 63.8318C104.485 63.8504 104.505 63.8666 104.52 63.8796C104.516 63.8998 104.51 63.9259 104.499 63.9589C104.49 63.9901 104.481 64.0142 104.473 64.0321C104.453 64.0344 104.427 64.0359 104.394 64.0359H93.2834C92.0267 58.8084 87.3465 55.0289 81.8314 55.0248C81.8285 55.0248 81.8258 55.0244 81.8231 55.0244C81.7986 55.0244 81.7744 55.0244 81.7499 55.0246H32.2781C26.9135 55.0246 22.4453 58.9236 21.5507 64.0359H10.6059C10.5729 64.0357 10.5468 64.0342 10.5269 64.0324V64.0324ZM24.7537 111.631V90.4636H31.609C32.5393 90.4636 33.2936 89.7096 33.2936 88.779C33.2936 87.8485 32.5393 87.0944 31.609 87.0944H24.7537V65.9182C24.7537 61.7692 28.1291 58.3937 32.2781 58.3937H73.5783C71.3906 60.5356 70.0313 63.52 70.0313 66.8164L70.0311 87.0944H39.4706C38.5402 87.0944 37.786 87.8485 37.786 88.779C37.786 89.7096 38.5402 90.4636 39.4706 90.4636H70.0311L70.0308 111.631H24.7537ZM90.246 97.8665H73.4L73.4004 74.1432H90.246V97.8665Z" fill="#0F172A"/>
<path d="M34.5096 97.6019C35.4399 97.6019 36.1942 96.8479 36.1942 95.9174C36.1942 94.9868 35.4399 94.2328 34.5096 94.2328H30.6165C29.44 94.2328 28.4827 95.1901 28.4827 96.3666V105.774C28.4827 106.951 29.44 107.908 30.6165 107.908H34.5096C35.4399 107.908 36.1942 107.154 36.1942 106.223C36.1942 105.293 35.4399 104.539 34.5096 104.539H31.8518V102.755H34.1895C35.1199 102.755 35.8741 102.001 35.8741 101.071C35.8741 100.14 35.1199 99.386 34.1895 99.386H31.8518V97.6022H34.5096V97.6019Z" fill="#0F172A"/>
<path d="M49.6841 103.464C48.9712 102.867 47.9088 102.96 47.3109 103.673C47.2321 103.767 47.1474 103.854 47.0591 103.933C46.6077 104.335 46.0243 104.539 45.3254 104.539C43.3868 104.539 41.8095 102.961 41.8095 101.023C41.8095 99.0841 43.3868 97.5069 45.3254 97.5069C46.03 97.5069 46.7094 97.7142 47.29 98.1064C48.0611 98.627 49.1082 98.4242 49.6289 97.6533C50.1497 96.8823 49.9469 95.8351 49.1758 95.3145C48.0362 94.5445 46.7047 94.1378 45.3251 94.1378C41.5288 94.1378 38.4402 97.2264 38.4402 101.023C38.4402 104.819 41.5288 107.908 45.3251 107.908C46.8536 107.908 48.228 107.403 49.2994 106.449C49.5092 106.262 49.7084 106.057 49.8921 105.837C50.49 105.125 50.3968 104.062 49.6841 103.464Z" fill="#0F172A"/>
<path d="M59.4172 94.1854C55.6208 94.1854 52.5322 97.274 52.5322 101.07C52.5322 104.866 55.6208 107.955 59.4172 107.955C63.2135 107.955 66.3021 104.866 66.3021 101.07C66.3024 97.274 63.2137 94.1854 59.4172 94.1854ZM59.4172 104.586C57.4786 104.586 55.9014 103.009 55.9014 101.07C55.9014 99.1317 57.4786 97.5545 59.4172 97.5545C61.3558 97.5545 62.933 99.1317 62.933 101.07C62.933 103.009 61.356 104.586 59.4172 104.586Z" fill="#0F172A"/>
<path d="M44.9715 75.3219C45.2161 75.3219 45.4618 75.3093 45.7075 75.2911V83.251C45.7075 84.1816 46.4618 84.9356 47.3921 84.9356C48.3224 84.9356 49.0767 84.1816 49.0767 83.251V75.2911C49.3224 75.3093 49.5681 75.3219 49.8127 75.3219C52.4054 75.3216 54.9091 74.3037 56.7893 72.4235C59.1886 70.0242 60.1838 66.6102 59.4516 63.2902C59.2629 62.4365 58.5896 61.7631 57.7358 61.5749C54.4161 60.8427 51.0023 61.8379 48.603 64.2374C48.1479 64.6925 47.7439 65.1844 47.3921 65.705C47.0401 65.1844 46.6363 64.6925 46.181 64.2372C43.7817 61.8379 40.3681 60.8429 37.0484 61.5749C36.1947 61.7633 35.5211 62.4365 35.3324 63.2909C34.6002 66.6102 35.5954 70.0245 37.9949 72.4237C39.8756 74.3042 42.3788 75.3219 44.9715 75.3219V75.3219ZM56.2808 64.7459C56.4881 66.6978 55.8136 68.6346 54.4071 70.0411C53.0004 71.4478 51.0643 72.1214 49.1119 71.9148C49.0886 71.6951 49.078 71.4759 49.0769 71.2576V71.1356C49.0989 69.4555 49.7667 67.8383 50.9856 66.6196C52.3921 65.2129 54.3285 64.5393 56.2808 64.7459V64.7459ZM38.5036 64.7459C40.4548 64.5393 42.3923 65.2129 43.799 66.6194C45.0173 67.8377 45.6851 69.4537 45.7078 71.1325V71.2625C45.7064 71.4793 45.6959 71.6969 45.6727 71.9148C43.7202 72.1216 41.7841 71.4478 40.3773 70.0413C38.9708 68.6346 38.2963 66.6978 38.5036 64.7459V64.7459Z" fill="#0F172A"/>
</svg>
