<svg width="115" height="115" viewBox="0 0 115 115" fill="none" xmlns="http://www.w3.org/2000/svg">
<path d="M25.6258 105.895C42.2054 107.544 55.6976 107.564 55.8311 107.564H59.1687C59.3023 107.564 72.7945 107.544 89.3741 105.887C95.1849 105.306 99.472 103.012 102.119 99.0682C106.009 93.2691 105.154 85.404 104.156 82.0564C99.0348 64.8427 95.5203 25.2754 94.5674 13.5587C94.3027 10.0867 91.3959 7.41175 87.9139 7.43586H83.575C82.0831 7.43298 80.8666 8.6309 80.8465 10.1226L80.8232 10.9303V10.9654C80.1807 26.2566 68.2871 33.2239 57.4999 33.2239C46.7128 33.2239 34.8309 26.2616 34.1767 10.9954V10.942L34.1534 10.1326C34.1387 8.63503 32.9176 7.43028 31.4199 7.43586H27.081C23.6009 7.41439 20.6971 10.0886 20.4325 13.5587C19.4796 25.2754 15.9651 64.8427 10.8435 82.0564C9.84224 85.404 8.99115 93.2691 12.8811 99.0682C15.5279 103.012 19.815 105.306 25.6258 105.895V105.895ZM57.4999 36.5615C65.0773 36.6433 72.347 33.5683 77.5656 28.074C73.1767 39.0096 65.073 44.1495 57.4999 44.1495C49.9269 44.1495 41.8249 39.0096 37.4359 28.0773C42.6551 33.5695 49.9238 36.6431 57.4999 36.5615V36.5615ZM14.041 83.0076C19.1175 65.9608 22.5285 28.9518 23.7601 13.829C23.8933 12.0947 25.3466 10.7596 27.086 10.7735H30.8291V11.0321V11.0805C31.5484 36.0926 45.1508 47.4872 57.4999 47.4872C69.8491 47.4872 83.4715 36.0792 84.1641 11.0338L84.1708 10.7735H87.9139C89.6533 10.7596 91.1065 12.0947 91.2398 13.829C92.4714 28.9518 95.8824 65.9608 100.959 83.0076C101.635 85.2806 102.663 92.2645 99.3469 97.2092C97.2826 100.286 93.8148 102.089 89.0403 102.566C72.636 104.206 59.3006 104.226 59.1687 104.226H55.8311C55.6993 104.226 42.3756 104.208 25.9596 102.566C21.1851 102.089 17.7173 100.286 15.653 97.2092C12.3371 92.2645 13.3651 85.2806 14.041 83.0076V83.0076Z" fill="#0F172A"/>
<path d="M26.2933 99.2451C26.3487 99.2512 26.4045 99.2539 26.4602 99.2534C27.3819 99.2995 28.1664 98.5897 28.2125 97.6681C28.2585 96.7464 27.5487 95.9619 26.6271 95.9158C22.5619 95.5086 21.5356 93.9834 21.1985 93.481C19.5981 91.093 19.9235 86.639 20.4425 84.9051C20.6839 84.0297 20.1812 83.122 19.3112 82.8623C18.4411 82.6025 17.523 83.0861 17.2451 83.9505C16.5959 86.1199 16.0319 91.7689 18.4283 95.3434C18.979 96.1745 20.6628 98.6827 26.2933 99.2451V99.2451Z" fill="#0F172A"/>
<path d="M88.5396 99.2535C88.5953 99.254 88.651 99.2512 88.7064 99.2451C94.3353 98.6827 96.0191 96.1745 96.5732 95.3501C98.9696 91.7772 98.4089 86.1333 97.7564 83.9589C97.4784 83.0944 96.5604 82.6109 95.6903 82.8706C94.8202 83.1304 94.3175 84.0381 94.5589 84.9134C95.0779 86.6557 95.4034 91.1014 93.8013 93.4894C93.4675 93.9901 92.4396 95.517 88.3744 95.9242C87.4527 95.9703 86.7429 96.7548 86.789 97.6764C86.8351 98.5981 87.6196 99.3079 88.5412 99.2618L88.5396 99.2535Z" fill="#0F172A"/>
</svg>
