<svg width="115" height="115" viewBox="0 0 115 115" fill="none" xmlns="http://www.w3.org/2000/svg">
<path d="M26.9427 14.6412C39.3863 14.6412 42.9645 23.3675 43.7749 30.6877C43.8778 31.6167 44.6639 32.304 45.5774 32.304C45.6439 32.304 45.7115 32.3002 45.7793 32.2926C46.7761 32.1825 47.4947 31.285 47.3841 30.2882C47.012 26.9253 45.9291 22.0812 42.885 18.1002C39.2879 13.3951 33.9238 11.0097 26.9425 11.0097C25.9393 11.0097 25.1267 11.8226 25.1267 12.8254C25.1267 13.8281 25.9398 14.6412 26.9427 14.6412Z" fill="#0F172A"/>
<path d="M52.3076 27.8691C53.8464 28.3235 55.4735 28.5539 57.143 28.5539H57.1435C61.6954 28.5539 66.2559 26.855 69.9841 23.7706C75.1046 19.5356 77.918 13.1776 77.3253 7.17718C77.2527 6.44159 76.7413 5.82346 76.0324 5.61413C74.4932 5.15974 72.8661 4.92929 71.1966 4.92929C66.6451 4.92929 62.0846 6.62801 58.3566 9.71167C53.2359 13.9458 50.4225 20.3045 51.0148 26.3058C51.0875 27.0412 51.5985 27.6595 52.3076 27.8691ZM60.6712 12.5103C63.7503 9.96369 67.4881 8.56078 71.197 8.56078C72.0768 8.56078 72.9389 8.64096 73.7729 8.79953C73.769 13.2333 71.5059 17.8001 67.6698 20.972C64.5904 23.5193 60.8524 24.922 57.1432 24.922C56.2632 24.922 55.4016 24.8418 54.5676 24.6835C54.5717 20.2492 56.8353 15.6818 60.6712 12.5103Z" fill="#0F172A"/>
<path d="M113.184 62.1402H91.4468V53.0882C91.4468 52.0854 90.6339 51.2725 89.631 51.2725H87.7347C86.692 46.9106 84.8916 42.9539 82.3679 39.4951C81.8654 38.7523 75.8762 30.2154 66.0711 30.2154C63.9503 30.2154 61.7939 30.6255 59.6612 31.4341C51.0054 34.7165 47.4948 35.071 46.387 35.0712C46.2884 35.0712 46.2163 35.0678 46.1682 35.0649C45.7682 34.8913 45.6797 34.8913 45.2792 35.0649C45.2309 35.068 45.1588 35.0712 45.0598 35.0712C43.9525 35.0712 40.442 34.7168 31.7856 31.4341C29.6529 30.6255 27.4965 30.2154 25.3757 30.2154C15.5692 30.2154 9.58116 38.7525 9.07894 39.4953C6.555 42.9541 4.75498 46.9108 3.71212 51.2727H1.81574C0.812637 51.2727 0 52.0858 0 53.0885V74.8239C0 75.827 0.812861 76.6397 1.81574 76.6397H4.9176C7.68344 86.7361 12.4512 95.766 16.102 100.979C25.0657 113.78 34.2594 109.793 36.8638 108.265C38.7941 107.133 42.9031 106.448 44.4567 106.261H46.9901C48.5421 106.447 52.6464 107.129 54.583 108.265C55.7213 108.933 58.1183 110.071 61.2058 110.071C65.1807 110.071 70.2994 108.184 75.3443 100.979C77.6115 97.7412 80.3107 93.0312 82.6931 87.5069H99.884C100.887 87.5069 101.7 86.6941 101.7 85.6912C101.7 84.6883 100.887 83.8754 99.884 83.8754H84.1659C84.1986 83.7894 84.2278 83.7036 84.26 83.6176C84.4316 83.1601 84.6009 82.6989 84.7662 82.2338C84.8091 82.1134 84.8514 81.9932 84.8936 81.8728C85.0636 81.3877 85.2298 80.8982 85.392 80.4055C85.416 80.3327 85.441 80.2597 85.4645 80.1869C85.6361 79.6609 85.8017 79.1297 85.9634 78.596C85.9874 78.5169 86.0121 78.4374 86.0357 78.3584C86.1909 77.8397 86.3405 77.3175 86.4854 76.7926C86.4995 76.7418 86.5155 76.6904 86.5292 76.6397H89.6299C90.633 76.6397 91.4457 75.827 91.4457 74.8239V65.7719H95.273V73.3015C95.273 74.3046 96.0856 75.1172 97.0888 75.1172C98.0919 75.1172 98.9045 74.3044 98.9045 73.3015V65.7719H103.376V70.0528C103.376 71.0559 104.189 71.8685 105.192 71.8685C106.195 71.8685 107.008 71.0556 107.008 70.0528V65.7719H111.368V83.8757H105.531C104.528 83.8757 103.716 84.6883 103.716 85.6914C103.716 86.6945 104.528 87.5071 105.531 87.5071H113.184C114.187 87.5071 114.999 86.6945 114.999 85.6914V63.9562C115 62.9528 114.187 62.1402 113.184 62.1402ZM12.0321 41.6087C12.0485 41.586 12.0649 41.5629 12.0804 41.5395C12.1312 41.4627 17.2702 33.8468 25.3757 33.8468C27.0549 33.8468 28.7785 34.1775 30.4979 34.8297C39.3844 38.1996 43.4356 38.7027 45.0596 38.7027C45.3262 38.7027 45.5449 38.6896 45.7233 38.6706C45.9014 38.6896 46.1208 38.7027 46.3872 38.7027C48.0116 38.7025 52.0631 38.1993 60.9489 34.8297C62.6685 34.1777 64.3921 33.8468 66.0711 33.8468C74.1281 33.8468 79.3172 41.466 79.3666 41.5397C79.3819 41.5633 79.3981 41.586 79.4145 41.6087C81.5 44.4594 83.0347 47.7023 83.9913 51.2723H7.45546C8.41185 47.7023 9.9466 44.4596 12.0321 41.6087ZM87.8158 63.956V73.0079H87.8153H85.1312H80.5148H74.8679C73.8648 73.0079 73.0522 73.8206 73.0522 74.8237C73.0522 75.8268 73.8648 76.6394 74.8679 76.6394H80.5148H82.7555C82.7304 76.7268 82.7068 76.8137 82.6812 76.9011C82.6587 76.9781 82.6358 77.0547 82.6131 77.1315C82.371 77.9482 82.1131 78.7676 81.8389 79.5897C81.8243 79.633 81.8101 79.6761 81.7955 79.7195C81.2068 81.473 80.5458 83.2355 79.8158 84.9951C79.8131 85.0016 79.8116 85.0084 79.8091 85.0151C77.4352 90.7343 74.6691 95.6131 72.3705 98.8957C65.3849 108.87 58.8894 106.58 56.421 105.132C53.431 103.379 47.92 102.711 47.3012 102.641C47.2331 102.633 47.1648 102.629 47.0961 102.629H44.3511C44.2826 102.629 44.2144 102.633 44.1458 102.641C43.5273 102.711 38.0167 103.378 35.0269 105.132C32.5587 106.58 26.0628 108.87 19.0772 98.8957C15.7179 94.0985 11.3603 85.8947 8.68856 76.639H46.6219H68.6534C69.6565 76.639 70.4692 75.8263 70.4692 74.8232C70.4692 73.8201 69.6565 73.0075 68.6534 73.0075H46.6219H6.31512H3.63148V54.9035H5.17208H7.13674V61.9922C7.13674 62.9951 7.9496 63.8079 8.95248 63.8079C9.95536 63.8079 10.7682 62.9949 10.7682 61.9922V54.9037H15.2402V58.7435C15.2402 59.7466 16.0528 60.5592 17.0559 60.5592C18.059 60.5592 18.8717 59.7466 18.8717 58.7435V54.9037H23.3432V61.9922C23.3432 62.9951 24.1558 63.8079 25.1589 63.8079C26.1621 63.8079 26.9747 62.9949 26.9747 61.9922V54.9037H31.4467V58.7435C31.4467 59.7466 32.2593 60.5592 33.2624 60.5592C34.2655 60.5592 35.0781 59.7466 35.0781 58.7435V54.9037H39.5501V61.9922C39.5501 62.9951 40.3628 63.8079 41.3659 63.8079C42.369 63.8079 43.1816 62.9949 43.1816 61.9922V54.9037H47.6531V58.7435C47.6531 59.7466 48.4658 60.5592 49.4689 60.5592C50.472 60.5592 51.2846 59.7466 51.2846 58.7435V54.9037H55.7566V61.9922C55.7566 62.9951 56.5692 63.8079 57.5723 63.8079C58.5754 63.8079 59.3881 62.9949 59.3881 61.9922V54.9037H63.86V58.7435C63.86 59.7466 64.6729 60.5592 65.6758 60.5592C66.6787 60.5592 67.4915 59.7466 67.4915 58.7435V54.9037H71.9624V61.9922C71.9624 62.9951 72.7752 63.8079 73.7781 63.8079C74.781 63.8079 75.5939 62.9949 75.5939 61.9922V54.9037H80.0658V58.7435C80.0658 59.7466 80.8785 60.5592 81.8816 60.5592C82.8847 60.5592 83.6973 59.7466 83.6973 58.7435V54.9037H86.2745H87.8151V63.956H87.8158Z" fill="#0F172A"/>
</svg>
