<svg width="115" height="115" viewBox="0 0 115 115" fill="none" xmlns="http://www.w3.org/2000/svg">
<g clip-path="url(#clip0_1048_29744)">
<path d="M96.815 108.425L93.6297 38.3491C93.4767 34.9827 90.7173 32.3456 87.3473 32.3456H84.4524V10.714C84.4524 9.06748 83.715 7.53321 82.4294 6.50475C74.2415 -0.0453641 74.6116 0.109837 73.9007 0.0190971C73.7031 -0.00695694 41.3009 -0.00426169 41.1315 0.0141558C40.3899 0.0970346 40.6807 0.0168512 32.5707 6.50498C31.2851 7.53344 30.5477 9.0677 30.5477 10.7143V32.3459H27.6528C24.2831 32.3459 21.5234 34.9829 21.3704 38.3493L18.1851 108.426C18.0225 112.004 20.8718 115 24.4675 115H90.5326C94.1151 115 96.9783 112.017 96.815 108.425V108.425ZM80.8587 10.7143V32.3459H75.4682C75.4682 29.3157 75.4682 8.16862 75.4682 5.53828L80.1845 9.31118C80.613 9.65392 80.8587 10.1653 80.8587 10.7143ZM43.1253 32.3459V12.5807H71.8746V32.3459H43.1253ZM71.8746 8.98707H43.1253V3.59658H71.8746V8.98707ZM34.1412 10.7143C34.1412 10.1656 34.3869 9.65415 34.8154 9.31118L39.5317 5.53828V32.3459H34.1412V10.7143ZM90.5326 111.406H24.4675C22.9355 111.406 21.7051 110.131 21.7749 108.589L24.9603 38.5123C25.0259 37.0697 26.2084 35.9395 27.6526 35.9395H87.3471C88.7913 35.9395 89.9738 37.0697 90.0394 38.5123L93.2247 108.589C93.2946 110.123 92.0736 111.406 90.5326 111.406Z" fill="#0F172A"/>
<path d="M82.6557 57.5015H75.4683C67.505 57.5015 60.6274 62.2357 57.5001 69.0371C54.3727 62.2359 47.4951 57.5015 39.5318 57.5015H32.3444C31.3521 57.5015 30.5476 58.306 30.5476 59.2983V64.6888C30.5476 75.5872 39.4143 84.4539 50.3127 84.4539H55.7032V91.6412C55.7032 92.6335 56.5078 93.4381 57.5001 93.4381C58.4924 93.4381 59.2969 92.6335 59.2969 91.6412V84.4539H64.6874C75.5858 84.4539 84.4525 75.5872 84.4525 64.6888V59.2983C84.4525 58.3058 83.6482 57.5015 82.6557 57.5015ZM34.1413 64.6888V61.0951H39.5318C48.4487 61.0951 55.7032 68.3496 55.7032 77.2666V78.6973L44.3086 68.7272C43.5616 68.0733 42.4267 68.1493 41.7731 68.8961C41.1195 69.6429 41.1952 70.778 41.942 71.4316L52.7178 80.8602H50.3127C41.3957 80.8602 34.1413 73.6058 34.1413 64.6888V64.6888ZM80.8588 64.6888C80.8588 73.6058 73.6044 80.8602 64.6874 80.8602H62.2823L73.0581 71.4316C73.8049 70.7782 73.8806 69.6431 73.227 68.8961C72.5737 68.1493 71.4385 68.0733 70.6915 68.7272L59.2969 78.6973V77.2666C59.2969 68.3496 66.5514 61.0951 75.4683 61.0951H80.8588V64.6888Z" fill="#0F172A"/>
</g>
<defs>
<clipPath id="clip0_1048_29744">
<rect width="115" height="115" fill="white"/>
</clipPath>
</defs>
</svg>
