<svg width="115" height="115" viewBox="0 0 115 115" fill="none" xmlns="http://www.w3.org/2000/svg">
<path d="M97.7893 57.7256L97.4096 56.458H100.316C103.45 56.458 106 53.9083 106 50.7744C106 47.6405 103.45 45.0908 100.316 45.0908H94.0038L90.9203 34.799C89.4035 29.7364 84.8337 26.335 79.5489 26.335H70.2881C69.2419 26.335 68.3935 27.1831 68.3935 28.2295C68.3935 29.2758 69.2419 30.124 70.2881 30.124H79.5489C83.147 30.124 86.2582 32.4397 87.2907 35.8864L93.454 56.458H86.2093V53.2373C86.2093 48.9602 83.1779 45.3792 79.1509 44.5266C79.7556 43.4771 80.1036 42.2617 80.1036 40.9659C80.1036 37.0199 76.8935 33.8098 72.9476 33.8098C69.0017 33.8098 65.7916 37.0201 65.7916 40.966C65.7916 42.2619 66.1396 43.4772 66.7444 44.5268C62.7175 45.3794 59.6861 48.9604 59.6861 53.2375V56.4582H55.3143V53.2375C55.3143 48.9604 52.2828 45.3794 48.2558 44.5268C48.8605 43.4772 49.2086 42.2619 49.2086 40.966C49.2086 37.0201 45.9985 33.81 42.0526 33.81C38.1066 33.81 34.8965 37.0203 34.8965 40.9662C34.8965 42.2621 35.2446 43.4774 35.8493 44.527C31.8225 45.3795 28.791 48.9606 28.791 53.2377V56.4584H21.5463L27.7096 35.8868C28.7421 32.4403 31.8533 30.1244 35.4514 30.1244H55.1318C56.178 30.1244 57.0264 29.2762 57.0264 28.2299C57.0264 27.1835 56.178 26.3353 55.1318 26.3353H35.4511C30.1661 26.3353 25.5963 29.7368 24.0797 34.7993L20.9962 45.0908H14.6836C11.5497 45.0908 9 47.6405 9 50.7744C9 53.9083 11.5497 56.458 14.6836 56.458H17.5904L17.2105 57.7256C12.3721 59.9377 9 64.8203 9 70.479V85.267C9 89.963 12.8203 93.7833 17.5163 93.7833H19.9974V99.5226C19.9974 102.833 22.6906 105.526 26.0011 105.526H29.9075C33.2182 105.526 35.9112 102.833 35.9112 99.5226V93.7833H42.3437C43.3899 93.7833 44.2383 92.9349 44.2383 91.8888C44.2383 90.8426 43.3899 89.9942 42.3437 89.9942H34.0169H21.8919H17.5163C14.9096 89.9942 12.7891 87.8735 12.7891 85.2668V70.4788C12.7891 64.8386 17.3778 60.2499 23.018 60.2499H91.982C97.6222 60.2499 102.211 64.8386 102.211 70.4788V85.2668C102.211 87.8735 100.09 89.994 97.4837 89.994H93.1081H80.9831H57.5241C56.4779 89.994 55.6295 90.8424 55.6295 91.8886C55.6295 92.9347 56.4779 93.7831 57.5241 93.7831H79.0885V99.5224C79.0885 102.833 81.7818 105.526 85.0923 105.526H88.9986C92.3093 105.526 95.0024 102.833 95.0024 99.5224V93.7831H97.4835C102.179 93.7831 106 89.9628 106 85.2668V70.4788C106 64.8203 102.628 59.9377 97.7893 57.7256ZM32.1224 93.7833V99.5226C32.1224 100.744 31.1289 101.737 29.9077 101.737H26.0011C24.7799 101.737 23.7864 100.744 23.7864 99.5226V93.7833H32.1224ZM100.316 48.8799C101.361 48.8799 102.211 49.7298 102.211 50.7744C102.211 51.8191 101.361 52.6689 100.316 52.6689H96.2744L95.1392 48.8799H100.316ZM72.9476 37.5989C74.8043 37.5989 76.3146 39.1094 76.3146 40.966C76.3146 42.8227 74.8041 44.333 72.9476 44.333C71.0912 44.333 69.5807 42.8225 69.5807 40.9659C69.5807 39.1092 71.091 37.5989 72.9476 37.5989ZM63.475 53.2373C63.475 50.4167 65.7696 48.1221 68.5902 48.1221H77.305C80.1256 48.1221 82.4203 50.4167 82.4203 53.2373V56.458H63.475V53.2373ZM42.0524 37.5989C43.909 37.5989 45.4193 39.1094 45.4193 40.966C45.4193 42.8227 43.9088 44.333 42.0524 44.333C40.1959 44.333 38.6854 42.8225 38.6854 40.9659C38.6852 39.1092 40.1957 37.5989 42.0524 37.5989ZM32.5797 53.2373C32.5797 50.4167 34.8744 48.1221 37.6949 48.1221H46.4098C49.2304 48.1221 51.525 50.4167 51.525 53.2373V56.458H32.5797V53.2373V53.2373ZM14.6836 52.6689C13.6389 52.6689 12.7891 51.8191 12.7891 50.7744C12.7891 49.7298 13.6389 48.8799 14.6836 48.8799H19.861L18.7258 52.6689H14.6836ZM91.2135 99.5226C91.2135 100.744 90.22 101.737 88.9988 101.737H85.0925C83.8713 101.737 82.8778 100.744 82.8778 99.5226V93.7833H91.2137V99.5226H91.2135Z" fill="#0F172A"/>
<path d="M49.9219 89.995C49.4236 89.995 48.9348 90.196 48.5824 90.5482C48.2301 90.9025 48.0273 91.3894 48.0273 91.8895C48.0273 92.3878 48.2299 92.8747 48.5824 93.2273C48.9348 93.5815 49.4236 93.7841 49.9219 93.7841C50.4201 93.7841 50.9089 93.5815 51.2611 93.2273C51.6135 92.8749 51.8164 92.3878 51.8164 91.8895C51.8164 91.3894 51.6137 90.9025 51.2611 90.5482C50.9089 90.1958 50.4201 89.995 49.9219 89.995Z" fill="#0F172A"/>
<path d="M62.71 30.124C63.2082 30.124 63.697 29.9213 64.0492 29.5689C64.4016 29.2165 64.6045 28.7278 64.6045 28.2295C64.6045 27.7312 64.4018 27.2424 64.0492 26.8901C63.697 26.5377 63.2082 26.335 62.71 26.335C62.2117 26.335 61.7229 26.5377 61.3705 26.8901C61.0181 27.2424 60.8154 27.7312 60.8154 28.2295C60.8154 28.7278 61.018 29.2165 61.3705 29.5689C61.7231 29.9213 62.2117 30.124 62.71 30.124Z" fill="#0F172A"/>
<path d="M74.5508 76.731V72.6547C74.5508 69.809 72.2355 67.4937 69.3897 67.4937H45.6103C42.7645 67.4937 40.4492 69.809 40.4492 72.6547V76.731C40.4492 79.5768 42.7645 81.8921 45.6103 81.8921H69.3897C72.2355 81.8921 74.5508 79.5768 74.5508 76.731ZM70.7617 72.6547V76.731C70.7617 77.4875 70.1462 78.103 69.3897 78.103H66.9726V71.2827H69.3897C70.1462 71.2827 70.7617 71.8982 70.7617 72.6547ZM59.3945 71.2827H63.1836V78.103H59.3945V71.2827ZM55.6055 78.103H51.8164V71.2827H55.6055V78.103ZM44.2383 76.731V72.6547C44.2383 71.8982 44.8538 71.2827 45.6103 71.2827H48.0273V78.103H45.6103C44.8538 78.103 44.2383 77.4875 44.2383 76.731Z" fill="#0F172A"/>
<path d="M18.1028 74.6929C18.1028 79.7073 22.1821 83.7866 27.1965 83.7866C32.211 83.7866 36.2903 79.7073 36.2903 74.6929C36.2903 69.6784 32.211 65.5991 27.1965 65.5991C22.1821 65.5991 18.1028 69.6784 18.1028 74.6929ZM32.5012 74.6929C32.5012 77.6178 30.1215 79.9976 27.1965 79.9976C24.2716 79.9976 21.8918 77.6178 21.8918 74.6929C21.8918 71.7679 24.2716 69.3882 27.1965 69.3882C30.1215 69.3882 32.5012 71.7679 32.5012 74.6929Z" fill="#0F172A"/>
<path d="M87.8035 83.7866C92.8179 83.7866 96.8972 79.7073 96.8972 74.6929C96.8972 69.6784 92.8179 65.5991 87.8035 65.5991C82.789 65.5991 78.7097 69.6784 78.7097 74.6929C78.7097 79.7073 82.789 83.7866 87.8035 83.7866ZM87.8035 69.3882C90.7284 69.3882 93.1082 71.7679 93.1082 74.6929C93.1082 77.6178 90.7284 79.9976 87.8035 79.9976C84.8785 79.9976 82.4988 77.6178 82.4988 74.6929C82.4988 71.7679 84.8785 69.3882 87.8035 69.3882Z" fill="#0F172A"/>
<path d="M66.5547 22.5459H100.821C101.868 22.5459 102.716 21.6977 102.716 20.6514C102.716 14.4879 97.7017 9.47363 91.5382 9.47363C88.0536 9.47363 84.8246 11.0823 82.7275 13.7721C81.8292 13.4004 80.8597 13.2038 79.8797 13.2038C76.4275 13.2038 73.5165 15.5647 72.6763 18.7568H66.5547C65.5085 18.7568 64.6602 19.605 64.6602 20.6514C64.6602 21.6977 65.5085 22.5459 66.5547 22.5459ZM79.8797 16.9928C80.7146 16.9928 81.5016 17.2677 82.155 17.788C82.5957 18.1386 83.1693 18.2752 83.721 18.1604C84.2723 18.0456 84.7441 17.6913 85.0084 17.1938C86.2955 14.7688 88.7978 13.2625 91.5384 13.2625C94.9579 13.2625 97.8421 15.5975 98.681 18.7566H76.7509C77.3931 17.7001 78.5554 16.9928 79.8797 16.9928Z" fill="#0F172A"/>
<path d="M18.1394 22.5459H52.406C53.4521 22.5459 54.3005 21.6977 54.3005 20.6514C54.3005 14.4879 49.2861 9.47363 43.1228 9.47363C39.6382 9.47363 36.4091 11.0821 34.3121 13.7719C33.4137 13.4002 32.4442 13.2038 31.4642 13.2038C28.012 13.2038 25.101 15.5647 24.2608 18.7568H18.1394C17.0932 18.7568 16.2449 19.605 16.2449 20.6514C16.2449 21.6977 17.0932 22.5459 18.1394 22.5459ZM31.4642 16.9928C32.2993 16.9928 33.0861 17.2677 33.7393 17.7878C34.18 18.1386 34.7537 18.2756 35.3056 18.1604C35.8569 18.0458 36.3286 17.6915 36.5929 17.1938C37.88 14.7688 40.3823 13.2625 43.123 13.2625C46.5424 13.2625 49.4266 15.5975 50.2655 18.7566H28.3356C28.9776 17.7001 30.1399 16.9928 31.4642 16.9928Z" fill="#0F172A"/>
</svg>
