<svg width="115" height="115" viewBox="0 0 115 115" fill="none" xmlns="http://www.w3.org/2000/svg">
<path d="M82.2618 23H32.7382C28.471 23 25.0001 26.4677 25.0001 30.731V96.0841C25.0001 96.9378 25.6925 97.6303 26.5477 97.6303H35.1926L25.4531 107.36C25.0106 107.803 24.8784 108.467 25.1178 109.046C25.3572 109.623 25.9222 110 26.5477 110H88.4523C89.0778 110 89.6428 109.623 89.8822 109.046C90.1216 108.467 89.9894 107.803 89.5469 107.36L83.3564 101.176L79.8074 97.6303H88.4523C89.3075 97.6303 89.9999 96.9378 89.9999 96.0841V30.731C89.9999 26.4677 86.529 23 82.2618 23ZM86.9047 30.731V66.7062H83.8094V26.3582C85.6109 26.9968 86.9047 28.7153 86.9047 30.731ZM80.7142 35.3697H34.2858V26.0924H80.7142V35.3697ZM34.2858 38.4621H80.7142V66.7062H70.6321C67.3838 62.7657 62.641 60.5213 57.5 60.5213C52.359 60.5213 47.6162 62.7657 44.3679 66.7062H34.2858V38.4621ZM31.1906 26.3582V66.7062H28.0954V30.731C28.0954 28.7153 29.3891 26.9968 31.1906 26.3582ZM30.2838 106.908L33.379 103.815H81.621L84.7162 106.908H30.2838ZM78.5258 100.723H36.4742L39.5695 97.6303H75.4306L78.5258 100.723ZM28.0954 94.5379V88.3531H32.7382C33.5934 88.3531 34.2858 87.6605 34.2858 86.8069C34.2858 85.9532 33.5934 85.2607 32.7382 85.2607H28.0954V69.7986H45.1191C45.6051 69.7986 46.0638 69.5699 46.3564 69.1809C49.0163 65.6431 53.078 63.6137 57.5 63.6137C61.922 63.6137 65.9837 65.6431 68.6436 69.1809C68.9362 69.5699 69.3949 69.7986 69.8809 69.7986H86.9047V85.2607H38.9286C38.0734 85.2607 37.381 85.9532 37.381 86.8069C37.381 87.6605 38.0734 88.3531 38.9286 88.3531H86.9047V94.5379H28.0954Z" fill="#0F172A"/>
<path d="M40 77.5C40 75.0188 37.9813 73 35.5 73C33.0188 73 31 75.0188 31 77.5C31 79.9813 33.0188 82 35.5 82C37.9813 82 40 79.9813 40 77.5ZM35.5 79C34.6727 79 34 78.3273 34 77.5C34 76.6727 34.6727 76 35.5 76C36.3273 76 37 76.6727 37 77.5C37 78.3273 36.3273 79 35.5 79Z" fill="#0F172A"/>
<path d="M79 82C81.7569 82 84 79.9813 84 77.5C84 75.0188 81.7569 73 79 73C76.2431 73 74 75.0188 74 77.5C74 79.9813 76.2431 82 79 82ZM79 76C79.9193 76 80.6667 76.6727 80.6667 77.5C80.6667 78.3273 79.9193 79 79 79C78.0807 79 77.3333 78.3273 77.3333 77.5C77.3333 76.6727 78.0807 76 79 76Z" fill="#0F172A"/>
<path d="M38.5385 33H75.4615C76.3117 33 77 32.3281 77 31.5C77 30.6719 76.3117 30 75.4615 30H38.5385C37.6883 30 37 30.6719 37 31.5C37 32.3281 37.6883 33 38.5385 33Z" fill="#0F172A"/>
<path d="M38.5385 8H43.9231L52.6923 19.4C52.9824 19.7781 53.4391 20 53.9231 20H60.0769C60.5609 20 61.0176 19.7781 61.3077 19.4L70.0769 8H75.4615C76.3117 8 77 7.32813 77 6.5C77 5.67188 76.3117 5 75.4615 5H38.5385C37.6883 5 37 5.67188 37 6.5C37 7.32813 37.6883 8 38.5385 8ZM59.3077 17H54.6923L47.7692 8H66.2308L59.3077 17Z" fill="#0F172A"/>
<path d="M20.5 36C19.6711 36 19 36.6719 19 37.5V49.5C19 50.3281 19.6711 51 20.5 51C21.3289 51 22 50.3281 22 49.5V37.5C22 36.6719 21.3289 36 20.5 36Z" fill="#0F172A"/>
<path d="M94.5 36C93.6711 36 93 36.6719 93 37.5V49.5C93 50.3281 93.6711 51 94.5 51C95.3289 51 96 50.3281 96 49.5V37.5C96 36.6719 95.3289 36 94.5 36Z" fill="#0F172A"/>
</svg>
