<svg width="115" height="115" viewBox="0 0 115 115" fill="none" xmlns="http://www.w3.org/2000/svg">
<path d="M79.1163 11H27.9149C27.5242 10.9986 27.1473 11.1439 26.8592 11.407C26.5711 11.6701 26.3929 12.0317 26.3601 12.4198C25.1602 26.5236 24.7537 40.6833 25.1427 54.8324C25.6091 70.6905 26.542 86.7624 27.9149 102.585C27.9488 102.972 28.1275 103.333 28.4155 103.595C28.7035 103.857 29.0798 104.001 29.4697 104H66.7851C67.175 104.001 67.5513 103.857 67.8393 103.595C68.1273 103.333 68.306 102.972 68.3399 102.585C68.839 96.8793 69.2806 91.1148 69.6537 85.4573C69.6671 85.2538 69.6401 85.0496 69.5743 84.8565C69.5085 84.6633 69.4052 84.4849 69.2703 84.3316C69.1354 84.1782 68.9715 84.0529 68.788 83.9627C68.6045 83.8724 68.4049 83.8192 68.2007 83.8058C67.9966 83.7925 67.7917 83.8194 67.598 83.885C67.4042 83.9505 67.2253 84.0535 67.0715 84.188C66.9177 84.3225 66.7919 84.4859 66.7014 84.6689C66.6109 84.8518 66.5575 85.0507 66.5441 85.2543C66.4726 86.33 66.3886 87.4243 66.314 88.5H29.9377C29.1479 77.2485 28.5819 65.9444 28.2585 54.7441C28.1652 51.5521 28.1186 48.3374 28.1186 45.1H68.1393C68.1393 48.3343 68.0922 51.5485 67.9978 54.7425C67.8206 60.8387 67.5749 66.9705 67.2671 72.969C67.2566 73.1724 67.2864 73.3758 67.3548 73.5676C67.4232 73.7595 67.5289 73.9361 67.6658 74.0872C67.8027 74.2383 67.9681 74.3611 68.1526 74.4485C68.3371 74.5359 68.537 74.5862 68.741 74.5965C69.1502 74.6068 69.5477 74.4601 69.8516 74.1867C70.1554 73.9132 70.3422 73.5339 70.3736 73.1271C70.6845 67.1069 70.9286 60.9518 71.1074 54.8371C71.4308 43.55 71.1867 31.9684 70.4435 20.3H77.9875C78.2589 20.3002 78.5268 20.3617 78.7711 20.4797C79.0154 20.5978 79.2298 20.7693 79.3982 20.9816C79.5665 21.1939 79.6846 21.4414 79.7435 21.7056C79.8023 21.9698 79.8005 22.2438 79.7382 22.5072C76.248 37.3625 76.3546 52.8325 80.0491 67.6385C80.3415 68.837 81.0653 69.8866 82.0829 70.588C83.1005 71.2894 84.3411 71.5938 85.5691 71.4433C86.797 71.2927 87.9267 70.6978 88.7435 69.7715C89.5604 68.8452 90.0075 67.652 89.9999 66.4187V21.85C89.9962 18.9735 88.8483 16.2159 86.8081 14.182C84.7678 12.148 82.0016 11.0037 79.1163 11V11ZM66.0948 91.6C65.8646 94.7 65.619 97.8 65.3578 100.9H30.897C30.6327 97.8093 30.3979 94.7 30.1694 91.6H66.0948ZM68.116 42H28.1575C28.1823 38.4019 28.2611 34.7853 28.3938 31.15H67.8859C68.0072 34.7853 68.0813 38.4019 68.1082 42H68.116ZM66.9079 14.1C67.2842 18.7655 67.5423 23.414 67.746 28.05H28.5089C28.7141 23.414 28.9753 18.7655 29.3469 14.1H66.9079ZM86.8903 66.4187C86.8882 66.8893 86.714 67.3429 86.4004 67.6946C86.0867 68.0463 85.6551 68.2718 85.1865 68.3288C84.718 68.3859 84.2446 68.2706 83.8553 68.0045C83.4659 67.7385 83.1873 67.3399 83.0717 66.8837C79.4962 52.5583 79.3928 37.5902 82.7701 23.2171C82.9393 22.4983 82.9433 21.7507 82.7818 21.0302C82.6204 20.3096 82.2976 19.6348 81.8377 19.0561C81.3777 18.4775 80.7925 18.0099 80.1258 17.6885C79.4591 17.3671 78.7281 17.2001 77.9875 17.2H70.2259C70.1512 16.1662 70.0906 15.1339 70.0082 14.1H79.1163C81.1773 14.1025 83.1532 14.9198 84.6106 16.3726C86.068 17.8255 86.8878 19.7953 86.8903 21.85V66.4187Z" fill="#0F172A"/>
<path d="M68.5 81C69.3284 81 70 80.3284 70 79.5C70 78.6716 69.3284 78 68.5 78C67.6716 78 67 78.6716 67 79.5C67 80.3284 67.6716 81 68.5 81Z" fill="#0F172A"/>
</svg>
