<svg width="115" height="115" viewBox="0 0 115 115" fill="none" xmlns="http://www.w3.org/2000/svg">
<path d="M96.875 74.9645C89.6379 74.9645 83.75 80.8041 83.75 87.9818C83.75 95.1596 89.6379 100.999 96.875 100.999C104.112 100.999 110 95.1596 110 87.9818C110 80.8041 104.112 74.9645 96.875 74.9645ZM96.875 97.5279C91.5677 97.5279 87.25 93.2456 87.25 87.9818C87.25 82.718 91.5677 78.4358 96.875 78.4358C102.182 78.4358 106.5 82.718 106.5 87.9818C106.5 93.2456 102.182 97.5279 96.875 97.5279ZM96.875 69.3236C97.9764 69.3236 98.8048 68.3248 98.5922 67.253L90.1841 24.8478H101.906C104.922 24.8478 107.375 22.4146 107.375 19.4239C107.375 16.4332 104.922 14 101.906 14H86.5938C85.4923 14 84.6639 14.9989 84.8766 16.0706L89.6998 40.3959L88.662 40.8035C83.4389 42.8549 80.5066 48.4831 81.8408 53.8951L83.6174 61.1021C83.813 61.8947 84.5283 62.426 85.3163 62.426C86.4511 62.426 87.287 61.3709 87.0175 60.2777L85.2408 53.0706C84.3192 49.3338 86.3442 45.4475 89.9505 44.0312L90.3864 43.8598L94.768 65.9576C84.8696 66.9508 77 74.863 76.1666 84.7277H39.2711C38.3782 73.9324 29.2357 65.4187 18.125 65.4187C17.1586 65.4187 16.375 66.1958 16.375 67.1543C16.375 68.1128 17.1586 68.89 18.125 68.89C27.3046 68.89 34.8747 75.8497 35.7567 84.7277H30.8322C29.3596 79.0669 24.1492 74.9647 18.125 74.9647C10.8879 74.9647 5 80.8043 5 87.982C5 99.7927 19.6663 105.461 27.7421 96.8405C28.3999 96.1385 28.3592 95.04 27.6511 94.3876C26.943 93.735 25.8359 93.7754 25.1779 94.4777C19.2559 100.799 8.5 96.6464 8.5 87.9818C8.5 82.718 12.8177 78.4358 18.125 78.4358C22.2298 78.4358 25.8191 81.0317 27.1736 84.7275H18.125C16.3282 84.7275 14.8438 86.182 14.8438 87.9818C14.8438 89.7763 16.3157 91.2362 18.125 91.2362C19.8603 91.2362 21.2818 89.8921 21.3951 88.1988H75.8636C75.0899 91.0687 72.4468 93.1888 69.3125 93.1888H46.125C45.1586 93.1888 44.375 93.9659 44.375 94.9244C44.375 95.8829 45.1586 96.66 46.125 96.66H69.3125C74.9816 96.66 79.5938 92.0857 79.5938 86.4631C79.5938 77.0126 87.346 69.3236 96.875 69.3236V69.3236ZM88.7215 17.4713H101.906C102.992 17.4713 103.875 18.3471 103.875 19.4239C103.875 20.5006 102.992 21.3765 101.906 21.3765H89.4959L88.7215 17.4713ZM16.5918 48.6176L20.3418 40.8072C20.7577 39.9418 21.8022 39.5741 22.6743 39.9865C23.5469 40.3985 23.9175 41.4342 23.5021 42.2997L20.9436 47.6283H25.2969C26.5817 47.6283 27.4295 48.9593 26.877 50.1101L23.1269 57.9205C22.827 58.5451 22.1997 58.9104 21.5456 58.9104C20.274 58.9104 19.4099 57.5877 19.9667 56.4282L22.5252 51.0996H18.1718C16.8873 51.0994 16.0392 49.7684 16.5918 48.6176ZM96.875 84.7275C95.0657 84.7275 93.5938 86.1874 93.5938 87.9818C93.5938 89.7763 95.0657 91.2362 96.875 91.2362C98.6843 91.2362 100.156 89.7763 100.156 87.9818C100.156 86.1874 98.6843 84.7275 96.875 84.7275ZM96.875 88.1988C96.5856 88.1988 96.5856 87.7649 96.875 87.7649C97.1644 87.7649 97.1644 88.1988 96.875 88.1988Z" fill="#0F172A"/>
</svg>
