<svg width="84" height="101" viewBox="0 0 84 101" fill="none" xmlns="http://www.w3.org/2000/svg">
<g filter="url(#filter0_d_994_25995)">
<path d="M19 85L27.7963 65.5L27.3333 65L44 72.5L33.3519 93L30.1111 85H19Z" fill="white"/>
</g>
<g filter="url(#filter1_d_994_25995)">
<path d="M66 85L57.2037 65.5L57.6667 65L41 72.5L51.6481 93L54.8889 85H66Z" fill="white"/>
</g>
<path d="M42 62.5878L47.4133 60L57.3329 80.7509L53.6263 80.0448L51.9197 83.3387L42 62.5878Z" fill="#FFAB2D"/>
<path d="M42.333 62.5877L36.9197 60L27.0001 80.7509L30.7067 80.0448L32.4133 83.3386L42.333 62.5877Z" fill="#FFAB2D"/>
<g filter="url(#filter2_d_994_25995)">
<path d="M38.185 3.14279C40.4008 1.31741 43.5992 1.31741 45.815 3.14279L46.6456 3.82704C48.1555 5.07088 50.1769 5.50055 52.0622 4.97837L53.0993 4.69111C55.866 3.92479 58.7878 5.22569 60.0696 7.7945L60.5501 8.75744C61.4235 10.5079 63.0954 11.7226 65.0301 12.0123L66.0944 12.1718C68.9336 12.597 71.0737 14.9739 71.1998 17.8419L71.2471 18.917C71.3331 20.8714 72.3664 22.6611 74.0159 23.7127L74.9233 24.2912C77.3441 25.8345 78.3324 28.8764 77.2811 31.5478L76.887 32.5492C76.1707 34.3695 76.3867 36.4248 77.4659 38.0564L78.0596 38.954C79.6433 41.3485 79.309 44.5293 77.262 46.5422L76.4947 47.2967C75.0998 48.6683 74.4612 50.6338 74.7835 52.5633L74.9608 53.6247C75.4337 56.4564 73.8345 59.2262 71.1458 60.2325L70.1379 60.6097C68.3057 61.2954 66.9229 62.8311 66.4325 64.7249L66.1627 65.7667C65.443 68.5459 62.8555 70.4258 59.9899 70.2515L58.9158 70.1861C56.9632 70.0673 55.0752 70.9079 53.8569 72.4385L53.1868 73.2805C51.3989 75.5266 48.2704 76.1916 45.7235 74.8668L44.7688 74.3702C43.0333 73.4675 40.9667 73.4675 39.2312 74.3702L38.2765 74.8668C35.7296 76.1916 32.6011 75.5266 30.8132 73.2805L30.1431 72.4385C28.9248 70.9079 27.0368 70.0673 25.0842 70.1861L24.0101 70.2515C21.1445 70.4258 18.557 68.5459 17.8373 65.7667L17.5675 64.7249C17.0771 62.8311 15.6943 61.2954 13.8621 60.6097L12.8542 60.2325C10.1655 59.2262 8.56633 56.4564 9.03925 53.6247L9.21653 52.5633C9.53878 50.6338 8.90017 48.6683 7.50532 47.2967L6.73799 46.5422C4.691 44.5293 4.35668 41.3485 5.94044 38.954L6.53413 38.0564C7.61332 36.4248 7.82934 34.3695 7.11296 32.5492L6.71887 31.5478C5.66755 28.8764 6.6559 25.8345 9.07666 24.2912L9.9841 23.7127C11.6336 22.6611 12.6669 20.8714 12.7529 18.917L12.8002 17.8419C12.9263 14.9739 15.0664 12.597 17.9056 12.1718L18.9699 12.0123C20.9046 11.7226 22.5765 10.5079 23.4499 8.75744L23.9304 7.7945C25.2122 5.22569 28.134 3.92479 30.9007 4.69111L31.9378 4.97837C33.8231 5.50055 35.8445 5.07088 37.3544 3.82704L38.185 3.14279Z" fill="white"/>
</g>
<circle cx="42" cy="39" r="24" fill="#45D882"/>
<circle cx="42" cy="39" r="30" fill="#FFAB2D"/>
<circle cx="42" cy="39" r="25" fill="white"/>
<circle cx="42" cy="39" r="20" fill="white"/>
<path d="M61.7006 38.5633C61.6639 34.3791 60.3117 30.2846 57.8342 26.8979" stroke="black" stroke-linecap="round" stroke-linejoin="round"/>
<path d="M41.4688 45.375H42.5312V46.4375H41.4688V45.375Z" fill="black"/>
<path d="M41.4688 47.5H42.5312V48.5625H41.4688V47.5Z" fill="black"/>
<path d="M41.4688 49.625H42.5312V50.6875H41.4688V49.625Z" fill="black"/>
<path d="M41.4688 51.75H42.5312V52.8125H41.4688V51.75Z" fill="black"/>
<path d="M36.6875 50.475L38.2812 51.2719L39.875 50.475V47.5H36.6875V50.475ZM37.75 48.5625H38.8125V49.8375L38.2812 50.1031L37.75 49.8375V48.5625Z" fill="black"/>
<path d="M51.4031 41.2844L46.8344 39.85C47.6844 39.2125 48.2156 38.2562 48.3219 37.1937L49.5969 36.5562C50.1281 36.2906 50.5 35.7594 50.5 35.1219V34.4844C50.5 33.7406 50.0219 33.1031 49.2781 32.9437L48.375 32.7312V31.5625H51.0312C51.9344 31.5625 52.625 30.8719 52.625 29.9687C52.625 29.0656 51.9344 28.375 51.0312 28.375H48.3219L47.95 25.5062C47.8438 24.7094 47.1531 24.125 46.3563 24.125H44.2844L43.5938 23.5937C42.6375 22.9031 41.3625 22.9031 40.4062 23.5937L39.7156 24.125H37.6437C36.8469 24.125 36.1562 24.7094 36.05 25.5062L35.6781 28.375H32.9688C32.0656 28.375 31.375 29.0656 31.375 29.9687C31.375 30.8719 32.0656 31.5625 32.9688 31.5625H35.625V32.7312L34.7219 32.9437C33.9781 33.1562 33.5 33.7937 33.5 34.5375V35.175C33.5 35.7594 33.8188 36.3437 34.4031 36.6094L35.6781 37.2469C35.7844 38.3094 36.3156 39.2656 37.1656 39.9031L32.5969 41.3375C30.6313 41.9219 29.25 43.7281 29.25 45.8531V54.9375H54.75V45.8531C54.75 43.7281 53.3688 41.9219 51.4031 41.2844ZM53.05 43.7812L51.9875 45.1625L50.075 43.6219L50.7656 42.1875L51.0312 42.2937C51.8813 42.5594 52.5719 43.0375 53.05 43.7812V43.7812ZM47.4719 41.1781L45.6125 44.525L43.1156 42.0281C43.8594 41.8687 44.55 41.55 45.1344 41.125L45.7719 40.6469L47.4719 41.1781ZM49.0125 34.0062C49.225 34.0594 49.4375 34.2719 49.4375 34.5375V35.175C49.4375 35.3875 49.3313 35.5469 49.1188 35.6531L48.375 36.025V33.8469L49.0125 34.0062ZM37.6437 25.1875H40.0875L41.0969 24.4437C41.6812 24.0187 42.425 24.0187 43.0094 24.4437L43.9656 25.1875H46.4094C46.675 25.1875 46.8875 25.4 46.9406 25.6656L46.9938 26.25H37.0063L37.0594 25.6656C37.1125 25.4 37.3781 25.1875 37.6437 25.1875V25.1875ZM36.9 27.3125H47.1L47.2594 28.375H36.7406L36.9 27.3125ZM32.4375 29.9687C32.4375 29.65 32.65 29.4375 32.9688 29.4375H51.0312C51.35 29.4375 51.5625 29.65 51.5625 29.9687C51.5625 30.2875 51.35 30.5 51.0312 30.5H32.9688C32.65 30.5 32.4375 30.2875 32.4375 29.9687V29.9687ZM34.5625 35.175V34.5375C34.5625 34.2719 34.7219 34.0594 34.9875 34.0062L35.625 33.8469V36.025L34.8813 35.6531C34.6688 35.5469 34.5625 35.3344 34.5625 35.175ZM36.6875 36.8219V31.5625H47.3125V36.8219C47.3125 37.6719 46.8875 38.4687 46.1969 38.9469L44.4969 40.2219C43.0094 41.2844 40.9906 41.2844 39.5031 40.2219L37.8031 39C37.1125 38.4687 36.6875 37.6719 36.6875 36.8219V36.8219ZM38.8656 41.125C39.45 41.55 40.1406 41.8687 40.8844 42.0281L38.3875 44.525L36.5281 41.1781L38.2281 40.6469L38.8656 41.125ZM32.9156 42.2937L33.1812 42.1875L33.8719 43.6219L31.9594 45.1625L30.8969 43.7812C31.4281 43.0375 32.1187 42.5594 32.9156 42.2937ZM53.6875 53.875H49.4375V50.6875H48.375V53.875H35.625V50.6875H34.5625V53.875H30.3125V45.8531C30.3125 45.5344 30.3656 45.1625 30.4719 44.8437L31.8531 46.65L35.2531 43.9406L34.2437 41.9219L35.5187 41.4969L38.175 46.2781L42 42.4531L45.825 46.2781L48.4813 41.4969L49.7562 41.9219L48.7469 43.9406L52.1469 46.65L53.5281 44.8437C53.6344 45.1625 53.6875 45.4812 53.6875 45.8531V53.875Z" fill="black"/>
<path d="M44.125 47.5H49.4375V48.5625H44.125V47.5Z" fill="black"/>
<path d="M21.7994 38.7084C21.8361 42.8926 23.1883 46.9872 25.6658 50.3739" stroke="black" stroke-linecap="round" stroke-linejoin="round"/>
<defs>
<filter id="filter0_d_994_25995" x="15" y="65" width="33" height="36" filterUnits="userSpaceOnUse" color-interpolation-filters="sRGB">
<feFlood flood-opacity="0" result="BackgroundImageFix"/>
<feColorMatrix in="SourceAlpha" type="matrix" values="0 0 0 0 0 0 0 0 0 0 0 0 0 0 0 0 0 0 127 0" result="hardAlpha"/>
<feOffset dy="4"/>
<feGaussianBlur stdDeviation="2"/>
<feComposite in2="hardAlpha" operator="out"/>
<feColorMatrix type="matrix" values="0 0 0 0 0 0 0 0 0 0 0 0 0 0 0 0 0 0 0.25 0"/>
<feBlend mode="normal" in2="BackgroundImageFix" result="effect1_dropShadow_994_25995"/>
<feBlend mode="normal" in="SourceGraphic" in2="effect1_dropShadow_994_25995" result="shape"/>
</filter>
<filter id="filter1_d_994_25995" x="37" y="65" width="33" height="36" filterUnits="userSpaceOnUse" color-interpolation-filters="sRGB">
<feFlood flood-opacity="0" result="BackgroundImageFix"/>
<feColorMatrix in="SourceAlpha" type="matrix" values="0 0 0 0 0 0 0 0 0 0 0 0 0 0 0 0 0 0 127 0" result="hardAlpha"/>
<feOffset dy="4"/>
<feGaussianBlur stdDeviation="2"/>
<feComposite in2="hardAlpha" operator="out"/>
<feColorMatrix type="matrix" values="0 0 0 0 0 0 0 0 0 0 0 0 0 0 0 0 0 0 0.25 0"/>
<feBlend mode="normal" in2="BackgroundImageFix" result="effect1_dropShadow_994_25995"/>
<feBlend mode="normal" in="SourceGraphic" in2="effect1_dropShadow_994_25995" result="shape"/>
</filter>
<filter id="filter2_d_994_25995" x="0.94458" y="1.77376" width="82.1106" height="81.7705" filterUnits="userSpaceOnUse" color-interpolation-filters="sRGB">
<feFlood flood-opacity="0" result="BackgroundImageFix"/>
<feColorMatrix in="SourceAlpha" type="matrix" values="0 0 0 0 0 0 0 0 0 0 0 0 0 0 0 0 0 0 127 0" result="hardAlpha"/>
<feOffset dy="4"/>
<feGaussianBlur stdDeviation="2"/>
<feComposite in2="hardAlpha" operator="out"/>
<feColorMatrix type="matrix" values="0 0 0 0 0 0 0 0 0 0 0 0 0 0 0 0 0 0 0.25 0"/>
<feBlend mode="normal" in2="BackgroundImageFix" result="effect1_dropShadow_994_25995"/>
<feBlend mode="normal" in="SourceGraphic" in2="effect1_dropShadow_994_25995" result="shape"/>
</filter>
</defs>
</svg>
